%FSLAX45Y45*%
G04 Gerber Fmt 4.5, Leading zero omitted, Abs format (unit mm)*
G04 Created by KiCad (PCBNEW 6.99.0-unknown-455e330f3b~148~ubuntu20.04.1) date 2022-03-15 10:42:57*
%MOMM*%
%LPD*%
G01*
G04 APERTURE LIST*
%TA.AperFunction,Profile*%
%ADD10C,0.100000*%
%TD*%
%ADD11C,0.200000*%
%ADD12C,0.040000*%
%ADD13C,0.065000*%
%ADD14C,0.100000*%
G04 APERTURE END LIST*
D10*
X6750000Y3400000D02*
X6750000Y3050000D01*
X650000Y0D02*
X7400000Y0D01*
X6750000Y3050000D02*
G75*
G03*
X7050000Y2750000I300000J0D01*
G01*
X0Y650000D02*
X350000Y650000D01*
X7400000Y2750000D02*
X7100000Y2750000D01*
X7100000Y2750000D02*
X7050000Y2750000D01*
X6750000Y3400000D02*
X0Y3400000D01*
X650000Y0D02*
X650000Y350000D01*
X0Y3400000D02*
X0Y650000D01*
X7400000Y0D02*
X7400000Y2750000D01*
X650000Y350000D02*
G75*
G03*
X350000Y650000I-300000J0D01*
G01*
D11*
D12*
X900000Y3260000D02*
X940000Y3220000D01*
X940000Y3260000D02*
X900000Y3220000D01*
X960000Y1345000D02*
X1000000Y1305000D01*
X1000000Y1345000D02*
X960000Y1305000D01*
X995000Y3260000D02*
X1035000Y3220000D01*
X1035000Y3260000D02*
X995000Y3220000D01*
X1030000Y365000D02*
X1070000Y325000D01*
X1070000Y365000D02*
X1030000Y325000D01*
X1080000Y1190000D02*
X1120000Y1150000D01*
X1120000Y1190000D02*
X1080000Y1150000D01*
X1280000Y220000D02*
X1320000Y180000D01*
X1320000Y220000D02*
X1280000Y180000D01*
X1285000Y1030000D02*
X1325000Y990000D01*
X1325000Y1030000D02*
X1285000Y990000D01*
X1480000Y550000D02*
X1520000Y510000D01*
X1520000Y550000D02*
X1480000Y510000D01*
X1880000Y1725000D02*
X1920000Y1685000D01*
X1920000Y1725000D02*
X1880000Y1685000D01*
X2080000Y2630000D02*
X2120000Y2590000D01*
X2120000Y2630000D02*
X2080000Y2590000D01*
X2205000Y2940000D02*
X2245000Y2900000D01*
X2245000Y2940000D02*
X2205000Y2900000D01*
X2250000Y2260000D02*
X2290000Y2220000D01*
X2290000Y2260000D02*
X2250000Y2220000D01*
X2285000Y1070000D02*
X2325000Y1030000D01*
X2325000Y1070000D02*
X2285000Y1030000D01*
X2285000Y980000D02*
X2325000Y940000D01*
X2325000Y980000D02*
X2285000Y940000D01*
X2380000Y2580000D02*
X2420000Y2540000D01*
X2420000Y2580000D02*
X2380000Y2540000D01*
X2465000Y2580000D02*
X2505000Y2540000D01*
X2505000Y2580000D02*
X2465000Y2540000D01*
X2595000Y3080000D02*
X2635000Y3040000D01*
X2635000Y3080000D02*
X2595000Y3040000D01*
X2595000Y2985000D02*
X2635000Y2945000D01*
X2635000Y2985000D02*
X2595000Y2945000D01*
X2640000Y1435000D02*
X2680000Y1395000D01*
X2680000Y1435000D02*
X2640000Y1395000D01*
X2835000Y1625000D02*
X2875000Y1585000D01*
X2875000Y1625000D02*
X2835000Y1585000D01*
X3025000Y2500000D02*
X3065000Y2460000D01*
X3065000Y2500000D02*
X3025000Y2460000D01*
X3215000Y2720000D02*
X3255000Y2680000D01*
X3255000Y2720000D02*
X3215000Y2680000D01*
X3220000Y2500000D02*
X3260000Y2460000D01*
X3260000Y2500000D02*
X3220000Y2460000D01*
X3390000Y3250000D02*
X3430000Y3210000D01*
X3430000Y3250000D02*
X3390000Y3210000D01*
X3510000Y3250000D02*
X3550000Y3210000D01*
X3550000Y3250000D02*
X3510000Y3210000D01*
X3559324Y263126D02*
X3599324Y223125D01*
X3599324Y263126D02*
X3559324Y223125D01*
X3630000Y380000D02*
X3670000Y340000D01*
X3670000Y380000D02*
X3630000Y340000D01*
X3630000Y170000D02*
X3670000Y130000D01*
X3670000Y170000D02*
X3630000Y130000D01*
X4165000Y1220000D02*
X4205000Y1180000D01*
X4205000Y1220000D02*
X4165000Y1180000D01*
X4165000Y1135000D02*
X4205000Y1095000D01*
X4205000Y1135000D02*
X4165000Y1095000D01*
X4410000Y3080000D02*
X4450000Y3040000D01*
X4450000Y3080000D02*
X4410000Y3040000D01*
X4505000Y3080000D02*
X4545000Y3040000D01*
X4545000Y3080000D02*
X4505000Y3040000D01*
X4530000Y175000D02*
X4570000Y135000D01*
X4570000Y175000D02*
X4530000Y135000D01*
X4675000Y205000D02*
X4715000Y165000D01*
X4715000Y205000D02*
X4675000Y165000D01*
X5025000Y380000D02*
X5065000Y340000D01*
X5065000Y380000D02*
X5025000Y340000D01*
X5590000Y2620000D02*
X5630000Y2580000D01*
X5630000Y2620000D02*
X5590000Y2580000D01*
X5590000Y2530000D02*
X5630000Y2490000D01*
X5630000Y2530000D02*
X5590000Y2490000D01*
X5980000Y2570000D02*
X6020000Y2530000D01*
X6020000Y2570000D02*
X5980000Y2530000D01*
X6290000Y1895000D02*
X6330000Y1855000D01*
X6330000Y1895000D02*
X6290000Y1855000D01*
X6335000Y2420000D02*
X6375000Y2380000D01*
X6375000Y2420000D02*
X6335000Y2380000D01*
X6480000Y2750000D02*
X6520000Y2710000D01*
X6520000Y2750000D02*
X6480000Y2710000D01*
X6520000Y1895000D02*
X6560000Y1855000D01*
X6560000Y1895000D02*
X6520000Y1855000D01*
X6640000Y2200000D02*
X6680000Y2160000D01*
X6680000Y2200000D02*
X6640000Y2160000D01*
X6795000Y1990000D02*
X6835000Y1950000D01*
X6835000Y1990000D02*
X6795000Y1950000D01*
X6795000Y1450000D02*
X6835000Y1410000D01*
X6835000Y1450000D02*
X6795000Y1410000D01*
X6875000Y1990000D02*
X6915000Y1950000D01*
X6915000Y1990000D02*
X6875000Y1950000D01*
X6875000Y1450000D02*
X6915000Y1410000D01*
X6915000Y1450000D02*
X6875000Y1410000D01*
X6925000Y2380000D02*
X6965000Y2340000D01*
X6965000Y2380000D02*
X6925000Y2340000D01*
X7010000Y2380000D02*
X7050000Y2340000D01*
X7050000Y2380000D02*
X7010000Y2340000D01*
X7030000Y1980000D02*
X7070000Y1940000D01*
X7070000Y1980000D02*
X7030000Y1940000D01*
X7035000Y1465000D02*
X7075000Y1425000D01*
X7075000Y1465000D02*
X7035000Y1425000D01*
X7180000Y985000D02*
X7220000Y945000D01*
X7220000Y985000D02*
X7180000Y945000D01*
D13*
X6912500Y2130000D02*
G75*
G03*
X6912500Y2130000I-32500J0D01*
G01*
D11*
X6842500Y2107500D02*
X6917500Y2107500D01*
X6842500Y2152500D02*
X6917500Y2152500D01*
X6917500Y2107500D02*
G75*
G03*
X6917500Y2152500I0J22500D01*
G01*
X6842500Y2152500D02*
G75*
G03*
X6842500Y2107500I0J-22500D01*
G01*
D13*
X6912500Y1270000D02*
G75*
G03*
X6912500Y1270000I-32500J0D01*
G01*
D11*
X6842500Y1247500D02*
X6917500Y1247500D01*
X6842500Y1292500D02*
X6917500Y1292500D01*
X6917500Y1247500D02*
G75*
G03*
X6917500Y1292500I0J22500D01*
G01*
X6842500Y1292500D02*
G75*
G03*
X6842500Y1247500I0J-22500D01*
G01*
D13*
X7292500Y2130000D02*
G75*
G03*
X7292500Y2130000I-32500J0D01*
G01*
D11*
X7222500Y2107500D02*
X7297500Y2107500D01*
X7222500Y2152500D02*
X7297500Y2152500D01*
X7297500Y2107500D02*
G75*
G03*
X7297500Y2152500I0J22500D01*
G01*
X7222500Y2152500D02*
G75*
G03*
X7222500Y2107500I0J-22500D01*
G01*
D13*
X7292500Y1270000D02*
G75*
G03*
X7292500Y1270000I-32500J0D01*
G01*
D11*
X7222500Y1247500D02*
X7297500Y1247500D01*
X7222500Y1292500D02*
X7297500Y1292500D01*
X7297500Y1247500D02*
G75*
G03*
X7297500Y1292500I0J22500D01*
G01*
X7222500Y1292500D02*
G75*
G03*
X7222500Y1247500I0J-22500D01*
G01*
D14*
X3590000Y2931000D02*
X3590000Y2831000D01*
X3540000Y2881000D02*
X3640000Y2881000D01*
X3590000Y2677000D02*
X3590000Y2577000D01*
X3540000Y2627000D02*
X3640000Y2627000D01*
X3590000Y2423000D02*
X3590000Y2323000D01*
X3540000Y2373000D02*
X3640000Y2373000D01*
X3590000Y2169000D02*
X3590000Y2069000D01*
X3540000Y2119000D02*
X3640000Y2119000D01*
X3590000Y1915000D02*
X3590000Y1815000D01*
X3540000Y1865000D02*
X3640000Y1865000D01*
X3590000Y1661000D02*
X3590000Y1561000D01*
X3540000Y1611000D02*
X3640000Y1611000D01*
X3590000Y1407000D02*
X3590000Y1307000D01*
X3540000Y1357000D02*
X3640000Y1357000D01*
X3590000Y1153000D02*
X3590000Y1053000D01*
X3540000Y1103000D02*
X3640000Y1103000D01*
X3590000Y899000D02*
X3590000Y799000D01*
X3540000Y849000D02*
X3640000Y849000D01*
X3590000Y645000D02*
X3590000Y545000D01*
X3540000Y595000D02*
X3640000Y595000D01*
D11*
X242619Y-315476D02*
X242619Y-115476D01*
X242619Y-115476D02*
X290238Y-115476D01*
X290238Y-115476D02*
X318810Y-125000D01*
X318810Y-125000D02*
X337857Y-144048D01*
X337857Y-144048D02*
X347381Y-163095D01*
X347381Y-163095D02*
X356905Y-201190D01*
X356905Y-201190D02*
X356905Y-229762D01*
X356905Y-229762D02*
X347381Y-267857D01*
X347381Y-267857D02*
X337857Y-286905D01*
X337857Y-286905D02*
X318810Y-305952D01*
X318810Y-305952D02*
X290238Y-315476D01*
X290238Y-315476D02*
X242619Y-315476D01*
X442619Y-315476D02*
X442619Y-182143D01*
X442619Y-220238D02*
X452143Y-201190D01*
X452143Y-201190D02*
X461667Y-191667D01*
X461667Y-191667D02*
X480714Y-182143D01*
X480714Y-182143D02*
X499762Y-182143D01*
X566429Y-315476D02*
X566429Y-182143D01*
X566429Y-115476D02*
X556905Y-125000D01*
X556905Y-125000D02*
X566429Y-134524D01*
X566429Y-134524D02*
X575952Y-125000D01*
X575952Y-125000D02*
X566429Y-115476D01*
X566429Y-115476D02*
X566429Y-134524D01*
X690238Y-315476D02*
X671190Y-305952D01*
X671190Y-305952D02*
X661667Y-286905D01*
X661667Y-286905D02*
X661667Y-115476D01*
X795000Y-315476D02*
X775952Y-305952D01*
X775952Y-305952D02*
X766428Y-286905D01*
X766428Y-286905D02*
X766428Y-115476D01*
X991190Y-315476D02*
X991190Y-115476D01*
X991190Y-115476D02*
X1057857Y-258333D01*
X1057857Y-258333D02*
X1124524Y-115476D01*
X1124524Y-115476D02*
X1124524Y-315476D01*
X1305476Y-315476D02*
X1305476Y-210714D01*
X1305476Y-210714D02*
X1295952Y-191667D01*
X1295952Y-191667D02*
X1276905Y-182143D01*
X1276905Y-182143D02*
X1238809Y-182143D01*
X1238809Y-182143D02*
X1219762Y-191667D01*
X1305476Y-305952D02*
X1286429Y-315476D01*
X1286429Y-315476D02*
X1238809Y-315476D01*
X1238809Y-315476D02*
X1219762Y-305952D01*
X1219762Y-305952D02*
X1210238Y-286905D01*
X1210238Y-286905D02*
X1210238Y-267857D01*
X1210238Y-267857D02*
X1219762Y-248809D01*
X1219762Y-248809D02*
X1238809Y-239286D01*
X1238809Y-239286D02*
X1286429Y-239286D01*
X1286429Y-239286D02*
X1305476Y-229762D01*
X1400714Y-182143D02*
X1400714Y-382143D01*
X1400714Y-191667D02*
X1419762Y-182143D01*
X1419762Y-182143D02*
X1457857Y-182143D01*
X1457857Y-182143D02*
X1476905Y-191667D01*
X1476905Y-191667D02*
X1486428Y-201190D01*
X1486428Y-201190D02*
X1495952Y-220238D01*
X1495952Y-220238D02*
X1495952Y-277381D01*
X1495952Y-277381D02*
X1486428Y-296429D01*
X1486428Y-296429D02*
X1476905Y-305952D01*
X1476905Y-305952D02*
X1457857Y-315476D01*
X1457857Y-315476D02*
X1419762Y-315476D01*
X1419762Y-315476D02*
X1400714Y-305952D01*
X1581667Y-296429D02*
X1591190Y-305952D01*
X1591190Y-305952D02*
X1581667Y-315476D01*
X1581667Y-315476D02*
X1572143Y-305952D01*
X1572143Y-305952D02*
X1581667Y-296429D01*
X1581667Y-296429D02*
X1581667Y-315476D01*
X1581667Y-191667D02*
X1591190Y-201190D01*
X1591190Y-201190D02*
X1581667Y-210714D01*
X1581667Y-210714D02*
X1572143Y-201190D01*
X1572143Y-201190D02*
X1581667Y-191667D01*
X1581667Y-191667D02*
X1581667Y-210714D01*
D12*
X-45000Y-625000D02*
X-5000Y-665000D01*
X-5000Y-625000D02*
X-45000Y-665000D01*
D11*
X280714Y-535476D02*
X299762Y-535476D01*
X299762Y-535476D02*
X318810Y-545000D01*
X318810Y-545000D02*
X328333Y-554524D01*
X328333Y-554524D02*
X337857Y-573571D01*
X337857Y-573571D02*
X347381Y-611667D01*
X347381Y-611667D02*
X347381Y-659286D01*
X347381Y-659286D02*
X337857Y-697381D01*
X337857Y-697381D02*
X328333Y-716428D01*
X328333Y-716428D02*
X318810Y-725952D01*
X318810Y-725952D02*
X299762Y-735476D01*
X299762Y-735476D02*
X280714Y-735476D01*
X280714Y-735476D02*
X261667Y-725952D01*
X261667Y-725952D02*
X252143Y-716428D01*
X252143Y-716428D02*
X242619Y-697381D01*
X242619Y-697381D02*
X233095Y-659286D01*
X233095Y-659286D02*
X233095Y-611667D01*
X233095Y-611667D02*
X242619Y-573571D01*
X242619Y-573571D02*
X252143Y-554524D01*
X252143Y-554524D02*
X261667Y-545000D01*
X261667Y-545000D02*
X280714Y-535476D01*
X433095Y-716428D02*
X442619Y-725952D01*
X442619Y-725952D02*
X433095Y-735476D01*
X433095Y-735476D02*
X423571Y-725952D01*
X423571Y-725952D02*
X433095Y-716428D01*
X433095Y-716428D02*
X433095Y-735476D01*
X614048Y-602143D02*
X614048Y-735476D01*
X566429Y-525952D02*
X518809Y-668810D01*
X518809Y-668810D02*
X642619Y-668810D01*
X756905Y-535476D02*
X775952Y-535476D01*
X775952Y-535476D02*
X795000Y-545000D01*
X795000Y-545000D02*
X804524Y-554524D01*
X804524Y-554524D02*
X814048Y-573571D01*
X814048Y-573571D02*
X823571Y-611667D01*
X823571Y-611667D02*
X823571Y-659286D01*
X823571Y-659286D02*
X814048Y-697381D01*
X814048Y-697381D02*
X804524Y-716428D01*
X804524Y-716428D02*
X795000Y-725952D01*
X795000Y-725952D02*
X775952Y-735476D01*
X775952Y-735476D02*
X756905Y-735476D01*
X756905Y-735476D02*
X737857Y-725952D01*
X737857Y-725952D02*
X728333Y-716428D01*
X728333Y-716428D02*
X718809Y-697381D01*
X718809Y-697381D02*
X709286Y-659286D01*
X709286Y-659286D02*
X709286Y-611667D01*
X709286Y-611667D02*
X718809Y-573571D01*
X718809Y-573571D02*
X728333Y-554524D01*
X728333Y-554524D02*
X737857Y-545000D01*
X737857Y-545000D02*
X756905Y-535476D01*
X947381Y-535476D02*
X966429Y-535476D01*
X966429Y-535476D02*
X985476Y-545000D01*
X985476Y-545000D02*
X995000Y-554524D01*
X995000Y-554524D02*
X1004524Y-573571D01*
X1004524Y-573571D02*
X1014048Y-611667D01*
X1014048Y-611667D02*
X1014048Y-659286D01*
X1014048Y-659286D02*
X1004524Y-697381D01*
X1004524Y-697381D02*
X995000Y-716428D01*
X995000Y-716428D02*
X985476Y-725952D01*
X985476Y-725952D02*
X966429Y-735476D01*
X966429Y-735476D02*
X947381Y-735476D01*
X947381Y-735476D02*
X928333Y-725952D01*
X928333Y-725952D02*
X918809Y-716428D01*
X918809Y-716428D02*
X909286Y-697381D01*
X909286Y-697381D02*
X899762Y-659286D01*
X899762Y-659286D02*
X899762Y-611667D01*
X899762Y-611667D02*
X909286Y-573571D01*
X909286Y-573571D02*
X918809Y-554524D01*
X918809Y-554524D02*
X928333Y-545000D01*
X928333Y-545000D02*
X947381Y-535476D01*
X1099762Y-735476D02*
X1099762Y-602143D01*
X1099762Y-621190D02*
X1109286Y-611667D01*
X1109286Y-611667D02*
X1128333Y-602143D01*
X1128333Y-602143D02*
X1156905Y-602143D01*
X1156905Y-602143D02*
X1175952Y-611667D01*
X1175952Y-611667D02*
X1185476Y-630714D01*
X1185476Y-630714D02*
X1185476Y-735476D01*
X1185476Y-630714D02*
X1195000Y-611667D01*
X1195000Y-611667D02*
X1214048Y-602143D01*
X1214048Y-602143D02*
X1242619Y-602143D01*
X1242619Y-602143D02*
X1261667Y-611667D01*
X1261667Y-611667D02*
X1271191Y-630714D01*
X1271191Y-630714D02*
X1271191Y-735476D01*
X1366429Y-735476D02*
X1366429Y-602143D01*
X1366429Y-621190D02*
X1375952Y-611667D01*
X1375952Y-611667D02*
X1395000Y-602143D01*
X1395000Y-602143D02*
X1423571Y-602143D01*
X1423571Y-602143D02*
X1442619Y-611667D01*
X1442619Y-611667D02*
X1452143Y-630714D01*
X1452143Y-630714D02*
X1452143Y-735476D01*
X1452143Y-630714D02*
X1461667Y-611667D01*
X1461667Y-611667D02*
X1480714Y-602143D01*
X1480714Y-602143D02*
X1509286Y-602143D01*
X1509286Y-602143D02*
X1528333Y-611667D01*
X1528333Y-611667D02*
X1537857Y-630714D01*
X1537857Y-630714D02*
X1537857Y-735476D01*
X1895952Y-525952D02*
X1724524Y-783095D01*
X2120714Y-535476D02*
X2139762Y-535476D01*
X2139762Y-535476D02*
X2158810Y-545000D01*
X2158810Y-545000D02*
X2168333Y-554524D01*
X2168333Y-554524D02*
X2177857Y-573571D01*
X2177857Y-573571D02*
X2187381Y-611667D01*
X2187381Y-611667D02*
X2187381Y-659286D01*
X2187381Y-659286D02*
X2177857Y-697381D01*
X2177857Y-697381D02*
X2168333Y-716428D01*
X2168333Y-716428D02*
X2158810Y-725952D01*
X2158810Y-725952D02*
X2139762Y-735476D01*
X2139762Y-735476D02*
X2120714Y-735476D01*
X2120714Y-735476D02*
X2101667Y-725952D01*
X2101667Y-725952D02*
X2092143Y-716428D01*
X2092143Y-716428D02*
X2082619Y-697381D01*
X2082619Y-697381D02*
X2073095Y-659286D01*
X2073095Y-659286D02*
X2073095Y-611667D01*
X2073095Y-611667D02*
X2082619Y-573571D01*
X2082619Y-573571D02*
X2092143Y-554524D01*
X2092143Y-554524D02*
X2101667Y-545000D01*
X2101667Y-545000D02*
X2120714Y-535476D01*
X2273095Y-716428D02*
X2282619Y-725952D01*
X2282619Y-725952D02*
X2273095Y-735476D01*
X2273095Y-735476D02*
X2263572Y-725952D01*
X2263572Y-725952D02*
X2273095Y-716428D01*
X2273095Y-716428D02*
X2273095Y-735476D01*
X2406429Y-535476D02*
X2425476Y-535476D01*
X2425476Y-535476D02*
X2444524Y-545000D01*
X2444524Y-545000D02*
X2454048Y-554524D01*
X2454048Y-554524D02*
X2463572Y-573571D01*
X2463572Y-573571D02*
X2473095Y-611667D01*
X2473095Y-611667D02*
X2473095Y-659286D01*
X2473095Y-659286D02*
X2463572Y-697381D01*
X2463572Y-697381D02*
X2454048Y-716428D01*
X2454048Y-716428D02*
X2444524Y-725952D01*
X2444524Y-725952D02*
X2425476Y-735476D01*
X2425476Y-735476D02*
X2406429Y-735476D01*
X2406429Y-735476D02*
X2387381Y-725952D01*
X2387381Y-725952D02*
X2377857Y-716428D01*
X2377857Y-716428D02*
X2368333Y-697381D01*
X2368333Y-697381D02*
X2358810Y-659286D01*
X2358810Y-659286D02*
X2358810Y-611667D01*
X2358810Y-611667D02*
X2368333Y-573571D01*
X2368333Y-573571D02*
X2377857Y-554524D01*
X2377857Y-554524D02*
X2387381Y-545000D01*
X2387381Y-545000D02*
X2406429Y-535476D01*
X2663572Y-735476D02*
X2549286Y-735476D01*
X2606429Y-735476D02*
X2606429Y-535476D01*
X2606429Y-535476D02*
X2587381Y-564048D01*
X2587381Y-564048D02*
X2568333Y-583095D01*
X2568333Y-583095D02*
X2549286Y-592619D01*
X2844524Y-535476D02*
X2749286Y-535476D01*
X2749286Y-535476D02*
X2739762Y-630714D01*
X2739762Y-630714D02*
X2749286Y-621190D01*
X2749286Y-621190D02*
X2768333Y-611667D01*
X2768333Y-611667D02*
X2815952Y-611667D01*
X2815952Y-611667D02*
X2835000Y-621190D01*
X2835000Y-621190D02*
X2844524Y-630714D01*
X2844524Y-630714D02*
X2854048Y-649762D01*
X2854048Y-649762D02*
X2854048Y-697381D01*
X2854048Y-697381D02*
X2844524Y-716428D01*
X2844524Y-716428D02*
X2835000Y-725952D01*
X2835000Y-725952D02*
X2815952Y-735476D01*
X2815952Y-735476D02*
X2768333Y-735476D01*
X2768333Y-735476D02*
X2749286Y-725952D01*
X2749286Y-725952D02*
X2739762Y-716428D01*
X2920714Y-535476D02*
X3054048Y-535476D01*
X3054048Y-535476D02*
X2968333Y-735476D01*
X3120714Y-535476D02*
X3120714Y-573571D01*
X3196905Y-535476D02*
X3196905Y-573571D01*
X3459762Y-811667D02*
X3450238Y-802143D01*
X3450238Y-802143D02*
X3431191Y-773571D01*
X3431191Y-773571D02*
X3421667Y-754524D01*
X3421667Y-754524D02*
X3412143Y-725952D01*
X3412143Y-725952D02*
X3402619Y-678333D01*
X3402619Y-678333D02*
X3402619Y-640238D01*
X3402619Y-640238D02*
X3412143Y-592619D01*
X3412143Y-592619D02*
X3421667Y-564048D01*
X3421667Y-564048D02*
X3431191Y-545000D01*
X3431191Y-545000D02*
X3450238Y-516428D01*
X3450238Y-516428D02*
X3459762Y-506905D01*
X3631191Y-535476D02*
X3535952Y-535476D01*
X3535952Y-535476D02*
X3526429Y-630714D01*
X3526429Y-630714D02*
X3535952Y-621190D01*
X3535952Y-621190D02*
X3555000Y-611667D01*
X3555000Y-611667D02*
X3602619Y-611667D01*
X3602619Y-611667D02*
X3621667Y-621190D01*
X3621667Y-621190D02*
X3631191Y-630714D01*
X3631191Y-630714D02*
X3640714Y-649762D01*
X3640714Y-649762D02*
X3640714Y-697381D01*
X3640714Y-697381D02*
X3631191Y-716428D01*
X3631191Y-716428D02*
X3621667Y-725952D01*
X3621667Y-725952D02*
X3602619Y-735476D01*
X3602619Y-735476D02*
X3555000Y-735476D01*
X3555000Y-735476D02*
X3535952Y-725952D01*
X3535952Y-725952D02*
X3526429Y-716428D01*
X3716905Y-554524D02*
X3726429Y-545000D01*
X3726429Y-545000D02*
X3745476Y-535476D01*
X3745476Y-535476D02*
X3793095Y-535476D01*
X3793095Y-535476D02*
X3812143Y-545000D01*
X3812143Y-545000D02*
X3821667Y-554524D01*
X3821667Y-554524D02*
X3831191Y-573571D01*
X3831191Y-573571D02*
X3831191Y-592619D01*
X3831191Y-592619D02*
X3821667Y-621190D01*
X3821667Y-621190D02*
X3707381Y-735476D01*
X3707381Y-735476D02*
X3831191Y-735476D01*
X4036905Y-735476D02*
X4036905Y-535476D01*
X4122619Y-735476D02*
X4122619Y-630714D01*
X4122619Y-630714D02*
X4113095Y-611667D01*
X4113095Y-611667D02*
X4094048Y-602143D01*
X4094048Y-602143D02*
X4065476Y-602143D01*
X4065476Y-602143D02*
X4046429Y-611667D01*
X4046429Y-611667D02*
X4036905Y-621190D01*
X4246429Y-735476D02*
X4227381Y-725952D01*
X4227381Y-725952D02*
X4217857Y-716428D01*
X4217857Y-716428D02*
X4208334Y-697381D01*
X4208334Y-697381D02*
X4208334Y-640238D01*
X4208334Y-640238D02*
X4217857Y-621190D01*
X4217857Y-621190D02*
X4227381Y-611667D01*
X4227381Y-611667D02*
X4246429Y-602143D01*
X4246429Y-602143D02*
X4275000Y-602143D01*
X4275000Y-602143D02*
X4294048Y-611667D01*
X4294048Y-611667D02*
X4303572Y-621190D01*
X4303572Y-621190D02*
X4313095Y-640238D01*
X4313095Y-640238D02*
X4313095Y-697381D01*
X4313095Y-697381D02*
X4303572Y-716428D01*
X4303572Y-716428D02*
X4294048Y-725952D01*
X4294048Y-725952D02*
X4275000Y-735476D01*
X4275000Y-735476D02*
X4246429Y-735476D01*
X4427381Y-735476D02*
X4408334Y-725952D01*
X4408334Y-725952D02*
X4398810Y-706905D01*
X4398810Y-706905D02*
X4398810Y-535476D01*
X4579762Y-725952D02*
X4560715Y-735476D01*
X4560715Y-735476D02*
X4522619Y-735476D01*
X4522619Y-735476D02*
X4503572Y-725952D01*
X4503572Y-725952D02*
X4494048Y-706905D01*
X4494048Y-706905D02*
X4494048Y-630714D01*
X4494048Y-630714D02*
X4503572Y-611667D01*
X4503572Y-611667D02*
X4522619Y-602143D01*
X4522619Y-602143D02*
X4560715Y-602143D01*
X4560715Y-602143D02*
X4579762Y-611667D01*
X4579762Y-611667D02*
X4589286Y-630714D01*
X4589286Y-630714D02*
X4589286Y-649762D01*
X4589286Y-649762D02*
X4494048Y-668810D01*
X4665476Y-725952D02*
X4684524Y-735476D01*
X4684524Y-735476D02*
X4722619Y-735476D01*
X4722619Y-735476D02*
X4741667Y-725952D01*
X4741667Y-725952D02*
X4751191Y-706905D01*
X4751191Y-706905D02*
X4751191Y-697381D01*
X4751191Y-697381D02*
X4741667Y-678333D01*
X4741667Y-678333D02*
X4722619Y-668810D01*
X4722619Y-668810D02*
X4694048Y-668810D01*
X4694048Y-668810D02*
X4675000Y-659286D01*
X4675000Y-659286D02*
X4665476Y-640238D01*
X4665476Y-640238D02*
X4665476Y-630714D01*
X4665476Y-630714D02*
X4675000Y-611667D01*
X4675000Y-611667D02*
X4694048Y-602143D01*
X4694048Y-602143D02*
X4722619Y-602143D01*
X4722619Y-602143D02*
X4741667Y-611667D01*
X4817857Y-811667D02*
X4827381Y-802143D01*
X4827381Y-802143D02*
X4846429Y-773571D01*
X4846429Y-773571D02*
X4855953Y-754524D01*
X4855953Y-754524D02*
X4865476Y-725952D01*
X4865476Y-725952D02*
X4875000Y-678333D01*
X4875000Y-678333D02*
X4875000Y-640238D01*
X4875000Y-640238D02*
X4865476Y-592619D01*
X4865476Y-592619D02*
X4855953Y-564048D01*
X4855953Y-564048D02*
X4846429Y-545000D01*
X4846429Y-545000D02*
X4827381Y-516428D01*
X4827381Y-516428D02*
X4817857Y-506905D01*
D13*
X-5000Y-909000D02*
G75*
G03*
X-5000Y-909000I-32500J0D01*
G01*
D11*
X280714Y-799476D02*
X299762Y-799476D01*
X299762Y-799476D02*
X318810Y-809000D01*
X318810Y-809000D02*
X328333Y-818524D01*
X328333Y-818524D02*
X337857Y-837571D01*
X337857Y-837571D02*
X347381Y-875667D01*
X347381Y-875667D02*
X347381Y-923286D01*
X347381Y-923286D02*
X337857Y-961381D01*
X337857Y-961381D02*
X328333Y-980428D01*
X328333Y-980428D02*
X318810Y-989952D01*
X318810Y-989952D02*
X299762Y-999476D01*
X299762Y-999476D02*
X280714Y-999476D01*
X280714Y-999476D02*
X261667Y-989952D01*
X261667Y-989952D02*
X252143Y-980428D01*
X252143Y-980428D02*
X242619Y-961381D01*
X242619Y-961381D02*
X233095Y-923286D01*
X233095Y-923286D02*
X233095Y-875667D01*
X233095Y-875667D02*
X242619Y-837571D01*
X242619Y-837571D02*
X252143Y-818524D01*
X252143Y-818524D02*
X261667Y-809000D01*
X261667Y-809000D02*
X280714Y-799476D01*
X433095Y-980428D02*
X442619Y-989952D01*
X442619Y-989952D02*
X433095Y-999476D01*
X433095Y-999476D02*
X423571Y-989952D01*
X423571Y-989952D02*
X433095Y-980428D01*
X433095Y-980428D02*
X433095Y-999476D01*
X614048Y-799476D02*
X575952Y-799476D01*
X575952Y-799476D02*
X556905Y-809000D01*
X556905Y-809000D02*
X547381Y-818524D01*
X547381Y-818524D02*
X528333Y-847095D01*
X528333Y-847095D02*
X518809Y-885190D01*
X518809Y-885190D02*
X518809Y-961381D01*
X518809Y-961381D02*
X528333Y-980428D01*
X528333Y-980428D02*
X537857Y-989952D01*
X537857Y-989952D02*
X556905Y-999476D01*
X556905Y-999476D02*
X595000Y-999476D01*
X595000Y-999476D02*
X614048Y-989952D01*
X614048Y-989952D02*
X623571Y-980428D01*
X623571Y-980428D02*
X633095Y-961381D01*
X633095Y-961381D02*
X633095Y-913762D01*
X633095Y-913762D02*
X623571Y-894714D01*
X623571Y-894714D02*
X614048Y-885190D01*
X614048Y-885190D02*
X595000Y-875667D01*
X595000Y-875667D02*
X556905Y-875667D01*
X556905Y-875667D02*
X537857Y-885190D01*
X537857Y-885190D02*
X528333Y-894714D01*
X528333Y-894714D02*
X518809Y-913762D01*
X814048Y-799476D02*
X718809Y-799476D01*
X718809Y-799476D02*
X709286Y-894714D01*
X709286Y-894714D02*
X718809Y-885190D01*
X718809Y-885190D02*
X737857Y-875667D01*
X737857Y-875667D02*
X785476Y-875667D01*
X785476Y-875667D02*
X804524Y-885190D01*
X804524Y-885190D02*
X814048Y-894714D01*
X814048Y-894714D02*
X823571Y-913762D01*
X823571Y-913762D02*
X823571Y-961381D01*
X823571Y-961381D02*
X814048Y-980428D01*
X814048Y-980428D02*
X804524Y-989952D01*
X804524Y-989952D02*
X785476Y-999476D01*
X785476Y-999476D02*
X737857Y-999476D01*
X737857Y-999476D02*
X718809Y-989952D01*
X718809Y-989952D02*
X709286Y-980428D01*
X947381Y-799476D02*
X966429Y-799476D01*
X966429Y-799476D02*
X985476Y-809000D01*
X985476Y-809000D02*
X995000Y-818524D01*
X995000Y-818524D02*
X1004524Y-837571D01*
X1004524Y-837571D02*
X1014048Y-875667D01*
X1014048Y-875667D02*
X1014048Y-923286D01*
X1014048Y-923286D02*
X1004524Y-961381D01*
X1004524Y-961381D02*
X995000Y-980428D01*
X995000Y-980428D02*
X985476Y-989952D01*
X985476Y-989952D02*
X966429Y-999476D01*
X966429Y-999476D02*
X947381Y-999476D01*
X947381Y-999476D02*
X928333Y-989952D01*
X928333Y-989952D02*
X918809Y-980428D01*
X918809Y-980428D02*
X909286Y-961381D01*
X909286Y-961381D02*
X899762Y-923286D01*
X899762Y-923286D02*
X899762Y-875667D01*
X899762Y-875667D02*
X909286Y-837571D01*
X909286Y-837571D02*
X918809Y-818524D01*
X918809Y-818524D02*
X928333Y-809000D01*
X928333Y-809000D02*
X947381Y-799476D01*
X1099762Y-999476D02*
X1099762Y-866143D01*
X1099762Y-885190D02*
X1109286Y-875667D01*
X1109286Y-875667D02*
X1128333Y-866143D01*
X1128333Y-866143D02*
X1156905Y-866143D01*
X1156905Y-866143D02*
X1175952Y-875667D01*
X1175952Y-875667D02*
X1185476Y-894714D01*
X1185476Y-894714D02*
X1185476Y-999476D01*
X1185476Y-894714D02*
X1195000Y-875667D01*
X1195000Y-875667D02*
X1214048Y-866143D01*
X1214048Y-866143D02*
X1242619Y-866143D01*
X1242619Y-866143D02*
X1261667Y-875667D01*
X1261667Y-875667D02*
X1271191Y-894714D01*
X1271191Y-894714D02*
X1271191Y-999476D01*
X1366429Y-999476D02*
X1366429Y-866143D01*
X1366429Y-885190D02*
X1375952Y-875667D01*
X1375952Y-875667D02*
X1395000Y-866143D01*
X1395000Y-866143D02*
X1423571Y-866143D01*
X1423571Y-866143D02*
X1442619Y-875667D01*
X1442619Y-875667D02*
X1452143Y-894714D01*
X1452143Y-894714D02*
X1452143Y-999476D01*
X1452143Y-894714D02*
X1461667Y-875667D01*
X1461667Y-875667D02*
X1480714Y-866143D01*
X1480714Y-866143D02*
X1509286Y-866143D01*
X1509286Y-866143D02*
X1528333Y-875667D01*
X1528333Y-875667D02*
X1537857Y-894714D01*
X1537857Y-894714D02*
X1537857Y-999476D01*
X1895952Y-789952D02*
X1724524Y-1047095D01*
X2120714Y-799476D02*
X2139762Y-799476D01*
X2139762Y-799476D02*
X2158810Y-809000D01*
X2158810Y-809000D02*
X2168333Y-818524D01*
X2168333Y-818524D02*
X2177857Y-837571D01*
X2177857Y-837571D02*
X2187381Y-875667D01*
X2187381Y-875667D02*
X2187381Y-923286D01*
X2187381Y-923286D02*
X2177857Y-961381D01*
X2177857Y-961381D02*
X2168333Y-980428D01*
X2168333Y-980428D02*
X2158810Y-989952D01*
X2158810Y-989952D02*
X2139762Y-999476D01*
X2139762Y-999476D02*
X2120714Y-999476D01*
X2120714Y-999476D02*
X2101667Y-989952D01*
X2101667Y-989952D02*
X2092143Y-980428D01*
X2092143Y-980428D02*
X2082619Y-961381D01*
X2082619Y-961381D02*
X2073095Y-923286D01*
X2073095Y-923286D02*
X2073095Y-875667D01*
X2073095Y-875667D02*
X2082619Y-837571D01*
X2082619Y-837571D02*
X2092143Y-818524D01*
X2092143Y-818524D02*
X2101667Y-809000D01*
X2101667Y-809000D02*
X2120714Y-799476D01*
X2273095Y-980428D02*
X2282619Y-989952D01*
X2282619Y-989952D02*
X2273095Y-999476D01*
X2273095Y-999476D02*
X2263572Y-989952D01*
X2263572Y-989952D02*
X2273095Y-980428D01*
X2273095Y-980428D02*
X2273095Y-999476D01*
X2406429Y-799476D02*
X2425476Y-799476D01*
X2425476Y-799476D02*
X2444524Y-809000D01*
X2444524Y-809000D02*
X2454048Y-818524D01*
X2454048Y-818524D02*
X2463572Y-837571D01*
X2463572Y-837571D02*
X2473095Y-875667D01*
X2473095Y-875667D02*
X2473095Y-923286D01*
X2473095Y-923286D02*
X2463572Y-961381D01*
X2463572Y-961381D02*
X2454048Y-980428D01*
X2454048Y-980428D02*
X2444524Y-989952D01*
X2444524Y-989952D02*
X2425476Y-999476D01*
X2425476Y-999476D02*
X2406429Y-999476D01*
X2406429Y-999476D02*
X2387381Y-989952D01*
X2387381Y-989952D02*
X2377857Y-980428D01*
X2377857Y-980428D02*
X2368333Y-961381D01*
X2368333Y-961381D02*
X2358810Y-923286D01*
X2358810Y-923286D02*
X2358810Y-875667D01*
X2358810Y-875667D02*
X2368333Y-837571D01*
X2368333Y-837571D02*
X2377857Y-818524D01*
X2377857Y-818524D02*
X2387381Y-809000D01*
X2387381Y-809000D02*
X2406429Y-799476D01*
X2549286Y-818524D02*
X2558810Y-809000D01*
X2558810Y-809000D02*
X2577857Y-799476D01*
X2577857Y-799476D02*
X2625476Y-799476D01*
X2625476Y-799476D02*
X2644524Y-809000D01*
X2644524Y-809000D02*
X2654048Y-818524D01*
X2654048Y-818524D02*
X2663572Y-837571D01*
X2663572Y-837571D02*
X2663572Y-856619D01*
X2663572Y-856619D02*
X2654048Y-885190D01*
X2654048Y-885190D02*
X2539762Y-999476D01*
X2539762Y-999476D02*
X2663572Y-999476D01*
X2844524Y-799476D02*
X2749286Y-799476D01*
X2749286Y-799476D02*
X2739762Y-894714D01*
X2739762Y-894714D02*
X2749286Y-885190D01*
X2749286Y-885190D02*
X2768333Y-875667D01*
X2768333Y-875667D02*
X2815952Y-875667D01*
X2815952Y-875667D02*
X2835000Y-885190D01*
X2835000Y-885190D02*
X2844524Y-894714D01*
X2844524Y-894714D02*
X2854048Y-913762D01*
X2854048Y-913762D02*
X2854048Y-961381D01*
X2854048Y-961381D02*
X2844524Y-980428D01*
X2844524Y-980428D02*
X2835000Y-989952D01*
X2835000Y-989952D02*
X2815952Y-999476D01*
X2815952Y-999476D02*
X2768333Y-999476D01*
X2768333Y-999476D02*
X2749286Y-989952D01*
X2749286Y-989952D02*
X2739762Y-980428D01*
X3025476Y-799476D02*
X2987381Y-799476D01*
X2987381Y-799476D02*
X2968333Y-809000D01*
X2968333Y-809000D02*
X2958810Y-818524D01*
X2958810Y-818524D02*
X2939762Y-847095D01*
X2939762Y-847095D02*
X2930238Y-885190D01*
X2930238Y-885190D02*
X2930238Y-961381D01*
X2930238Y-961381D02*
X2939762Y-980428D01*
X2939762Y-980428D02*
X2949286Y-989952D01*
X2949286Y-989952D02*
X2968333Y-999476D01*
X2968333Y-999476D02*
X3006429Y-999476D01*
X3006429Y-999476D02*
X3025476Y-989952D01*
X3025476Y-989952D02*
X3035000Y-980428D01*
X3035000Y-980428D02*
X3044524Y-961381D01*
X3044524Y-961381D02*
X3044524Y-913762D01*
X3044524Y-913762D02*
X3035000Y-894714D01*
X3035000Y-894714D02*
X3025476Y-885190D01*
X3025476Y-885190D02*
X3006429Y-875667D01*
X3006429Y-875667D02*
X2968333Y-875667D01*
X2968333Y-875667D02*
X2949286Y-885190D01*
X2949286Y-885190D02*
X2939762Y-894714D01*
X2939762Y-894714D02*
X2930238Y-913762D01*
X3120714Y-799476D02*
X3120714Y-837571D01*
X3196905Y-799476D02*
X3196905Y-837571D01*
X3459762Y-1075667D02*
X3450238Y-1066143D01*
X3450238Y-1066143D02*
X3431191Y-1037571D01*
X3431191Y-1037571D02*
X3421667Y-1018524D01*
X3421667Y-1018524D02*
X3412143Y-989952D01*
X3412143Y-989952D02*
X3402619Y-942333D01*
X3402619Y-942333D02*
X3402619Y-904238D01*
X3402619Y-904238D02*
X3412143Y-856619D01*
X3412143Y-856619D02*
X3421667Y-828048D01*
X3421667Y-828048D02*
X3431191Y-809000D01*
X3431191Y-809000D02*
X3450238Y-780428D01*
X3450238Y-780428D02*
X3459762Y-770905D01*
X3574048Y-799476D02*
X3593095Y-799476D01*
X3593095Y-799476D02*
X3612143Y-809000D01*
X3612143Y-809000D02*
X3621667Y-818524D01*
X3621667Y-818524D02*
X3631191Y-837571D01*
X3631191Y-837571D02*
X3640714Y-875667D01*
X3640714Y-875667D02*
X3640714Y-923286D01*
X3640714Y-923286D02*
X3631191Y-961381D01*
X3631191Y-961381D02*
X3621667Y-980428D01*
X3621667Y-980428D02*
X3612143Y-989952D01*
X3612143Y-989952D02*
X3593095Y-999476D01*
X3593095Y-999476D02*
X3574048Y-999476D01*
X3574048Y-999476D02*
X3555000Y-989952D01*
X3555000Y-989952D02*
X3545476Y-980428D01*
X3545476Y-980428D02*
X3535952Y-961381D01*
X3535952Y-961381D02*
X3526429Y-923286D01*
X3526429Y-923286D02*
X3526429Y-875667D01*
X3526429Y-875667D02*
X3535952Y-837571D01*
X3535952Y-837571D02*
X3545476Y-818524D01*
X3545476Y-818524D02*
X3555000Y-809000D01*
X3555000Y-809000D02*
X3574048Y-799476D01*
X3846429Y-999476D02*
X3846429Y-799476D01*
X3932143Y-999476D02*
X3932143Y-894714D01*
X3932143Y-894714D02*
X3922619Y-875667D01*
X3922619Y-875667D02*
X3903572Y-866143D01*
X3903572Y-866143D02*
X3875000Y-866143D01*
X3875000Y-866143D02*
X3855952Y-875667D01*
X3855952Y-875667D02*
X3846429Y-885190D01*
X4055952Y-999476D02*
X4036905Y-989952D01*
X4036905Y-989952D02*
X4027381Y-980428D01*
X4027381Y-980428D02*
X4017857Y-961381D01*
X4017857Y-961381D02*
X4017857Y-904238D01*
X4017857Y-904238D02*
X4027381Y-885190D01*
X4027381Y-885190D02*
X4036905Y-875667D01*
X4036905Y-875667D02*
X4055952Y-866143D01*
X4055952Y-866143D02*
X4084524Y-866143D01*
X4084524Y-866143D02*
X4103572Y-875667D01*
X4103572Y-875667D02*
X4113095Y-885190D01*
X4113095Y-885190D02*
X4122619Y-904238D01*
X4122619Y-904238D02*
X4122619Y-961381D01*
X4122619Y-961381D02*
X4113095Y-980428D01*
X4113095Y-980428D02*
X4103572Y-989952D01*
X4103572Y-989952D02*
X4084524Y-999476D01*
X4084524Y-999476D02*
X4055952Y-999476D01*
X4236905Y-999476D02*
X4217857Y-989952D01*
X4217857Y-989952D02*
X4208334Y-970905D01*
X4208334Y-970905D02*
X4208334Y-799476D01*
X4389286Y-989952D02*
X4370238Y-999476D01*
X4370238Y-999476D02*
X4332143Y-999476D01*
X4332143Y-999476D02*
X4313095Y-989952D01*
X4313095Y-989952D02*
X4303572Y-970905D01*
X4303572Y-970905D02*
X4303572Y-894714D01*
X4303572Y-894714D02*
X4313095Y-875667D01*
X4313095Y-875667D02*
X4332143Y-866143D01*
X4332143Y-866143D02*
X4370238Y-866143D01*
X4370238Y-866143D02*
X4389286Y-875667D01*
X4389286Y-875667D02*
X4398810Y-894714D01*
X4398810Y-894714D02*
X4398810Y-913762D01*
X4398810Y-913762D02*
X4303572Y-932809D01*
X4475000Y-989952D02*
X4494048Y-999476D01*
X4494048Y-999476D02*
X4532143Y-999476D01*
X4532143Y-999476D02*
X4551191Y-989952D01*
X4551191Y-989952D02*
X4560715Y-970905D01*
X4560715Y-970905D02*
X4560715Y-961381D01*
X4560715Y-961381D02*
X4551191Y-942333D01*
X4551191Y-942333D02*
X4532143Y-932809D01*
X4532143Y-932809D02*
X4503572Y-932809D01*
X4503572Y-932809D02*
X4484524Y-923286D01*
X4484524Y-923286D02*
X4475000Y-904238D01*
X4475000Y-904238D02*
X4475000Y-894714D01*
X4475000Y-894714D02*
X4484524Y-875667D01*
X4484524Y-875667D02*
X4503572Y-866143D01*
X4503572Y-866143D02*
X4532143Y-866143D01*
X4532143Y-866143D02*
X4551191Y-875667D01*
X4766429Y-923286D02*
X4918810Y-923286D01*
X4842619Y-999476D02*
X4842619Y-847095D01*
X5219762Y-866143D02*
X5219762Y-999476D01*
X5172143Y-789952D02*
X5124524Y-932809D01*
X5124524Y-932809D02*
X5248334Y-932809D01*
X5435000Y-989952D02*
X5454048Y-999476D01*
X5454048Y-999476D02*
X5492143Y-999476D01*
X5492143Y-999476D02*
X5511191Y-989952D01*
X5511191Y-989952D02*
X5520715Y-970905D01*
X5520715Y-970905D02*
X5520715Y-961381D01*
X5520715Y-961381D02*
X5511191Y-942333D01*
X5511191Y-942333D02*
X5492143Y-932809D01*
X5492143Y-932809D02*
X5463572Y-932809D01*
X5463572Y-932809D02*
X5444524Y-923286D01*
X5444524Y-923286D02*
X5435000Y-904238D01*
X5435000Y-904238D02*
X5435000Y-894714D01*
X5435000Y-894714D02*
X5444524Y-875667D01*
X5444524Y-875667D02*
X5463572Y-866143D01*
X5463572Y-866143D02*
X5492143Y-866143D01*
X5492143Y-866143D02*
X5511191Y-875667D01*
X5635000Y-999476D02*
X5615953Y-989952D01*
X5615953Y-989952D02*
X5606429Y-970905D01*
X5606429Y-970905D02*
X5606429Y-799476D01*
X5739762Y-999476D02*
X5720714Y-989952D01*
X5720714Y-989952D02*
X5711191Y-980428D01*
X5711191Y-980428D02*
X5701667Y-961381D01*
X5701667Y-961381D02*
X5701667Y-904238D01*
X5701667Y-904238D02*
X5711191Y-885190D01*
X5711191Y-885190D02*
X5720714Y-875667D01*
X5720714Y-875667D02*
X5739762Y-866143D01*
X5739762Y-866143D02*
X5768334Y-866143D01*
X5768334Y-866143D02*
X5787381Y-875667D01*
X5787381Y-875667D02*
X5796905Y-885190D01*
X5796905Y-885190D02*
X5806429Y-904238D01*
X5806429Y-904238D02*
X5806429Y-961381D01*
X5806429Y-961381D02*
X5796905Y-980428D01*
X5796905Y-980428D02*
X5787381Y-989952D01*
X5787381Y-989952D02*
X5768334Y-999476D01*
X5768334Y-999476D02*
X5739762Y-999476D01*
X5863572Y-866143D02*
X5939762Y-866143D01*
X5892143Y-799476D02*
X5892143Y-970905D01*
X5892143Y-970905D02*
X5901667Y-989952D01*
X5901667Y-989952D02*
X5920714Y-999476D01*
X5920714Y-999476D02*
X5939762Y-999476D01*
X5996905Y-989952D02*
X6015953Y-999476D01*
X6015953Y-999476D02*
X6054048Y-999476D01*
X6054048Y-999476D02*
X6073095Y-989952D01*
X6073095Y-989952D02*
X6082619Y-970905D01*
X6082619Y-970905D02*
X6082619Y-961381D01*
X6082619Y-961381D02*
X6073095Y-942333D01*
X6073095Y-942333D02*
X6054048Y-932809D01*
X6054048Y-932809D02*
X6025476Y-932809D01*
X6025476Y-932809D02*
X6006429Y-923286D01*
X6006429Y-923286D02*
X5996905Y-904238D01*
X5996905Y-904238D02*
X5996905Y-894714D01*
X5996905Y-894714D02*
X6006429Y-875667D01*
X6006429Y-875667D02*
X6025476Y-866143D01*
X6025476Y-866143D02*
X6054048Y-866143D01*
X6054048Y-866143D02*
X6073095Y-875667D01*
X6149286Y-1075667D02*
X6158810Y-1066143D01*
X6158810Y-1066143D02*
X6177857Y-1037571D01*
X6177857Y-1037571D02*
X6187381Y-1018524D01*
X6187381Y-1018524D02*
X6196905Y-989952D01*
X6196905Y-989952D02*
X6206429Y-942333D01*
X6206429Y-942333D02*
X6206429Y-904238D01*
X6206429Y-904238D02*
X6196905Y-856619D01*
X6196905Y-856619D02*
X6187381Y-828048D01*
X6187381Y-828048D02*
X6177857Y-809000D01*
X6177857Y-809000D02*
X6158810Y-780428D01*
X6158810Y-780428D02*
X6149286Y-770905D01*
D14*
X-55000Y-1123000D02*
X-55000Y-1223000D01*
X-105000Y-1173000D02*
X-5000Y-1173000D01*
D11*
X347381Y-1263476D02*
X233095Y-1263476D01*
X290238Y-1263476D02*
X290238Y-1063476D01*
X290238Y-1063476D02*
X271190Y-1092048D01*
X271190Y-1092048D02*
X252143Y-1111095D01*
X252143Y-1111095D02*
X233095Y-1120619D01*
X433095Y-1244429D02*
X442619Y-1253952D01*
X442619Y-1253952D02*
X433095Y-1263476D01*
X433095Y-1263476D02*
X423571Y-1253952D01*
X423571Y-1253952D02*
X433095Y-1244429D01*
X433095Y-1244429D02*
X433095Y-1263476D01*
X566429Y-1063476D02*
X585476Y-1063476D01*
X585476Y-1063476D02*
X604524Y-1073000D01*
X604524Y-1073000D02*
X614048Y-1082524D01*
X614048Y-1082524D02*
X623571Y-1101571D01*
X623571Y-1101571D02*
X633095Y-1139667D01*
X633095Y-1139667D02*
X633095Y-1187286D01*
X633095Y-1187286D02*
X623571Y-1225381D01*
X623571Y-1225381D02*
X614048Y-1244429D01*
X614048Y-1244429D02*
X604524Y-1253952D01*
X604524Y-1253952D02*
X585476Y-1263476D01*
X585476Y-1263476D02*
X566429Y-1263476D01*
X566429Y-1263476D02*
X547381Y-1253952D01*
X547381Y-1253952D02*
X537857Y-1244429D01*
X537857Y-1244429D02*
X528333Y-1225381D01*
X528333Y-1225381D02*
X518809Y-1187286D01*
X518809Y-1187286D02*
X518809Y-1139667D01*
X518809Y-1139667D02*
X528333Y-1101571D01*
X528333Y-1101571D02*
X537857Y-1082524D01*
X537857Y-1082524D02*
X547381Y-1073000D01*
X547381Y-1073000D02*
X566429Y-1063476D01*
X756905Y-1063476D02*
X775952Y-1063476D01*
X775952Y-1063476D02*
X795000Y-1073000D01*
X795000Y-1073000D02*
X804524Y-1082524D01*
X804524Y-1082524D02*
X814048Y-1101571D01*
X814048Y-1101571D02*
X823571Y-1139667D01*
X823571Y-1139667D02*
X823571Y-1187286D01*
X823571Y-1187286D02*
X814048Y-1225381D01*
X814048Y-1225381D02*
X804524Y-1244429D01*
X804524Y-1244429D02*
X795000Y-1253952D01*
X795000Y-1253952D02*
X775952Y-1263476D01*
X775952Y-1263476D02*
X756905Y-1263476D01*
X756905Y-1263476D02*
X737857Y-1253952D01*
X737857Y-1253952D02*
X728333Y-1244429D01*
X728333Y-1244429D02*
X718809Y-1225381D01*
X718809Y-1225381D02*
X709286Y-1187286D01*
X709286Y-1187286D02*
X709286Y-1139667D01*
X709286Y-1139667D02*
X718809Y-1101571D01*
X718809Y-1101571D02*
X728333Y-1082524D01*
X728333Y-1082524D02*
X737857Y-1073000D01*
X737857Y-1073000D02*
X756905Y-1063476D01*
X947381Y-1063476D02*
X966429Y-1063476D01*
X966429Y-1063476D02*
X985476Y-1073000D01*
X985476Y-1073000D02*
X995000Y-1082524D01*
X995000Y-1082524D02*
X1004524Y-1101571D01*
X1004524Y-1101571D02*
X1014048Y-1139667D01*
X1014048Y-1139667D02*
X1014048Y-1187286D01*
X1014048Y-1187286D02*
X1004524Y-1225381D01*
X1004524Y-1225381D02*
X995000Y-1244429D01*
X995000Y-1244429D02*
X985476Y-1253952D01*
X985476Y-1253952D02*
X966429Y-1263476D01*
X966429Y-1263476D02*
X947381Y-1263476D01*
X947381Y-1263476D02*
X928333Y-1253952D01*
X928333Y-1253952D02*
X918809Y-1244429D01*
X918809Y-1244429D02*
X909286Y-1225381D01*
X909286Y-1225381D02*
X899762Y-1187286D01*
X899762Y-1187286D02*
X899762Y-1139667D01*
X899762Y-1139667D02*
X909286Y-1101571D01*
X909286Y-1101571D02*
X918809Y-1082524D01*
X918809Y-1082524D02*
X928333Y-1073000D01*
X928333Y-1073000D02*
X947381Y-1063476D01*
X1099762Y-1263476D02*
X1099762Y-1130143D01*
X1099762Y-1149190D02*
X1109286Y-1139667D01*
X1109286Y-1139667D02*
X1128333Y-1130143D01*
X1128333Y-1130143D02*
X1156905Y-1130143D01*
X1156905Y-1130143D02*
X1175952Y-1139667D01*
X1175952Y-1139667D02*
X1185476Y-1158714D01*
X1185476Y-1158714D02*
X1185476Y-1263476D01*
X1185476Y-1158714D02*
X1195000Y-1139667D01*
X1195000Y-1139667D02*
X1214048Y-1130143D01*
X1214048Y-1130143D02*
X1242619Y-1130143D01*
X1242619Y-1130143D02*
X1261667Y-1139667D01*
X1261667Y-1139667D02*
X1271191Y-1158714D01*
X1271191Y-1158714D02*
X1271191Y-1263476D01*
X1366429Y-1263476D02*
X1366429Y-1130143D01*
X1366429Y-1149190D02*
X1375952Y-1139667D01*
X1375952Y-1139667D02*
X1395000Y-1130143D01*
X1395000Y-1130143D02*
X1423571Y-1130143D01*
X1423571Y-1130143D02*
X1442619Y-1139667D01*
X1442619Y-1139667D02*
X1452143Y-1158714D01*
X1452143Y-1158714D02*
X1452143Y-1263476D01*
X1452143Y-1158714D02*
X1461667Y-1139667D01*
X1461667Y-1139667D02*
X1480714Y-1130143D01*
X1480714Y-1130143D02*
X1509286Y-1130143D01*
X1509286Y-1130143D02*
X1528333Y-1139667D01*
X1528333Y-1139667D02*
X1537857Y-1158714D01*
X1537857Y-1158714D02*
X1537857Y-1263476D01*
X1895952Y-1053952D02*
X1724524Y-1311095D01*
X2120714Y-1063476D02*
X2139762Y-1063476D01*
X2139762Y-1063476D02*
X2158810Y-1073000D01*
X2158810Y-1073000D02*
X2168333Y-1082524D01*
X2168333Y-1082524D02*
X2177857Y-1101571D01*
X2177857Y-1101571D02*
X2187381Y-1139667D01*
X2187381Y-1139667D02*
X2187381Y-1187286D01*
X2187381Y-1187286D02*
X2177857Y-1225381D01*
X2177857Y-1225381D02*
X2168333Y-1244429D01*
X2168333Y-1244429D02*
X2158810Y-1253952D01*
X2158810Y-1253952D02*
X2139762Y-1263476D01*
X2139762Y-1263476D02*
X2120714Y-1263476D01*
X2120714Y-1263476D02*
X2101667Y-1253952D01*
X2101667Y-1253952D02*
X2092143Y-1244429D01*
X2092143Y-1244429D02*
X2082619Y-1225381D01*
X2082619Y-1225381D02*
X2073095Y-1187286D01*
X2073095Y-1187286D02*
X2073095Y-1139667D01*
X2073095Y-1139667D02*
X2082619Y-1101571D01*
X2082619Y-1101571D02*
X2092143Y-1082524D01*
X2092143Y-1082524D02*
X2101667Y-1073000D01*
X2101667Y-1073000D02*
X2120714Y-1063476D01*
X2273095Y-1244429D02*
X2282619Y-1253952D01*
X2282619Y-1253952D02*
X2273095Y-1263476D01*
X2273095Y-1263476D02*
X2263572Y-1253952D01*
X2263572Y-1253952D02*
X2273095Y-1244429D01*
X2273095Y-1244429D02*
X2273095Y-1263476D01*
X2406429Y-1063476D02*
X2425476Y-1063476D01*
X2425476Y-1063476D02*
X2444524Y-1073000D01*
X2444524Y-1073000D02*
X2454048Y-1082524D01*
X2454048Y-1082524D02*
X2463572Y-1101571D01*
X2463572Y-1101571D02*
X2473095Y-1139667D01*
X2473095Y-1139667D02*
X2473095Y-1187286D01*
X2473095Y-1187286D02*
X2463572Y-1225381D01*
X2463572Y-1225381D02*
X2454048Y-1244429D01*
X2454048Y-1244429D02*
X2444524Y-1253952D01*
X2444524Y-1253952D02*
X2425476Y-1263476D01*
X2425476Y-1263476D02*
X2406429Y-1263476D01*
X2406429Y-1263476D02*
X2387381Y-1253952D01*
X2387381Y-1253952D02*
X2377857Y-1244429D01*
X2377857Y-1244429D02*
X2368333Y-1225381D01*
X2368333Y-1225381D02*
X2358810Y-1187286D01*
X2358810Y-1187286D02*
X2358810Y-1139667D01*
X2358810Y-1139667D02*
X2368333Y-1101571D01*
X2368333Y-1101571D02*
X2377857Y-1082524D01*
X2377857Y-1082524D02*
X2387381Y-1073000D01*
X2387381Y-1073000D02*
X2406429Y-1063476D01*
X2539762Y-1063476D02*
X2663572Y-1063476D01*
X2663572Y-1063476D02*
X2596905Y-1139667D01*
X2596905Y-1139667D02*
X2625476Y-1139667D01*
X2625476Y-1139667D02*
X2644524Y-1149190D01*
X2644524Y-1149190D02*
X2654048Y-1158714D01*
X2654048Y-1158714D02*
X2663572Y-1177762D01*
X2663572Y-1177762D02*
X2663572Y-1225381D01*
X2663572Y-1225381D02*
X2654048Y-1244429D01*
X2654048Y-1244429D02*
X2644524Y-1253952D01*
X2644524Y-1253952D02*
X2625476Y-1263476D01*
X2625476Y-1263476D02*
X2568333Y-1263476D01*
X2568333Y-1263476D02*
X2549286Y-1253952D01*
X2549286Y-1253952D02*
X2539762Y-1244429D01*
X2758810Y-1263476D02*
X2796905Y-1263476D01*
X2796905Y-1263476D02*
X2815952Y-1253952D01*
X2815952Y-1253952D02*
X2825476Y-1244429D01*
X2825476Y-1244429D02*
X2844524Y-1215857D01*
X2844524Y-1215857D02*
X2854048Y-1177762D01*
X2854048Y-1177762D02*
X2854048Y-1101571D01*
X2854048Y-1101571D02*
X2844524Y-1082524D01*
X2844524Y-1082524D02*
X2835000Y-1073000D01*
X2835000Y-1073000D02*
X2815952Y-1063476D01*
X2815952Y-1063476D02*
X2777857Y-1063476D01*
X2777857Y-1063476D02*
X2758810Y-1073000D01*
X2758810Y-1073000D02*
X2749286Y-1082524D01*
X2749286Y-1082524D02*
X2739762Y-1101571D01*
X2739762Y-1101571D02*
X2739762Y-1149190D01*
X2739762Y-1149190D02*
X2749286Y-1168238D01*
X2749286Y-1168238D02*
X2758810Y-1177762D01*
X2758810Y-1177762D02*
X2777857Y-1187286D01*
X2777857Y-1187286D02*
X2815952Y-1187286D01*
X2815952Y-1187286D02*
X2835000Y-1177762D01*
X2835000Y-1177762D02*
X2844524Y-1168238D01*
X2844524Y-1168238D02*
X2854048Y-1149190D01*
X3025476Y-1130143D02*
X3025476Y-1263476D01*
X2977857Y-1053952D02*
X2930238Y-1196810D01*
X2930238Y-1196810D02*
X3054048Y-1196810D01*
X3120714Y-1063476D02*
X3120714Y-1101571D01*
X3196905Y-1063476D02*
X3196905Y-1101571D01*
X3459762Y-1339667D02*
X3450238Y-1330143D01*
X3450238Y-1330143D02*
X3431191Y-1301571D01*
X3431191Y-1301571D02*
X3421667Y-1282524D01*
X3421667Y-1282524D02*
X3412143Y-1253952D01*
X3412143Y-1253952D02*
X3402619Y-1206333D01*
X3402619Y-1206333D02*
X3402619Y-1168238D01*
X3402619Y-1168238D02*
X3412143Y-1120619D01*
X3412143Y-1120619D02*
X3421667Y-1092048D01*
X3421667Y-1092048D02*
X3431191Y-1073000D01*
X3431191Y-1073000D02*
X3450238Y-1044428D01*
X3450238Y-1044428D02*
X3459762Y-1034905D01*
X3640714Y-1263476D02*
X3526429Y-1263476D01*
X3583571Y-1263476D02*
X3583571Y-1063476D01*
X3583571Y-1063476D02*
X3564524Y-1092048D01*
X3564524Y-1092048D02*
X3545476Y-1111095D01*
X3545476Y-1111095D02*
X3526429Y-1120619D01*
X3764524Y-1063476D02*
X3783572Y-1063476D01*
X3783572Y-1063476D02*
X3802619Y-1073000D01*
X3802619Y-1073000D02*
X3812143Y-1082524D01*
X3812143Y-1082524D02*
X3821667Y-1101571D01*
X3821667Y-1101571D02*
X3831191Y-1139667D01*
X3831191Y-1139667D02*
X3831191Y-1187286D01*
X3831191Y-1187286D02*
X3821667Y-1225381D01*
X3821667Y-1225381D02*
X3812143Y-1244429D01*
X3812143Y-1244429D02*
X3802619Y-1253952D01*
X3802619Y-1253952D02*
X3783572Y-1263476D01*
X3783572Y-1263476D02*
X3764524Y-1263476D01*
X3764524Y-1263476D02*
X3745476Y-1253952D01*
X3745476Y-1253952D02*
X3735952Y-1244429D01*
X3735952Y-1244429D02*
X3726429Y-1225381D01*
X3726429Y-1225381D02*
X3716905Y-1187286D01*
X3716905Y-1187286D02*
X3716905Y-1139667D01*
X3716905Y-1139667D02*
X3726429Y-1101571D01*
X3726429Y-1101571D02*
X3735952Y-1082524D01*
X3735952Y-1082524D02*
X3745476Y-1073000D01*
X3745476Y-1073000D02*
X3764524Y-1063476D01*
X4036905Y-1263476D02*
X4036905Y-1063476D01*
X4122619Y-1263476D02*
X4122619Y-1158714D01*
X4122619Y-1158714D02*
X4113095Y-1139667D01*
X4113095Y-1139667D02*
X4094048Y-1130143D01*
X4094048Y-1130143D02*
X4065476Y-1130143D01*
X4065476Y-1130143D02*
X4046429Y-1139667D01*
X4046429Y-1139667D02*
X4036905Y-1149190D01*
X4246429Y-1263476D02*
X4227381Y-1253952D01*
X4227381Y-1253952D02*
X4217857Y-1244429D01*
X4217857Y-1244429D02*
X4208334Y-1225381D01*
X4208334Y-1225381D02*
X4208334Y-1168238D01*
X4208334Y-1168238D02*
X4217857Y-1149190D01*
X4217857Y-1149190D02*
X4227381Y-1139667D01*
X4227381Y-1139667D02*
X4246429Y-1130143D01*
X4246429Y-1130143D02*
X4275000Y-1130143D01*
X4275000Y-1130143D02*
X4294048Y-1139667D01*
X4294048Y-1139667D02*
X4303572Y-1149190D01*
X4303572Y-1149190D02*
X4313095Y-1168238D01*
X4313095Y-1168238D02*
X4313095Y-1225381D01*
X4313095Y-1225381D02*
X4303572Y-1244429D01*
X4303572Y-1244429D02*
X4294048Y-1253952D01*
X4294048Y-1253952D02*
X4275000Y-1263476D01*
X4275000Y-1263476D02*
X4246429Y-1263476D01*
X4427381Y-1263476D02*
X4408334Y-1253952D01*
X4408334Y-1253952D02*
X4398810Y-1234905D01*
X4398810Y-1234905D02*
X4398810Y-1063476D01*
X4579762Y-1253952D02*
X4560715Y-1263476D01*
X4560715Y-1263476D02*
X4522619Y-1263476D01*
X4522619Y-1263476D02*
X4503572Y-1253952D01*
X4503572Y-1253952D02*
X4494048Y-1234905D01*
X4494048Y-1234905D02*
X4494048Y-1158714D01*
X4494048Y-1158714D02*
X4503572Y-1139667D01*
X4503572Y-1139667D02*
X4522619Y-1130143D01*
X4522619Y-1130143D02*
X4560715Y-1130143D01*
X4560715Y-1130143D02*
X4579762Y-1139667D01*
X4579762Y-1139667D02*
X4589286Y-1158714D01*
X4589286Y-1158714D02*
X4589286Y-1177762D01*
X4589286Y-1177762D02*
X4494048Y-1196810D01*
X4665476Y-1253952D02*
X4684524Y-1263476D01*
X4684524Y-1263476D02*
X4722619Y-1263476D01*
X4722619Y-1263476D02*
X4741667Y-1253952D01*
X4741667Y-1253952D02*
X4751191Y-1234905D01*
X4751191Y-1234905D02*
X4751191Y-1225381D01*
X4751191Y-1225381D02*
X4741667Y-1206333D01*
X4741667Y-1206333D02*
X4722619Y-1196810D01*
X4722619Y-1196810D02*
X4694048Y-1196810D01*
X4694048Y-1196810D02*
X4675000Y-1187286D01*
X4675000Y-1187286D02*
X4665476Y-1168238D01*
X4665476Y-1168238D02*
X4665476Y-1158714D01*
X4665476Y-1158714D02*
X4675000Y-1139667D01*
X4675000Y-1139667D02*
X4694048Y-1130143D01*
X4694048Y-1130143D02*
X4722619Y-1130143D01*
X4722619Y-1130143D02*
X4741667Y-1139667D01*
X4817857Y-1339667D02*
X4827381Y-1330143D01*
X4827381Y-1330143D02*
X4846429Y-1301571D01*
X4846429Y-1301571D02*
X4855953Y-1282524D01*
X4855953Y-1282524D02*
X4865476Y-1253952D01*
X4865476Y-1253952D02*
X4875000Y-1206333D01*
X4875000Y-1206333D02*
X4875000Y-1168238D01*
X4875000Y-1168238D02*
X4865476Y-1120619D01*
X4865476Y-1120619D02*
X4855953Y-1092048D01*
X4855953Y-1092048D02*
X4846429Y-1073000D01*
X4846429Y-1073000D02*
X4827381Y-1044428D01*
X4827381Y-1044428D02*
X4817857Y-1034905D01*
M02*
