%FSLAX45Y45*%
G04 Gerber Fmt 4.5, Leading zero omitted, Abs format (unit mm)*
G04 Created by KiCad (PCBNEW 6.99.0-unknown-455e330f3b~148~ubuntu20.04.1) date 2022-03-15 10:42:57*
%MOMM*%
%LPD*%
G01*
G04 APERTURE LIST*
%TA.AperFunction,Profile*%
%ADD10C,0.100000*%
%TD*%
%ADD11C,0.200000*%
%ADD12C,0.250000*%
G04 APERTURE END LIST*
D10*
X6750000Y3400000D02*
X6750000Y3050000D01*
X650000Y0D02*
X7400000Y0D01*
X6750000Y3050000D02*
G75*
G03*
X7050000Y2750000I300000J0D01*
G01*
X0Y650000D02*
X350000Y650000D01*
X7400000Y2750000D02*
X7100000Y2750000D01*
X7100000Y2750000D02*
X7050000Y2750000D01*
X6750000Y3400000D02*
X0Y3400000D01*
X650000Y0D02*
X650000Y350000D01*
X0Y3400000D02*
X0Y650000D01*
X7400000Y0D02*
X7400000Y2750000D01*
X650000Y350000D02*
G75*
G03*
X350000Y650000I-300000J0D01*
G01*
D11*
D12*
X1575000Y3250000D02*
X1825000Y3000000D01*
X1825000Y3250000D02*
X1575000Y3000000D01*
X5575000Y400000D02*
X5825000Y150000D01*
X5825000Y400000D02*
X5575000Y150000D01*
D11*
X242619Y-315476D02*
X242619Y-115476D01*
X242619Y-115476D02*
X290238Y-115476D01*
X290238Y-115476D02*
X318810Y-125000D01*
X318810Y-125000D02*
X337857Y-144048D01*
X337857Y-144048D02*
X347381Y-163095D01*
X347381Y-163095D02*
X356905Y-201190D01*
X356905Y-201190D02*
X356905Y-229762D01*
X356905Y-229762D02*
X347381Y-267857D01*
X347381Y-267857D02*
X337857Y-286905D01*
X337857Y-286905D02*
X318810Y-305952D01*
X318810Y-305952D02*
X290238Y-315476D01*
X290238Y-315476D02*
X242619Y-315476D01*
X442619Y-315476D02*
X442619Y-182143D01*
X442619Y-220238D02*
X452143Y-201190D01*
X452143Y-201190D02*
X461667Y-191667D01*
X461667Y-191667D02*
X480714Y-182143D01*
X480714Y-182143D02*
X499762Y-182143D01*
X566429Y-315476D02*
X566429Y-182143D01*
X566429Y-115476D02*
X556905Y-125000D01*
X556905Y-125000D02*
X566429Y-134524D01*
X566429Y-134524D02*
X575952Y-125000D01*
X575952Y-125000D02*
X566429Y-115476D01*
X566429Y-115476D02*
X566429Y-134524D01*
X690238Y-315476D02*
X671190Y-305952D01*
X671190Y-305952D02*
X661667Y-286905D01*
X661667Y-286905D02*
X661667Y-115476D01*
X795000Y-315476D02*
X775952Y-305952D01*
X775952Y-305952D02*
X766428Y-286905D01*
X766428Y-286905D02*
X766428Y-115476D01*
X991190Y-315476D02*
X991190Y-115476D01*
X991190Y-115476D02*
X1057857Y-258333D01*
X1057857Y-258333D02*
X1124524Y-115476D01*
X1124524Y-115476D02*
X1124524Y-315476D01*
X1305476Y-315476D02*
X1305476Y-210714D01*
X1305476Y-210714D02*
X1295952Y-191667D01*
X1295952Y-191667D02*
X1276905Y-182143D01*
X1276905Y-182143D02*
X1238809Y-182143D01*
X1238809Y-182143D02*
X1219762Y-191667D01*
X1305476Y-305952D02*
X1286429Y-315476D01*
X1286429Y-315476D02*
X1238809Y-315476D01*
X1238809Y-315476D02*
X1219762Y-305952D01*
X1219762Y-305952D02*
X1210238Y-286905D01*
X1210238Y-286905D02*
X1210238Y-267857D01*
X1210238Y-267857D02*
X1219762Y-248809D01*
X1219762Y-248809D02*
X1238809Y-239286D01*
X1238809Y-239286D02*
X1286429Y-239286D01*
X1286429Y-239286D02*
X1305476Y-229762D01*
X1400714Y-182143D02*
X1400714Y-382143D01*
X1400714Y-191667D02*
X1419762Y-182143D01*
X1419762Y-182143D02*
X1457857Y-182143D01*
X1457857Y-182143D02*
X1476905Y-191667D01*
X1476905Y-191667D02*
X1486428Y-201190D01*
X1486428Y-201190D02*
X1495952Y-220238D01*
X1495952Y-220238D02*
X1495952Y-277381D01*
X1495952Y-277381D02*
X1486428Y-296429D01*
X1486428Y-296429D02*
X1476905Y-305952D01*
X1476905Y-305952D02*
X1457857Y-315476D01*
X1457857Y-315476D02*
X1419762Y-315476D01*
X1419762Y-315476D02*
X1400714Y-305952D01*
X1581667Y-296429D02*
X1591190Y-305952D01*
X1591190Y-305952D02*
X1581667Y-315476D01*
X1581667Y-315476D02*
X1572143Y-305952D01*
X1572143Y-305952D02*
X1581667Y-296429D01*
X1581667Y-296429D02*
X1581667Y-315476D01*
X1581667Y-191667D02*
X1591190Y-201190D01*
X1591190Y-201190D02*
X1581667Y-210714D01*
X1581667Y-210714D02*
X1572143Y-201190D01*
X1572143Y-201190D02*
X1581667Y-191667D01*
X1581667Y-191667D02*
X1581667Y-210714D01*
X-205000Y-545000D02*
X-5000Y-745000D01*
X-5000Y-545000D02*
X-205000Y-745000D01*
X233095Y-554524D02*
X242619Y-545000D01*
X242619Y-545000D02*
X261667Y-535476D01*
X261667Y-535476D02*
X309286Y-535476D01*
X309286Y-535476D02*
X328333Y-545000D01*
X328333Y-545000D02*
X337857Y-554524D01*
X337857Y-554524D02*
X347381Y-573571D01*
X347381Y-573571D02*
X347381Y-592619D01*
X347381Y-592619D02*
X337857Y-621190D01*
X337857Y-621190D02*
X223571Y-735476D01*
X223571Y-735476D02*
X347381Y-735476D01*
X433095Y-716428D02*
X442619Y-725952D01*
X442619Y-725952D02*
X433095Y-735476D01*
X433095Y-735476D02*
X423571Y-725952D01*
X423571Y-725952D02*
X433095Y-716428D01*
X433095Y-716428D02*
X433095Y-735476D01*
X623571Y-535476D02*
X528333Y-535476D01*
X528333Y-535476D02*
X518809Y-630714D01*
X518809Y-630714D02*
X528333Y-621190D01*
X528333Y-621190D02*
X547381Y-611667D01*
X547381Y-611667D02*
X595000Y-611667D01*
X595000Y-611667D02*
X614048Y-621190D01*
X614048Y-621190D02*
X623571Y-630714D01*
X623571Y-630714D02*
X633095Y-649762D01*
X633095Y-649762D02*
X633095Y-697381D01*
X633095Y-697381D02*
X623571Y-716428D01*
X623571Y-716428D02*
X614048Y-725952D01*
X614048Y-725952D02*
X595000Y-735476D01*
X595000Y-735476D02*
X547381Y-735476D01*
X547381Y-735476D02*
X528333Y-725952D01*
X528333Y-725952D02*
X518809Y-716428D01*
X756905Y-535476D02*
X775952Y-535476D01*
X775952Y-535476D02*
X795000Y-545000D01*
X795000Y-545000D02*
X804524Y-554524D01*
X804524Y-554524D02*
X814048Y-573571D01*
X814048Y-573571D02*
X823571Y-611667D01*
X823571Y-611667D02*
X823571Y-659286D01*
X823571Y-659286D02*
X814048Y-697381D01*
X814048Y-697381D02*
X804524Y-716428D01*
X804524Y-716428D02*
X795000Y-725952D01*
X795000Y-725952D02*
X775952Y-735476D01*
X775952Y-735476D02*
X756905Y-735476D01*
X756905Y-735476D02*
X737857Y-725952D01*
X737857Y-725952D02*
X728333Y-716428D01*
X728333Y-716428D02*
X718809Y-697381D01*
X718809Y-697381D02*
X709286Y-659286D01*
X709286Y-659286D02*
X709286Y-611667D01*
X709286Y-611667D02*
X718809Y-573571D01*
X718809Y-573571D02*
X728333Y-554524D01*
X728333Y-554524D02*
X737857Y-545000D01*
X737857Y-545000D02*
X756905Y-535476D01*
X947381Y-535476D02*
X966429Y-535476D01*
X966429Y-535476D02*
X985476Y-545000D01*
X985476Y-545000D02*
X995000Y-554524D01*
X995000Y-554524D02*
X1004524Y-573571D01*
X1004524Y-573571D02*
X1014048Y-611667D01*
X1014048Y-611667D02*
X1014048Y-659286D01*
X1014048Y-659286D02*
X1004524Y-697381D01*
X1004524Y-697381D02*
X995000Y-716428D01*
X995000Y-716428D02*
X985476Y-725952D01*
X985476Y-725952D02*
X966429Y-735476D01*
X966429Y-735476D02*
X947381Y-735476D01*
X947381Y-735476D02*
X928333Y-725952D01*
X928333Y-725952D02*
X918809Y-716428D01*
X918809Y-716428D02*
X909286Y-697381D01*
X909286Y-697381D02*
X899762Y-659286D01*
X899762Y-659286D02*
X899762Y-611667D01*
X899762Y-611667D02*
X909286Y-573571D01*
X909286Y-573571D02*
X918809Y-554524D01*
X918809Y-554524D02*
X928333Y-545000D01*
X928333Y-545000D02*
X947381Y-535476D01*
X1099762Y-735476D02*
X1099762Y-602143D01*
X1099762Y-621190D02*
X1109286Y-611667D01*
X1109286Y-611667D02*
X1128333Y-602143D01*
X1128333Y-602143D02*
X1156905Y-602143D01*
X1156905Y-602143D02*
X1175952Y-611667D01*
X1175952Y-611667D02*
X1185476Y-630714D01*
X1185476Y-630714D02*
X1185476Y-735476D01*
X1185476Y-630714D02*
X1195000Y-611667D01*
X1195000Y-611667D02*
X1214048Y-602143D01*
X1214048Y-602143D02*
X1242619Y-602143D01*
X1242619Y-602143D02*
X1261667Y-611667D01*
X1261667Y-611667D02*
X1271191Y-630714D01*
X1271191Y-630714D02*
X1271191Y-735476D01*
X1366429Y-735476D02*
X1366429Y-602143D01*
X1366429Y-621190D02*
X1375952Y-611667D01*
X1375952Y-611667D02*
X1395000Y-602143D01*
X1395000Y-602143D02*
X1423571Y-602143D01*
X1423571Y-602143D02*
X1442619Y-611667D01*
X1442619Y-611667D02*
X1452143Y-630714D01*
X1452143Y-630714D02*
X1452143Y-735476D01*
X1452143Y-630714D02*
X1461667Y-611667D01*
X1461667Y-611667D02*
X1480714Y-602143D01*
X1480714Y-602143D02*
X1509286Y-602143D01*
X1509286Y-602143D02*
X1528333Y-611667D01*
X1528333Y-611667D02*
X1537857Y-630714D01*
X1537857Y-630714D02*
X1537857Y-735476D01*
X1895952Y-525952D02*
X1724524Y-783095D01*
X2120714Y-535476D02*
X2139762Y-535476D01*
X2139762Y-535476D02*
X2158810Y-545000D01*
X2158810Y-545000D02*
X2168333Y-554524D01*
X2168333Y-554524D02*
X2177857Y-573571D01*
X2177857Y-573571D02*
X2187381Y-611667D01*
X2187381Y-611667D02*
X2187381Y-659286D01*
X2187381Y-659286D02*
X2177857Y-697381D01*
X2177857Y-697381D02*
X2168333Y-716428D01*
X2168333Y-716428D02*
X2158810Y-725952D01*
X2158810Y-725952D02*
X2139762Y-735476D01*
X2139762Y-735476D02*
X2120714Y-735476D01*
X2120714Y-735476D02*
X2101667Y-725952D01*
X2101667Y-725952D02*
X2092143Y-716428D01*
X2092143Y-716428D02*
X2082619Y-697381D01*
X2082619Y-697381D02*
X2073095Y-659286D01*
X2073095Y-659286D02*
X2073095Y-611667D01*
X2073095Y-611667D02*
X2082619Y-573571D01*
X2082619Y-573571D02*
X2092143Y-554524D01*
X2092143Y-554524D02*
X2101667Y-545000D01*
X2101667Y-545000D02*
X2120714Y-535476D01*
X2273095Y-716428D02*
X2282619Y-725952D01*
X2282619Y-725952D02*
X2273095Y-735476D01*
X2273095Y-735476D02*
X2263572Y-725952D01*
X2263572Y-725952D02*
X2273095Y-716428D01*
X2273095Y-716428D02*
X2273095Y-735476D01*
X2406429Y-535476D02*
X2425476Y-535476D01*
X2425476Y-535476D02*
X2444524Y-545000D01*
X2444524Y-545000D02*
X2454048Y-554524D01*
X2454048Y-554524D02*
X2463572Y-573571D01*
X2463572Y-573571D02*
X2473095Y-611667D01*
X2473095Y-611667D02*
X2473095Y-659286D01*
X2473095Y-659286D02*
X2463572Y-697381D01*
X2463572Y-697381D02*
X2454048Y-716428D01*
X2454048Y-716428D02*
X2444524Y-725952D01*
X2444524Y-725952D02*
X2425476Y-735476D01*
X2425476Y-735476D02*
X2406429Y-735476D01*
X2406429Y-735476D02*
X2387381Y-725952D01*
X2387381Y-725952D02*
X2377857Y-716428D01*
X2377857Y-716428D02*
X2368333Y-697381D01*
X2368333Y-697381D02*
X2358810Y-659286D01*
X2358810Y-659286D02*
X2358810Y-611667D01*
X2358810Y-611667D02*
X2368333Y-573571D01*
X2368333Y-573571D02*
X2377857Y-554524D01*
X2377857Y-554524D02*
X2387381Y-545000D01*
X2387381Y-545000D02*
X2406429Y-535476D01*
X2568333Y-735476D02*
X2606429Y-735476D01*
X2606429Y-735476D02*
X2625476Y-725952D01*
X2625476Y-725952D02*
X2635000Y-716428D01*
X2635000Y-716428D02*
X2654048Y-687857D01*
X2654048Y-687857D02*
X2663572Y-649762D01*
X2663572Y-649762D02*
X2663572Y-573571D01*
X2663572Y-573571D02*
X2654048Y-554524D01*
X2654048Y-554524D02*
X2644524Y-545000D01*
X2644524Y-545000D02*
X2625476Y-535476D01*
X2625476Y-535476D02*
X2587381Y-535476D01*
X2587381Y-535476D02*
X2568333Y-545000D01*
X2568333Y-545000D02*
X2558810Y-554524D01*
X2558810Y-554524D02*
X2549286Y-573571D01*
X2549286Y-573571D02*
X2549286Y-621190D01*
X2549286Y-621190D02*
X2558810Y-640238D01*
X2558810Y-640238D02*
X2568333Y-649762D01*
X2568333Y-649762D02*
X2587381Y-659286D01*
X2587381Y-659286D02*
X2625476Y-659286D01*
X2625476Y-659286D02*
X2644524Y-649762D01*
X2644524Y-649762D02*
X2654048Y-640238D01*
X2654048Y-640238D02*
X2663572Y-621190D01*
X2777857Y-621190D02*
X2758810Y-611667D01*
X2758810Y-611667D02*
X2749286Y-602143D01*
X2749286Y-602143D02*
X2739762Y-583095D01*
X2739762Y-583095D02*
X2739762Y-573571D01*
X2739762Y-573571D02*
X2749286Y-554524D01*
X2749286Y-554524D02*
X2758810Y-545000D01*
X2758810Y-545000D02*
X2777857Y-535476D01*
X2777857Y-535476D02*
X2815952Y-535476D01*
X2815952Y-535476D02*
X2835000Y-545000D01*
X2835000Y-545000D02*
X2844524Y-554524D01*
X2844524Y-554524D02*
X2854048Y-573571D01*
X2854048Y-573571D02*
X2854048Y-583095D01*
X2854048Y-583095D02*
X2844524Y-602143D01*
X2844524Y-602143D02*
X2835000Y-611667D01*
X2835000Y-611667D02*
X2815952Y-621190D01*
X2815952Y-621190D02*
X2777857Y-621190D01*
X2777857Y-621190D02*
X2758810Y-630714D01*
X2758810Y-630714D02*
X2749286Y-640238D01*
X2749286Y-640238D02*
X2739762Y-659286D01*
X2739762Y-659286D02*
X2739762Y-697381D01*
X2739762Y-697381D02*
X2749286Y-716428D01*
X2749286Y-716428D02*
X2758810Y-725952D01*
X2758810Y-725952D02*
X2777857Y-735476D01*
X2777857Y-735476D02*
X2815952Y-735476D01*
X2815952Y-735476D02*
X2835000Y-725952D01*
X2835000Y-725952D02*
X2844524Y-716428D01*
X2844524Y-716428D02*
X2854048Y-697381D01*
X2854048Y-697381D02*
X2854048Y-659286D01*
X2854048Y-659286D02*
X2844524Y-640238D01*
X2844524Y-640238D02*
X2835000Y-630714D01*
X2835000Y-630714D02*
X2815952Y-621190D01*
X3025476Y-602143D02*
X3025476Y-735476D01*
X2977857Y-525952D02*
X2930238Y-668810D01*
X2930238Y-668810D02*
X3054048Y-668810D01*
X3120714Y-535476D02*
X3120714Y-573571D01*
X3196905Y-535476D02*
X3196905Y-573571D01*
X3459762Y-811667D02*
X3450238Y-802143D01*
X3450238Y-802143D02*
X3431191Y-773571D01*
X3431191Y-773571D02*
X3421667Y-754524D01*
X3421667Y-754524D02*
X3412143Y-725952D01*
X3412143Y-725952D02*
X3402619Y-678333D01*
X3402619Y-678333D02*
X3402619Y-640238D01*
X3402619Y-640238D02*
X3412143Y-592619D01*
X3412143Y-592619D02*
X3421667Y-564048D01*
X3421667Y-564048D02*
X3431191Y-545000D01*
X3431191Y-545000D02*
X3450238Y-516428D01*
X3450238Y-516428D02*
X3459762Y-506905D01*
X3526429Y-554524D02*
X3535952Y-545000D01*
X3535952Y-545000D02*
X3555000Y-535476D01*
X3555000Y-535476D02*
X3602619Y-535476D01*
X3602619Y-535476D02*
X3621667Y-545000D01*
X3621667Y-545000D02*
X3631191Y-554524D01*
X3631191Y-554524D02*
X3640714Y-573571D01*
X3640714Y-573571D02*
X3640714Y-592619D01*
X3640714Y-592619D02*
X3631191Y-621190D01*
X3631191Y-621190D02*
X3516905Y-735476D01*
X3516905Y-735476D02*
X3640714Y-735476D01*
X3846429Y-735476D02*
X3846429Y-535476D01*
X3932143Y-735476D02*
X3932143Y-630714D01*
X3932143Y-630714D02*
X3922619Y-611667D01*
X3922619Y-611667D02*
X3903572Y-602143D01*
X3903572Y-602143D02*
X3875000Y-602143D01*
X3875000Y-602143D02*
X3855952Y-611667D01*
X3855952Y-611667D02*
X3846429Y-621190D01*
X4055952Y-735476D02*
X4036905Y-725952D01*
X4036905Y-725952D02*
X4027381Y-716428D01*
X4027381Y-716428D02*
X4017857Y-697381D01*
X4017857Y-697381D02*
X4017857Y-640238D01*
X4017857Y-640238D02*
X4027381Y-621190D01*
X4027381Y-621190D02*
X4036905Y-611667D01*
X4036905Y-611667D02*
X4055952Y-602143D01*
X4055952Y-602143D02*
X4084524Y-602143D01*
X4084524Y-602143D02*
X4103572Y-611667D01*
X4103572Y-611667D02*
X4113095Y-621190D01*
X4113095Y-621190D02*
X4122619Y-640238D01*
X4122619Y-640238D02*
X4122619Y-697381D01*
X4122619Y-697381D02*
X4113095Y-716428D01*
X4113095Y-716428D02*
X4103572Y-725952D01*
X4103572Y-725952D02*
X4084524Y-735476D01*
X4084524Y-735476D02*
X4055952Y-735476D01*
X4236905Y-735476D02*
X4217857Y-725952D01*
X4217857Y-725952D02*
X4208334Y-706905D01*
X4208334Y-706905D02*
X4208334Y-535476D01*
X4389286Y-725952D02*
X4370238Y-735476D01*
X4370238Y-735476D02*
X4332143Y-735476D01*
X4332143Y-735476D02*
X4313095Y-725952D01*
X4313095Y-725952D02*
X4303572Y-706905D01*
X4303572Y-706905D02*
X4303572Y-630714D01*
X4303572Y-630714D02*
X4313095Y-611667D01*
X4313095Y-611667D02*
X4332143Y-602143D01*
X4332143Y-602143D02*
X4370238Y-602143D01*
X4370238Y-602143D02*
X4389286Y-611667D01*
X4389286Y-611667D02*
X4398810Y-630714D01*
X4398810Y-630714D02*
X4398810Y-649762D01*
X4398810Y-649762D02*
X4303572Y-668810D01*
X4475000Y-725952D02*
X4494048Y-735476D01*
X4494048Y-735476D02*
X4532143Y-735476D01*
X4532143Y-735476D02*
X4551191Y-725952D01*
X4551191Y-725952D02*
X4560715Y-706905D01*
X4560715Y-706905D02*
X4560715Y-697381D01*
X4560715Y-697381D02*
X4551191Y-678333D01*
X4551191Y-678333D02*
X4532143Y-668810D01*
X4532143Y-668810D02*
X4503572Y-668810D01*
X4503572Y-668810D02*
X4484524Y-659286D01*
X4484524Y-659286D02*
X4475000Y-640238D01*
X4475000Y-640238D02*
X4475000Y-630714D01*
X4475000Y-630714D02*
X4484524Y-611667D01*
X4484524Y-611667D02*
X4503572Y-602143D01*
X4503572Y-602143D02*
X4532143Y-602143D01*
X4532143Y-602143D02*
X4551191Y-611667D01*
X4627381Y-811667D02*
X4636905Y-802143D01*
X4636905Y-802143D02*
X4655953Y-773571D01*
X4655953Y-773571D02*
X4665476Y-754524D01*
X4665476Y-754524D02*
X4675000Y-725952D01*
X4675000Y-725952D02*
X4684524Y-678333D01*
X4684524Y-678333D02*
X4684524Y-640238D01*
X4684524Y-640238D02*
X4675000Y-592619D01*
X4675000Y-592619D02*
X4665476Y-564048D01*
X4665476Y-564048D02*
X4655953Y-545000D01*
X4655953Y-545000D02*
X4636905Y-516428D01*
X4636905Y-516428D02*
X4627381Y-506905D01*
X4956905Y-811667D02*
X4947381Y-802143D01*
X4947381Y-802143D02*
X4928334Y-773571D01*
X4928334Y-773571D02*
X4918810Y-754524D01*
X4918810Y-754524D02*
X4909286Y-725952D01*
X4909286Y-725952D02*
X4899762Y-678333D01*
X4899762Y-678333D02*
X4899762Y-640238D01*
X4899762Y-640238D02*
X4909286Y-592619D01*
X4909286Y-592619D02*
X4918810Y-564048D01*
X4918810Y-564048D02*
X4928334Y-545000D01*
X4928334Y-545000D02*
X4947381Y-516428D01*
X4947381Y-516428D02*
X4956905Y-506905D01*
X5033095Y-602143D02*
X5033095Y-735476D01*
X5033095Y-621190D02*
X5042619Y-611667D01*
X5042619Y-611667D02*
X5061667Y-602143D01*
X5061667Y-602143D02*
X5090238Y-602143D01*
X5090238Y-602143D02*
X5109286Y-611667D01*
X5109286Y-611667D02*
X5118810Y-630714D01*
X5118810Y-630714D02*
X5118810Y-735476D01*
X5242619Y-735476D02*
X5223572Y-725952D01*
X5223572Y-725952D02*
X5214048Y-716428D01*
X5214048Y-716428D02*
X5204524Y-697381D01*
X5204524Y-697381D02*
X5204524Y-640238D01*
X5204524Y-640238D02*
X5214048Y-621190D01*
X5214048Y-621190D02*
X5223572Y-611667D01*
X5223572Y-611667D02*
X5242619Y-602143D01*
X5242619Y-602143D02*
X5271191Y-602143D01*
X5271191Y-602143D02*
X5290238Y-611667D01*
X5290238Y-611667D02*
X5299762Y-621190D01*
X5299762Y-621190D02*
X5309286Y-640238D01*
X5309286Y-640238D02*
X5309286Y-697381D01*
X5309286Y-697381D02*
X5299762Y-716428D01*
X5299762Y-716428D02*
X5290238Y-725952D01*
X5290238Y-725952D02*
X5271191Y-735476D01*
X5271191Y-735476D02*
X5242619Y-735476D01*
X5366429Y-602143D02*
X5442619Y-602143D01*
X5395000Y-535476D02*
X5395000Y-706905D01*
X5395000Y-706905D02*
X5404524Y-725952D01*
X5404524Y-725952D02*
X5423572Y-735476D01*
X5423572Y-735476D02*
X5442619Y-735476D01*
X5629286Y-602143D02*
X5629286Y-802143D01*
X5629286Y-611667D02*
X5648333Y-602143D01*
X5648333Y-602143D02*
X5686429Y-602143D01*
X5686429Y-602143D02*
X5705476Y-611667D01*
X5705476Y-611667D02*
X5715000Y-621190D01*
X5715000Y-621190D02*
X5724524Y-640238D01*
X5724524Y-640238D02*
X5724524Y-697381D01*
X5724524Y-697381D02*
X5715000Y-716428D01*
X5715000Y-716428D02*
X5705476Y-725952D01*
X5705476Y-725952D02*
X5686429Y-735476D01*
X5686429Y-735476D02*
X5648333Y-735476D01*
X5648333Y-735476D02*
X5629286Y-725952D01*
X5838810Y-735476D02*
X5819762Y-725952D01*
X5819762Y-725952D02*
X5810238Y-706905D01*
X5810238Y-706905D02*
X5810238Y-535476D01*
X6000714Y-735476D02*
X6000714Y-630714D01*
X6000714Y-630714D02*
X5991191Y-611667D01*
X5991191Y-611667D02*
X5972143Y-602143D01*
X5972143Y-602143D02*
X5934048Y-602143D01*
X5934048Y-602143D02*
X5915000Y-611667D01*
X6000714Y-725952D02*
X5981667Y-735476D01*
X5981667Y-735476D02*
X5934048Y-735476D01*
X5934048Y-735476D02*
X5915000Y-725952D01*
X5915000Y-725952D02*
X5905476Y-706905D01*
X5905476Y-706905D02*
X5905476Y-687857D01*
X5905476Y-687857D02*
X5915000Y-668810D01*
X5915000Y-668810D02*
X5934048Y-659286D01*
X5934048Y-659286D02*
X5981667Y-659286D01*
X5981667Y-659286D02*
X6000714Y-649762D01*
X6067381Y-602143D02*
X6143572Y-602143D01*
X6095953Y-535476D02*
X6095953Y-706905D01*
X6095953Y-706905D02*
X6105476Y-725952D01*
X6105476Y-725952D02*
X6124524Y-735476D01*
X6124524Y-735476D02*
X6143572Y-735476D01*
X6286429Y-725952D02*
X6267381Y-735476D01*
X6267381Y-735476D02*
X6229286Y-735476D01*
X6229286Y-735476D02*
X6210238Y-725952D01*
X6210238Y-725952D02*
X6200714Y-706905D01*
X6200714Y-706905D02*
X6200714Y-630714D01*
X6200714Y-630714D02*
X6210238Y-611667D01*
X6210238Y-611667D02*
X6229286Y-602143D01*
X6229286Y-602143D02*
X6267381Y-602143D01*
X6267381Y-602143D02*
X6286429Y-611667D01*
X6286429Y-611667D02*
X6295953Y-630714D01*
X6295953Y-630714D02*
X6295953Y-649762D01*
X6295953Y-649762D02*
X6200714Y-668810D01*
X6467381Y-735476D02*
X6467381Y-535476D01*
X6467381Y-725952D02*
X6448334Y-735476D01*
X6448334Y-735476D02*
X6410238Y-735476D01*
X6410238Y-735476D02*
X6391191Y-725952D01*
X6391191Y-725952D02*
X6381667Y-716428D01*
X6381667Y-716428D02*
X6372143Y-697381D01*
X6372143Y-697381D02*
X6372143Y-640238D01*
X6372143Y-640238D02*
X6381667Y-621190D01*
X6381667Y-621190D02*
X6391191Y-611667D01*
X6391191Y-611667D02*
X6410238Y-602143D01*
X6410238Y-602143D02*
X6448334Y-602143D01*
X6448334Y-602143D02*
X6467381Y-611667D01*
X6543572Y-811667D02*
X6553095Y-802143D01*
X6553095Y-802143D02*
X6572143Y-773571D01*
X6572143Y-773571D02*
X6581667Y-754524D01*
X6581667Y-754524D02*
X6591191Y-725952D01*
X6591191Y-725952D02*
X6600714Y-678333D01*
X6600714Y-678333D02*
X6600714Y-640238D01*
X6600714Y-640238D02*
X6591191Y-592619D01*
X6591191Y-592619D02*
X6581667Y-564048D01*
X6581667Y-564048D02*
X6572143Y-545000D01*
X6572143Y-545000D02*
X6553095Y-516428D01*
X6553095Y-516428D02*
X6543572Y-506905D01*
M02*
