G04 #@! TF.GenerationSoftware,KiCad,Pcbnew,6.99.0-unknown-455e330f3b~148~ubuntu20.04.1*
G04 #@! TF.CreationDate,2022-03-14T13:39:26+05:30*
G04 #@! TF.ProjectId,espc3-vario,65737063-332d-4766-9172-696f2e6b6963,rev?*
G04 #@! TF.SameCoordinates,PX55d4a80PY7270e00*
G04 #@! TF.FileFunction,Copper,L1,Top*
G04 #@! TF.FilePolarity,Positive*
%FSLAX46Y46*%
G04 Gerber Fmt 4.6, Leading zero omitted, Abs format (unit mm)*
G04 Created by KiCad (PCBNEW 6.99.0-unknown-455e330f3b~148~ubuntu20.04.1) date 2022-03-14 13:39:26*
%MOMM*%
%LPD*%
G01*
G04 APERTURE LIST*
G04 Aperture macros list*
%AMRoundRect*
0 Rectangle with rounded corners*
0 $1 Rounding radius*
0 $2 $3 $4 $5 $6 $7 $8 $9 X,Y pos of 4 corners*
0 Add a 4 corners polygon primitive as box body*
4,1,4,$2,$3,$4,$5,$6,$7,$8,$9,$2,$3,0*
0 Add four circle primitives for the rounded corners*
1,1,$1+$1,$2,$3*
1,1,$1+$1,$4,$5*
1,1,$1+$1,$6,$7*
1,1,$1+$1,$8,$9*
0 Add four rect primitives between the rounded corners*
20,1,$1+$1,$2,$3,$4,$5,0*
20,1,$1+$1,$4,$5,$6,$7,0*
20,1,$1+$1,$6,$7,$8,$9,0*
20,1,$1+$1,$8,$9,$2,$3,0*%
G04 Aperture macros list end*
G04 #@! TA.AperFunction,SMDPad,CuDef*
%ADD10RoundRect,0.250000X0.412500X0.650000X-0.412500X0.650000X-0.412500X-0.650000X0.412500X-0.650000X0*%
G04 #@! TD*
G04 #@! TA.AperFunction,SMDPad,CuDef*
%ADD11RoundRect,0.250000X-0.350000X-0.450000X0.350000X-0.450000X0.350000X0.450000X-0.350000X0.450000X0*%
G04 #@! TD*
G04 #@! TA.AperFunction,SMDPad,CuDef*
%ADD12RoundRect,0.250000X-0.337500X-0.475000X0.337500X-0.475000X0.337500X0.475000X-0.337500X0.475000X0*%
G04 #@! TD*
G04 #@! TA.AperFunction,SMDPad,CuDef*
%ADD13RoundRect,0.275000X0.275000X-0.625000X0.275000X0.625000X-0.275000X0.625000X-0.275000X-0.625000X0*%
G04 #@! TD*
G04 #@! TA.AperFunction,SMDPad,CuDef*
%ADD14RoundRect,0.275000X-0.625000X-0.275000X0.625000X-0.275000X0.625000X0.275000X-0.625000X0.275000X0*%
G04 #@! TD*
G04 #@! TA.AperFunction,SMDPad,CuDef*
%ADD15RoundRect,0.250000X0.350000X0.450000X-0.350000X0.450000X-0.350000X-0.450000X0.350000X-0.450000X0*%
G04 #@! TD*
G04 #@! TA.AperFunction,ComponentPad*
%ADD16R,1.700000X1.700000*%
G04 #@! TD*
G04 #@! TA.AperFunction,ComponentPad*
%ADD17O,1.700000X1.700000*%
G04 #@! TD*
G04 #@! TA.AperFunction,SMDPad,CuDef*
%ADD18RoundRect,0.250000X-0.475000X0.337500X-0.475000X-0.337500X0.475000X-0.337500X0.475000X0.337500X0*%
G04 #@! TD*
G04 #@! TA.AperFunction,SMDPad,CuDef*
%ADD19RoundRect,0.381000X0.762000X0.381000X-0.762000X0.381000X-0.762000X-0.381000X0.762000X-0.381000X0*%
G04 #@! TD*
G04 #@! TA.AperFunction,SMDPad,CuDef*
%ADD20R,0.650000X1.560000*%
G04 #@! TD*
G04 #@! TA.AperFunction,SMDPad,CuDef*
%ADD21R,1.500000X0.800000*%
G04 #@! TD*
G04 #@! TA.AperFunction,SMDPad,CuDef*
%ADD22R,1.500000X0.700000*%
G04 #@! TD*
G04 #@! TA.AperFunction,ComponentPad*
%ADD23O,1.800000X1.000000*%
G04 #@! TD*
G04 #@! TA.AperFunction,SMDPad,CuDef*
%ADD24RoundRect,0.250001X0.462499X0.624999X-0.462499X0.624999X-0.462499X-0.624999X0.462499X-0.624999X0*%
G04 #@! TD*
G04 #@! TA.AperFunction,SMDPad,CuDef*
%ADD25RoundRect,0.375000X0.375000X-0.875000X0.375000X0.875000X-0.375000X0.875000X-0.375000X-0.875000X0*%
G04 #@! TD*
G04 #@! TA.AperFunction,SMDPad,CuDef*
%ADD26RoundRect,0.250000X-0.450000X0.350000X-0.450000X-0.350000X0.450000X-0.350000X0.450000X0.350000X0*%
G04 #@! TD*
G04 #@! TA.AperFunction,SMDPad,CuDef*
%ADD27R,0.800000X1.900000*%
G04 #@! TD*
G04 #@! TA.AperFunction,SMDPad,CuDef*
%ADD28RoundRect,0.250000X-0.412500X-0.650000X0.412500X-0.650000X0.412500X0.650000X-0.412500X0.650000X0*%
G04 #@! TD*
G04 #@! TA.AperFunction,ViaPad*
%ADD29C,0.800000*%
G04 #@! TD*
G04 #@! TA.AperFunction,Conductor*
%ADD30C,0.400000*%
G04 #@! TD*
G04 #@! TA.AperFunction,Conductor*
%ADD31C,0.250000*%
G04 #@! TD*
G04 #@! TA.AperFunction,Conductor*
%ADD32C,0.800000*%
G04 #@! TD*
G04 #@! TA.AperFunction,Conductor*
%ADD33C,0.600000*%
G04 #@! TD*
G04 #@! TA.AperFunction,Conductor*
%ADD34C,1.000000*%
G04 #@! TD*
G04 APERTURE END LIST*
D10*
X59212500Y27350000D03*
X56087500Y27350000D03*
D11*
X48350000Y1850000D03*
X50350000Y1850000D03*
D12*
X68862500Y9650000D03*
X70937500Y9650000D03*
D13*
X9050000Y10050000D03*
X11050000Y10050000D03*
X13050000Y10050000D03*
X15050000Y10050000D03*
X17050000Y10050000D03*
X19050000Y10050000D03*
X21050000Y10050000D03*
X23050000Y10050000D03*
D14*
X24550000Y13050000D03*
X24550000Y15050000D03*
X24550000Y17050000D03*
X24550000Y19050000D03*
X24550000Y21050000D03*
X24550000Y23050000D03*
D13*
X23050000Y26050000D03*
X21050000Y26050000D03*
X19050000Y26050000D03*
X17050000Y26050000D03*
X15050000Y26050000D03*
X13050000Y26050000D03*
X11050000Y26050000D03*
X9050000Y26050000D03*
D15*
X32350000Y25900000D03*
X30350000Y25900000D03*
X15000000Y6600000D03*
X13000000Y6600000D03*
D16*
X35899999Y28809999D03*
D17*
X35899999Y26269999D03*
X35899999Y23729999D03*
X35899999Y21189999D03*
X35899999Y18649999D03*
X35899999Y16109999D03*
X35899999Y13569999D03*
X35899999Y11029999D03*
X35899999Y8489999D03*
X35899999Y5949999D03*
D18*
X10500000Y6537500D03*
X10500000Y4462500D03*
D19*
X71850000Y23600000D03*
X71850000Y26000000D03*
D20*
X60949999Y24349999D03*
X59999999Y24349999D03*
X59049999Y24349999D03*
X59049999Y21649999D03*
X60949999Y21649999D03*
D21*
X68599999Y14299999D03*
D22*
X68599999Y15499999D03*
X68599999Y16499999D03*
X68599999Y17499999D03*
X68599999Y18499999D03*
D21*
X68599999Y19699999D03*
D23*
X68799999Y12699999D03*
X68799999Y21299999D03*
X72599999Y12699999D03*
X72599999Y21299999D03*
D24*
X64137500Y16050000D03*
X61162500Y16050000D03*
D25*
X1700000Y32400000D03*
X4240000Y32400000D03*
X6780000Y32400000D03*
D26*
X62500000Y28500000D03*
X62500000Y26500000D03*
D27*
X30449999Y28299999D03*
X32349999Y28299999D03*
X31399999Y31299999D03*
D11*
X15000000Y4000000D03*
X17000000Y4000000D03*
D15*
X65550000Y21800000D03*
X63550000Y21800000D03*
D28*
X61137500Y18750000D03*
X64262500Y18750000D03*
D29*
X48200000Y1850000D03*
X36500000Y3600000D03*
X50450000Y1850000D03*
X26150000Y30600000D03*
X45250000Y30600000D03*
X41850000Y12000000D03*
X44300000Y30600000D03*
X24350000Y30600000D03*
X41850000Y11150000D03*
X60000000Y25500000D03*
X64450000Y18350000D03*
X68950000Y14300000D03*
X68950000Y19700000D03*
X68150000Y19700000D03*
X65650000Y21750000D03*
X71400000Y23850000D03*
X10150000Y32400000D03*
X56250000Y27750000D03*
X64050000Y19150000D03*
X23050000Y26550000D03*
X68150000Y14300000D03*
X23050000Y25650000D03*
X71050000Y9650000D03*
X72400000Y23350000D03*
X9200000Y32400000D03*
X10500000Y4500000D03*
X55900000Y26900000D03*
X23050000Y10500000D03*
X23050000Y9600000D03*
X15050000Y6700000D03*
X11000000Y11700000D03*
X9800000Y13250000D03*
X35300000Y32300000D03*
X32350000Y25850000D03*
X34100000Y32300000D03*
X32350000Y27450000D03*
X19000000Y17050000D03*
X22200000Y22350000D03*
X21100000Y26000000D03*
X65000000Y27300000D03*
X63550000Y24000000D03*
X70550000Y14450000D03*
X70500000Y19600000D03*
X30400000Y25900000D03*
X26600000Y14150000D03*
X35793245Y2431255D03*
X36500000Y1500000D03*
X45800000Y1600000D03*
X28550000Y16050000D03*
X13050000Y10100000D03*
X13000000Y2000000D03*
D30*
X49700000Y3600000D02*
X50400000Y2900000D01*
X36500000Y3600000D02*
X49700000Y3600000D01*
X50400000Y2900000D02*
X50400000Y1900000D01*
D31*
X50400000Y1900000D02*
X50350000Y1850000D01*
D32*
X38750000Y30600000D02*
X31537500Y30600000D01*
X24350000Y30600000D02*
X31537500Y30600000D01*
X38750000Y30600000D02*
X45250000Y30600000D01*
X41850000Y12000000D02*
X41850000Y11150000D01*
X39500000Y12000000D02*
X38750000Y12750000D01*
X38750000Y12750000D02*
X38750000Y30600000D01*
X41850000Y12000000D02*
X39500000Y12000000D01*
D33*
X31537500Y30600000D02*
X31400000Y30737500D01*
X60000000Y24137500D02*
X60000000Y25500000D01*
D31*
X68950000Y19700000D02*
X68150000Y19700000D01*
D32*
X9200000Y32400000D02*
X10200000Y32400000D01*
X6780000Y32400000D02*
X9200000Y32400000D01*
D31*
X15050000Y6700000D02*
X15000000Y6650000D01*
D30*
X15000000Y6650000D02*
X15000000Y4000000D01*
X11050000Y10050000D02*
X11050000Y11650000D01*
X11050000Y11650000D02*
X11000000Y11700000D01*
X9800000Y13250000D02*
X9050000Y12500000D01*
X9050000Y12500000D02*
X9050000Y10050000D01*
D33*
X66500000Y16000000D02*
X67000000Y15500000D01*
X68100000Y18500000D02*
X67000000Y18500000D01*
X67000000Y18500000D02*
X66500000Y18000000D01*
X67000000Y15500000D02*
X68100000Y15500000D01*
D32*
X66450000Y16050000D02*
X64137500Y16050000D01*
D33*
X66500000Y18000000D02*
X66500000Y16500000D01*
X66500000Y16500000D02*
X66500000Y16000000D01*
D34*
X59012500Y27350000D02*
X59250000Y27587500D01*
X59012500Y30237500D02*
X64612500Y30237500D01*
X59250000Y27587500D02*
X59250000Y30000000D01*
X64612500Y30237500D02*
X68900000Y25950000D01*
X59012500Y30237500D02*
X57000000Y32250000D01*
D31*
X59050000Y27162500D02*
X58862500Y27350000D01*
D34*
X71800000Y25950000D02*
X71850000Y26000000D01*
X59250000Y30000000D02*
X59012500Y30237500D01*
D30*
X32350000Y26450000D02*
X32350000Y25850000D01*
D32*
X32350000Y26350000D02*
X32350000Y27450000D01*
D34*
X68900000Y25950000D02*
X71800000Y25950000D01*
D33*
X59050000Y24137500D02*
X59050000Y27162500D01*
D34*
X57000000Y32300000D02*
X34150000Y32300000D01*
X57000000Y32250000D02*
X57000000Y32300000D01*
D32*
X32350000Y27450000D02*
X32350000Y27800000D01*
D30*
X19000000Y17050000D02*
X19000000Y19150000D01*
X19000000Y19150000D02*
X22200000Y22350000D01*
X65000000Y27300000D02*
X65000000Y27900000D01*
X65000000Y27900000D02*
X64400000Y28500000D01*
X64400000Y28500000D02*
X62500000Y28500000D01*
D32*
X59550000Y18750000D02*
X59050000Y19250000D01*
D31*
X59250000Y23050000D02*
X59050000Y22850000D01*
D32*
X59050000Y19250000D02*
X59000000Y19300000D01*
D31*
X63500000Y24000000D02*
X62550000Y23050000D01*
X59050000Y22850000D02*
X59050000Y21862500D01*
D32*
X59000000Y19300000D02*
X59000000Y20200000D01*
D33*
X59050000Y21650000D02*
X59050000Y20250000D01*
D31*
X63550000Y24000000D02*
X63500000Y24000000D01*
D32*
X61137500Y18750000D02*
X59550000Y18750000D01*
D31*
X62550000Y23050000D02*
X59250000Y23050000D01*
X59050000Y20250000D02*
X59000000Y20200000D01*
D32*
X61137500Y18750000D02*
X61137500Y16062500D01*
D30*
X8200000Y29700000D02*
X9050000Y28850000D01*
X9050000Y28850000D02*
X9050000Y26050000D01*
X1700000Y30850000D02*
X2850000Y29700000D01*
X2850000Y29700000D02*
X8200000Y29700000D01*
X1700000Y32400000D02*
X1700000Y30850000D01*
X4750000Y30450000D02*
X9650000Y30450000D01*
X11050000Y29050000D02*
X11050000Y26050000D01*
X9650000Y30450000D02*
X11050000Y29050000D01*
X4240000Y32400000D02*
X4240000Y30960000D01*
X4240000Y30960000D02*
X4750000Y30450000D01*
X70550000Y16200000D02*
X70550000Y14450000D01*
X68600000Y16500000D02*
X70250000Y16500000D01*
X70250000Y16500000D02*
X70550000Y16200000D01*
X70250000Y17500000D02*
X70500000Y17750000D01*
X68600000Y17500000D02*
X70250000Y17500000D01*
X70500000Y17750000D02*
X70500000Y19600000D01*
X30450000Y25950000D02*
X30450000Y28862500D01*
X30400000Y25900000D02*
X30450000Y25950000D01*
D31*
X15050000Y10450000D02*
X15050000Y10050000D01*
X18700000Y14100000D02*
X15050000Y10450000D01*
X26600000Y14150000D02*
X26550000Y14100000D01*
X26550000Y14100000D02*
X18700000Y14100000D01*
D30*
X24550000Y19050000D02*
X29000000Y19050000D01*
X29000000Y19050000D02*
X34480000Y13570000D01*
X34480000Y13570000D02*
X35900000Y13570000D01*
X60950000Y24950000D02*
X62500000Y26500000D01*
X60950000Y24137500D02*
X60950000Y24950000D01*
X63487500Y21862500D02*
X63550000Y21800000D01*
X60950000Y21862500D02*
X63487500Y21862500D01*
X29670000Y23730000D02*
X35900000Y23730000D01*
X14850000Y28250000D02*
X27050000Y28250000D01*
X28750000Y24650000D02*
X29670000Y23730000D01*
X28750000Y26550000D02*
X28750000Y24650000D01*
X13050000Y26450000D02*
X14850000Y28250000D01*
X27050000Y28250000D02*
X28750000Y26550000D01*
D31*
X13050000Y26050000D02*
X13050000Y26450000D01*
D30*
X27700000Y24500000D02*
X27700000Y26050000D01*
X35900000Y21190000D02*
X31010000Y21190000D01*
D31*
X15050000Y26500000D02*
X15050000Y26050000D01*
D30*
X26250000Y27500000D02*
X16050000Y27500000D01*
X16050000Y27500000D02*
X15050000Y26500000D01*
X27700000Y26050000D02*
X26250000Y27500000D01*
X31010000Y21190000D02*
X27700000Y24500000D01*
X32350000Y18700000D02*
X35850000Y18700000D01*
X26700000Y24350000D02*
X32350000Y18700000D01*
X35850000Y18700000D02*
X35900000Y18650000D01*
D31*
X19100000Y24700000D02*
X19050000Y24750000D01*
D30*
X19450000Y24350000D02*
X26700000Y24350000D01*
X19050000Y24750000D02*
X19050000Y26050000D01*
X19100000Y24700000D02*
X19450000Y24350000D01*
X36890000Y16110000D02*
X37500000Y15500000D01*
X35900000Y16110000D02*
X33440000Y16110000D01*
X35900000Y16110000D02*
X36890000Y16110000D01*
X33440000Y16110000D02*
X28500000Y21050000D01*
X35900000Y11030000D02*
X37030000Y11030000D01*
X37500000Y11500000D02*
X37500000Y15500000D01*
X37030000Y11030000D02*
X37500000Y11500000D01*
X28500000Y21050000D02*
X24550000Y21050000D01*
X21050000Y9700000D02*
X22260000Y8490000D01*
X22260000Y8490000D02*
X35900000Y8490000D01*
D31*
X21050000Y10050000D02*
X21050000Y9700000D01*
X19000000Y10000000D02*
X19050000Y10050000D01*
D30*
X20568745Y2431255D02*
X19000000Y4000000D01*
X35793245Y2431255D02*
X20568745Y2431255D01*
X19000000Y4000000D02*
X19000000Y10000000D01*
X17050000Y10050000D02*
X17050000Y4050000D01*
X19400000Y1500000D02*
X36500000Y1500000D01*
D31*
X45700000Y1500000D02*
X45800000Y1600000D01*
X17050000Y4050000D02*
X17000000Y4000000D01*
D30*
X17000000Y3900000D02*
X19400000Y1500000D01*
X36500000Y1500000D02*
X45700000Y1500000D01*
D31*
X17000000Y4000000D02*
X17000000Y3900000D01*
X17050000Y17400000D02*
X17050000Y26050000D01*
X18400000Y16050000D02*
X17050000Y17400000D01*
X28550000Y16050000D02*
X18400000Y16050000D01*
D33*
X13050000Y10050000D02*
X13050000Y6650000D01*
X13000000Y6600000D02*
X10562500Y6600000D01*
D31*
X13050000Y10100000D02*
X13050000Y10050000D01*
D33*
X13050000Y6650000D02*
X13000000Y6600000D01*
X13000000Y6600000D02*
X13000000Y2000000D01*
X68800000Y9712500D02*
X68862500Y9650000D01*
X68800000Y12700000D02*
X68800000Y9712500D01*
M02*
