G04 #@! TF.GenerationSoftware,KiCad,Pcbnew,6.99.0-unknown-455e330f3b~148~ubuntu20.04.1*
G04 #@! TF.CreationDate,2022-03-14T13:39:27+05:30*
G04 #@! TF.ProjectId,espc3-vario,65737063-332d-4766-9172-696f2e6b6963,rev?*
G04 #@! TF.SameCoordinates,PX55d4a80PY7270e00*
G04 #@! TF.FileFunction,Legend,Top*
G04 #@! TF.FilePolarity,Positive*
%FSLAX46Y46*%
G04 Gerber Fmt 4.6, Leading zero omitted, Abs format (unit mm)*
G04 Created by KiCad (PCBNEW 6.99.0-unknown-455e330f3b~148~ubuntu20.04.1) date 2022-03-14 13:39:27*
%MOMM*%
%LPD*%
G01*
G04 APERTURE LIST*
G04 Aperture macros list*
%AMRoundRect*
0 Rectangle with rounded corners*
0 $1 Rounding radius*
0 $2 $3 $4 $5 $6 $7 $8 $9 X,Y pos of 4 corners*
0 Add a 4 corners polygon primitive as box body*
4,1,4,$2,$3,$4,$5,$6,$7,$8,$9,$2,$3,0*
0 Add four circle primitives for the rounded corners*
1,1,$1+$1,$2,$3*
1,1,$1+$1,$4,$5*
1,1,$1+$1,$6,$7*
1,1,$1+$1,$8,$9*
0 Add four rect primitives between the rounded corners*
20,1,$1+$1,$2,$3,$4,$5,0*
20,1,$1+$1,$4,$5,$6,$7,0*
20,1,$1+$1,$6,$7,$8,$9,0*
20,1,$1+$1,$8,$9,$2,$3,0*%
G04 Aperture macros list end*
%ADD10C,0.150000*%
%ADD11C,0.120000*%
%ADD12RoundRect,0.250000X0.412500X0.650000X-0.412500X0.650000X-0.412500X-0.650000X0.412500X-0.650000X0*%
%ADD13RoundRect,0.250000X-0.350000X-0.450000X0.350000X-0.450000X0.350000X0.450000X-0.350000X0.450000X0*%
%ADD14RoundRect,0.250000X-0.337500X-0.475000X0.337500X-0.475000X0.337500X0.475000X-0.337500X0.475000X0*%
%ADD15RoundRect,0.275000X0.275000X-0.625000X0.275000X0.625000X-0.275000X0.625000X-0.275000X-0.625000X0*%
%ADD16RoundRect,0.275000X-0.625000X-0.275000X0.625000X-0.275000X0.625000X0.275000X-0.625000X0.275000X0*%
%ADD17RoundRect,0.250000X0.350000X0.450000X-0.350000X0.450000X-0.350000X-0.450000X0.350000X-0.450000X0*%
%ADD18R,1.700000X1.700000*%
%ADD19O,1.700000X1.700000*%
%ADD20C,2.500000*%
%ADD21RoundRect,0.250000X-0.475000X0.337500X-0.475000X-0.337500X0.475000X-0.337500X0.475000X0.337500X0*%
%ADD22RoundRect,0.381000X0.762000X0.381000X-0.762000X0.381000X-0.762000X-0.381000X0.762000X-0.381000X0*%
%ADD23RoundRect,0.050000X-0.325000X0.780000X-0.325000X-0.780000X0.325000X-0.780000X0.325000X0.780000X0*%
%ADD24RoundRect,0.050000X0.750000X-0.400000X0.750000X0.400000X-0.750000X0.400000X-0.750000X-0.400000X0*%
%ADD25R,1.500000X0.700000*%
%ADD26RoundRect,0.050000X0.750000X-0.350000X0.750000X0.350000X-0.750000X0.350000X-0.750000X-0.350000X0*%
%ADD27O,1.800000X1.000000*%
%ADD28RoundRect,0.250001X0.462499X0.624999X-0.462499X0.624999X-0.462499X-0.624999X0.462499X-0.624999X0*%
%ADD29RoundRect,0.375000X0.375000X-0.875000X0.375000X0.875000X-0.375000X0.875000X-0.375000X-0.875000X0*%
%ADD30RoundRect,0.250000X-0.450000X0.350000X-0.450000X-0.350000X0.450000X-0.350000X0.450000X0.350000X0*%
%ADD31RoundRect,0.050000X0.400000X-0.950000X0.400000X0.950000X-0.400000X0.950000X-0.400000X-0.950000X0*%
%ADD32RoundRect,0.250000X-0.412500X-0.650000X0.412500X-0.650000X0.412500X0.650000X-0.412500X0.650000X0*%
G04 APERTURE END LIST*
D10*
X54000000Y31000000D02*
X34000000Y31000000D01*
X34000000Y4100000D02*
X54000000Y4100000D01*
X500000Y26000000D02*
X500000Y10000000D01*
X8000000Y26000000D02*
X500000Y26000000D01*
X24500000Y26000000D02*
X24500000Y25300000D01*
X24000000Y26000000D02*
X24500000Y26000000D01*
X24500000Y10850000D02*
X24500000Y10000000D01*
X24500000Y10000000D02*
X24000000Y10000000D01*
X500000Y10000000D02*
X8000000Y10000000D01*
X54000000Y4100000D02*
X54000000Y31000000D01*
X34000000Y31000000D02*
X34000000Y4100000D01*
X8404762Y24214286D02*
X8785714Y24214286D01*
X8547619Y24547620D02*
X8547619Y23690477D01*
X8547619Y23690477D02*
X8595238Y23595239D01*
X8595238Y23595239D02*
X8690476Y23547620D01*
X8690476Y23547620D02*
X8785714Y23547620D01*
X9023810Y23547620D02*
X9547619Y24214286D01*
X9023810Y24214286D02*
X9547619Y23547620D01*
X70380951Y23428572D02*
X69619047Y23428572D01*
X68197619Y24147620D02*
X68197619Y25147620D01*
X68197619Y24766667D02*
X68292857Y24814286D01*
X68292857Y24814286D02*
X68483333Y24814286D01*
X68483333Y24814286D02*
X68578571Y24766667D01*
X68578571Y24766667D02*
X68626190Y24719048D01*
X68626190Y24719048D02*
X68673809Y24623810D01*
X68673809Y24623810D02*
X68673809Y24338096D01*
X68673809Y24338096D02*
X68626190Y24242858D01*
X68626190Y24242858D02*
X68578571Y24195239D01*
X68578571Y24195239D02*
X68483333Y24147620D01*
X68483333Y24147620D02*
X68292857Y24147620D01*
X68292857Y24147620D02*
X68197619Y24195239D01*
X69530952Y24147620D02*
X69530952Y24671429D01*
X69530952Y24671429D02*
X69483333Y24766667D01*
X69483333Y24766667D02*
X69388095Y24814286D01*
X69388095Y24814286D02*
X69197619Y24814286D01*
X69197619Y24814286D02*
X69102381Y24766667D01*
X69530952Y24195239D02*
X69435714Y24147620D01*
X69435714Y24147620D02*
X69197619Y24147620D01*
X69197619Y24147620D02*
X69102381Y24195239D01*
X69102381Y24195239D02*
X69054762Y24290477D01*
X69054762Y24290477D02*
X69054762Y24385715D01*
X69054762Y24385715D02*
X69102381Y24480953D01*
X69102381Y24480953D02*
X69197619Y24528572D01*
X69197619Y24528572D02*
X69435714Y24528572D01*
X69435714Y24528572D02*
X69530952Y24576191D01*
X69864286Y24814286D02*
X70245238Y24814286D01*
X70007143Y25147620D02*
X70007143Y24290477D01*
X70007143Y24290477D02*
X70054762Y24195239D01*
X70054762Y24195239D02*
X70150000Y24147620D01*
X70150000Y24147620D02*
X70245238Y24147620D01*
X6250000Y28638096D02*
X6202380Y28542858D01*
X6202380Y28542858D02*
X6202380Y28400001D01*
X6202380Y28400001D02*
X6250000Y28257144D01*
X6250000Y28257144D02*
X6345238Y28161906D01*
X6345238Y28161906D02*
X6440476Y28114287D01*
X6440476Y28114287D02*
X6630952Y28066668D01*
X6630952Y28066668D02*
X6773809Y28066668D01*
X6773809Y28066668D02*
X6964285Y28114287D01*
X6964285Y28114287D02*
X7059523Y28161906D01*
X7059523Y28161906D02*
X7154761Y28257144D01*
X7154761Y28257144D02*
X7202380Y28400001D01*
X7202380Y28400001D02*
X7202380Y28495239D01*
X7202380Y28495239D02*
X7154761Y28638096D01*
X7154761Y28638096D02*
X7107142Y28685715D01*
X7107142Y28685715D02*
X6773809Y28685715D01*
X6773809Y28685715D02*
X6773809Y28495239D01*
X7202380Y29114287D02*
X6202380Y29114287D01*
X6202380Y29114287D02*
X7202380Y29685715D01*
X7202380Y29685715D02*
X6202380Y29685715D01*
X7202380Y30161906D02*
X6202380Y30161906D01*
X6202380Y30161906D02*
X6202380Y30400001D01*
X6202380Y30400001D02*
X6250000Y30542858D01*
X6250000Y30542858D02*
X6345238Y30638096D01*
X6345238Y30638096D02*
X6440476Y30685715D01*
X6440476Y30685715D02*
X6630952Y30733334D01*
X6630952Y30733334D02*
X6773809Y30733334D01*
X6773809Y30733334D02*
X6964285Y30685715D01*
X6964285Y30685715D02*
X7059523Y30638096D01*
X7059523Y30638096D02*
X7154761Y30542858D01*
X7154761Y30542858D02*
X7202380Y30400001D01*
X7202380Y30400001D02*
X7202380Y30161906D01*
X22166667Y21547620D02*
X22833333Y21547620D01*
X22833333Y21547620D02*
X22404762Y20547620D01*
X14809523Y23547620D02*
X14238095Y23547620D01*
X14523809Y23547620D02*
X14523809Y24547620D01*
X14523809Y24547620D02*
X14428571Y24404762D01*
X14428571Y24404762D02*
X14333333Y24309524D01*
X14333333Y24309524D02*
X14238095Y24261905D01*
X15380952Y24119048D02*
X15285714Y24166667D01*
X15285714Y24166667D02*
X15238095Y24214286D01*
X15238095Y24214286D02*
X15190476Y24309524D01*
X15190476Y24309524D02*
X15190476Y24357143D01*
X15190476Y24357143D02*
X15238095Y24452381D01*
X15238095Y24452381D02*
X15285714Y24500000D01*
X15285714Y24500000D02*
X15380952Y24547620D01*
X15380952Y24547620D02*
X15571428Y24547620D01*
X15571428Y24547620D02*
X15666666Y24500000D01*
X15666666Y24500000D02*
X15714285Y24452381D01*
X15714285Y24452381D02*
X15761904Y24357143D01*
X15761904Y24357143D02*
X15761904Y24309524D01*
X15761904Y24309524D02*
X15714285Y24214286D01*
X15714285Y24214286D02*
X15666666Y24166667D01*
X15666666Y24166667D02*
X15571428Y24119048D01*
X15571428Y24119048D02*
X15380952Y24119048D01*
X15380952Y24119048D02*
X15285714Y24071429D01*
X15285714Y24071429D02*
X15238095Y24023810D01*
X15238095Y24023810D02*
X15190476Y23928572D01*
X15190476Y23928572D02*
X15190476Y23738096D01*
X15190476Y23738096D02*
X15238095Y23642858D01*
X15238095Y23642858D02*
X15285714Y23595239D01*
X15285714Y23595239D02*
X15380952Y23547620D01*
X15380952Y23547620D02*
X15571428Y23547620D01*
X15571428Y23547620D02*
X15666666Y23595239D01*
X15666666Y23595239D02*
X15714285Y23642858D01*
X15714285Y23642858D02*
X15761904Y23738096D01*
X15761904Y23738096D02*
X15761904Y23928572D01*
X15761904Y23928572D02*
X15714285Y24023810D01*
X15714285Y24023810D02*
X15666666Y24071429D01*
X15666666Y24071429D02*
X15571428Y24119048D01*
X1052380Y29038096D02*
X1052380Y29609524D01*
X2052380Y29323810D02*
X1052380Y29323810D01*
X1052380Y29847620D02*
X2052380Y30514286D01*
X1052380Y30514286D02*
X2052380Y29847620D01*
X12738095Y11595239D02*
X12642857Y11547620D01*
X12642857Y11547620D02*
X12452381Y11547620D01*
X12452381Y11547620D02*
X12357143Y11595239D01*
X12357143Y11595239D02*
X12309524Y11690477D01*
X12309524Y11690477D02*
X12309524Y12071429D01*
X12309524Y12071429D02*
X12357143Y12166667D01*
X12357143Y12166667D02*
X12452381Y12214286D01*
X12452381Y12214286D02*
X12642857Y12214286D01*
X12642857Y12214286D02*
X12738095Y12166667D01*
X12738095Y12166667D02*
X12785714Y12071429D01*
X12785714Y12071429D02*
X12785714Y11976191D01*
X12785714Y11976191D02*
X12309524Y11880953D01*
X13214286Y12214286D02*
X13214286Y11547620D01*
X13214286Y12119048D02*
X13261905Y12166667D01*
X13261905Y12166667D02*
X13357143Y12214286D01*
X13357143Y12214286D02*
X13500000Y12214286D01*
X13500000Y12214286D02*
X13595238Y12166667D01*
X13595238Y12166667D02*
X13642857Y12071429D01*
X13642857Y12071429D02*
X13642857Y11547620D01*
X14714286Y12452381D02*
X14761905Y12500000D01*
X14761905Y12500000D02*
X14857143Y12547620D01*
X14857143Y12547620D02*
X15095238Y12547620D01*
X15095238Y12547620D02*
X15190476Y12500000D01*
X15190476Y12500000D02*
X15238095Y12452381D01*
X15238095Y12452381D02*
X15285714Y12357143D01*
X15285714Y12357143D02*
X15285714Y12261905D01*
X15285714Y12261905D02*
X15238095Y12119048D01*
X15238095Y12119048D02*
X14666667Y11547620D01*
X14666667Y11547620D02*
X15285714Y11547620D01*
X22809523Y24714286D02*
X22809523Y23904762D01*
X22809523Y23904762D02*
X22761904Y23809524D01*
X22761904Y23809524D02*
X22714285Y23761905D01*
X22714285Y23761905D02*
X22619047Y23714286D01*
X22619047Y23714286D02*
X22476190Y23714286D01*
X22476190Y23714286D02*
X22380952Y23761905D01*
X22809523Y24095239D02*
X22714285Y24047620D01*
X22714285Y24047620D02*
X22523809Y24047620D01*
X22523809Y24047620D02*
X22428571Y24095239D01*
X22428571Y24095239D02*
X22380952Y24142858D01*
X22380952Y24142858D02*
X22333333Y24238096D01*
X22333333Y24238096D02*
X22333333Y24523810D01*
X22333333Y24523810D02*
X22380952Y24619048D01*
X22380952Y24619048D02*
X22428571Y24666667D01*
X22428571Y24666667D02*
X22523809Y24714286D01*
X22523809Y24714286D02*
X22714285Y24714286D01*
X22714285Y24714286D02*
X22809523Y24666667D01*
X23285714Y24714286D02*
X23285714Y24047620D01*
X23285714Y24619048D02*
X23333333Y24666667D01*
X23333333Y24666667D02*
X23428571Y24714286D01*
X23428571Y24714286D02*
X23571428Y24714286D01*
X23571428Y24714286D02*
X23666666Y24666667D01*
X23666666Y24666667D02*
X23714285Y24571429D01*
X23714285Y24571429D02*
X23714285Y24047620D01*
X24619047Y24047620D02*
X24619047Y25047620D01*
X24619047Y24095239D02*
X24523809Y24047620D01*
X24523809Y24047620D02*
X24333333Y24047620D01*
X24333333Y24047620D02*
X24238095Y24095239D01*
X24238095Y24095239D02*
X24190476Y24142858D01*
X24190476Y24142858D02*
X24142857Y24238096D01*
X24142857Y24238096D02*
X24142857Y24523810D01*
X24142857Y24523810D02*
X24190476Y24619048D01*
X24190476Y24619048D02*
X24238095Y24666667D01*
X24238095Y24666667D02*
X24333333Y24714286D01*
X24333333Y24714286D02*
X24523809Y24714286D01*
X24523809Y24714286D02*
X24619047Y24666667D01*
X16666667Y12547620D02*
X17285714Y12547620D01*
X17285714Y12547620D02*
X16952381Y12166667D01*
X16952381Y12166667D02*
X17095238Y12166667D01*
X17095238Y12166667D02*
X17190476Y12119048D01*
X17190476Y12119048D02*
X17238095Y12071429D01*
X17238095Y12071429D02*
X17285714Y11976191D01*
X17285714Y11976191D02*
X17285714Y11738096D01*
X17285714Y11738096D02*
X17238095Y11642858D01*
X17238095Y11642858D02*
X17190476Y11595239D01*
X17190476Y11595239D02*
X17095238Y11547620D01*
X17095238Y11547620D02*
X16809524Y11547620D01*
X16809524Y11547620D02*
X16714286Y11595239D01*
X16714286Y11595239D02*
X16666667Y11642858D01*
X12809523Y23547620D02*
X12238095Y23547620D01*
X12523809Y23547620D02*
X12523809Y24547620D01*
X12523809Y24547620D02*
X12428571Y24404762D01*
X12428571Y24404762D02*
X12333333Y24309524D01*
X12333333Y24309524D02*
X12238095Y24261905D01*
X13285714Y23547620D02*
X13476190Y23547620D01*
X13476190Y23547620D02*
X13571428Y23595239D01*
X13571428Y23595239D02*
X13619047Y23642858D01*
X13619047Y23642858D02*
X13714285Y23785715D01*
X13714285Y23785715D02*
X13761904Y23976191D01*
X13761904Y23976191D02*
X13761904Y24357143D01*
X13761904Y24357143D02*
X13714285Y24452381D01*
X13714285Y24452381D02*
X13666666Y24500000D01*
X13666666Y24500000D02*
X13571428Y24547620D01*
X13571428Y24547620D02*
X13380952Y24547620D01*
X13380952Y24547620D02*
X13285714Y24500000D01*
X13285714Y24500000D02*
X13238095Y24452381D01*
X13238095Y24452381D02*
X13190476Y24357143D01*
X13190476Y24357143D02*
X13190476Y24119048D01*
X13190476Y24119048D02*
X13238095Y24023810D01*
X13238095Y24023810D02*
X13285714Y23976191D01*
X13285714Y23976191D02*
X13380952Y23928572D01*
X13380952Y23928572D02*
X13571428Y23928572D01*
X13571428Y23928572D02*
X13666666Y23976191D01*
X13666666Y23976191D02*
X13714285Y24023810D01*
X13714285Y24023810D02*
X13761904Y24119048D01*
X10523809Y23547620D02*
X10523809Y24214286D01*
X10523809Y24023810D02*
X10571428Y24119048D01*
X10571428Y24119048D02*
X10619047Y24166667D01*
X10619047Y24166667D02*
X10714285Y24214286D01*
X10714285Y24214286D02*
X10809523Y24214286D01*
X11047619Y23547620D02*
X11571428Y24214286D01*
X11047619Y24214286D02*
X11571428Y23547620D01*
X22404762Y12214286D02*
X22642857Y11547620D01*
X22642857Y11547620D02*
X22880952Y12214286D01*
X23690476Y11595239D02*
X23595238Y11547620D01*
X23595238Y11547620D02*
X23404762Y11547620D01*
X23404762Y11547620D02*
X23309524Y11595239D01*
X23309524Y11595239D02*
X23261905Y11642858D01*
X23261905Y11642858D02*
X23214286Y11738096D01*
X23214286Y11738096D02*
X23214286Y12023810D01*
X23214286Y12023810D02*
X23261905Y12119048D01*
X23261905Y12119048D02*
X23309524Y12166667D01*
X23309524Y12166667D02*
X23404762Y12214286D01*
X23404762Y12214286D02*
X23595238Y12214286D01*
X23595238Y12214286D02*
X23690476Y12166667D01*
X24547619Y11595239D02*
X24452381Y11547620D01*
X24452381Y11547620D02*
X24261905Y11547620D01*
X24261905Y11547620D02*
X24166667Y11595239D01*
X24166667Y11595239D02*
X24119048Y11642858D01*
X24119048Y11642858D02*
X24071429Y11738096D01*
X24071429Y11738096D02*
X24071429Y12023810D01*
X24071429Y12023810D02*
X24119048Y12119048D01*
X24119048Y12119048D02*
X24166667Y12166667D01*
X24166667Y12166667D02*
X24261905Y12214286D01*
X24261905Y12214286D02*
X24452381Y12214286D01*
X24452381Y12214286D02*
X24547619Y12166667D01*
X22238095Y12547620D02*
X22761904Y13214286D01*
X22238095Y13214286D02*
X22761904Y12547620D01*
X8952381Y12547620D02*
X9047619Y12547620D01*
X9047619Y12547620D02*
X9142857Y12500000D01*
X9142857Y12500000D02*
X9190476Y12452381D01*
X9190476Y12452381D02*
X9238095Y12357143D01*
X9238095Y12357143D02*
X9285714Y12166667D01*
X9285714Y12166667D02*
X9285714Y11928572D01*
X9285714Y11928572D02*
X9238095Y11738096D01*
X9238095Y11738096D02*
X9190476Y11642858D01*
X9190476Y11642858D02*
X9142857Y11595239D01*
X9142857Y11595239D02*
X9047619Y11547620D01*
X9047619Y11547620D02*
X8952381Y11547620D01*
X8952381Y11547620D02*
X8857143Y11595239D01*
X8857143Y11595239D02*
X8809524Y11642858D01*
X8809524Y11642858D02*
X8761905Y11738096D01*
X8761905Y11738096D02*
X8714286Y11928572D01*
X8714286Y11928572D02*
X8714286Y12166667D01*
X8714286Y12166667D02*
X8761905Y12357143D01*
X8761905Y12357143D02*
X8809524Y12452381D01*
X8809524Y12452381D02*
X8857143Y12500000D01*
X8857143Y12500000D02*
X8952381Y12547620D01*
X22238095Y16547620D02*
X22761904Y17214286D01*
X22238095Y17214286D02*
X22761904Y16547620D01*
X11285714Y12547620D02*
X10714286Y12547620D01*
X11000000Y12547620D02*
X11000000Y13547620D01*
X11000000Y13547620D02*
X10904762Y13404762D01*
X10904762Y13404762D02*
X10809524Y13309524D01*
X10809524Y13309524D02*
X10714286Y13261905D01*
X18809523Y23547620D02*
X18238095Y23547620D01*
X18523809Y23547620D02*
X18523809Y24547620D01*
X18523809Y24547620D02*
X18428571Y24404762D01*
X18428571Y24404762D02*
X18333333Y24309524D01*
X18333333Y24309524D02*
X18238095Y24261905D01*
X19428571Y24547620D02*
X19523809Y24547620D01*
X19523809Y24547620D02*
X19619047Y24500000D01*
X19619047Y24500000D02*
X19666666Y24452381D01*
X19666666Y24452381D02*
X19714285Y24357143D01*
X19714285Y24357143D02*
X19761904Y24166667D01*
X19761904Y24166667D02*
X19761904Y23928572D01*
X19761904Y23928572D02*
X19714285Y23738096D01*
X19714285Y23738096D02*
X19666666Y23642858D01*
X19666666Y23642858D02*
X19619047Y23595239D01*
X19619047Y23595239D02*
X19523809Y23547620D01*
X19523809Y23547620D02*
X19428571Y23547620D01*
X19428571Y23547620D02*
X19333333Y23595239D01*
X19333333Y23595239D02*
X19285714Y23642858D01*
X19285714Y23642858D02*
X19238095Y23738096D01*
X19238095Y23738096D02*
X19190476Y23928572D01*
X19190476Y23928572D02*
X19190476Y24166667D01*
X19190476Y24166667D02*
X19238095Y24357143D01*
X19238095Y24357143D02*
X19285714Y24452381D01*
X19285714Y24452381D02*
X19333333Y24500000D01*
X19333333Y24500000D02*
X19428571Y24547620D01*
X22238095Y22547620D02*
X22761904Y23214286D01*
X22238095Y23214286D02*
X22761904Y22547620D01*
X19190476Y12214286D02*
X19190476Y11547620D01*
X18952381Y12595239D02*
X18714286Y11880953D01*
X18714286Y11880953D02*
X19333333Y11880953D01*
X21238095Y12547620D02*
X20761905Y12547620D01*
X20761905Y12547620D02*
X20714286Y12071429D01*
X20714286Y12071429D02*
X20761905Y12119048D01*
X20761905Y12119048D02*
X20857143Y12166667D01*
X20857143Y12166667D02*
X21095238Y12166667D01*
X21095238Y12166667D02*
X21190476Y12119048D01*
X21190476Y12119048D02*
X21238095Y12071429D01*
X21238095Y12071429D02*
X21285714Y11976191D01*
X21285714Y11976191D02*
X21285714Y11738096D01*
X21285714Y11738096D02*
X21238095Y11642858D01*
X21238095Y11642858D02*
X21190476Y11595239D01*
X21190476Y11595239D02*
X21095238Y11547620D01*
X21095238Y11547620D02*
X20857143Y11547620D01*
X20857143Y11547620D02*
X20761905Y11595239D01*
X20761905Y11595239D02*
X20714286Y11642858D01*
X4652380Y29683334D02*
X4176190Y29350001D01*
X4652380Y29111906D02*
X3652380Y29111906D01*
X3652380Y29111906D02*
X3652380Y29492858D01*
X3652380Y29492858D02*
X3700000Y29588096D01*
X3700000Y29588096D02*
X3747619Y29635715D01*
X3747619Y29635715D02*
X3842857Y29683334D01*
X3842857Y29683334D02*
X3985714Y29683334D01*
X3985714Y29683334D02*
X4080952Y29635715D01*
X4080952Y29635715D02*
X4128571Y29588096D01*
X4128571Y29588096D02*
X4176190Y29492858D01*
X4176190Y29492858D02*
X4176190Y29111906D01*
X3652380Y30016668D02*
X4652380Y30683334D01*
X3652380Y30683334D02*
X4652380Y30016668D01*
X16809524Y23547620D02*
X17000000Y23547620D01*
X17000000Y23547620D02*
X17095238Y23595239D01*
X17095238Y23595239D02*
X17142857Y23642858D01*
X17142857Y23642858D02*
X17238095Y23785715D01*
X17238095Y23785715D02*
X17285714Y23976191D01*
X17285714Y23976191D02*
X17285714Y24357143D01*
X17285714Y24357143D02*
X17238095Y24452381D01*
X17238095Y24452381D02*
X17190476Y24500000D01*
X17190476Y24500000D02*
X17095238Y24547620D01*
X17095238Y24547620D02*
X16904762Y24547620D01*
X16904762Y24547620D02*
X16809524Y24500000D01*
X16809524Y24500000D02*
X16761905Y24452381D01*
X16761905Y24452381D02*
X16714286Y24357143D01*
X16714286Y24357143D02*
X16714286Y24119048D01*
X16714286Y24119048D02*
X16761905Y24023810D01*
X16761905Y24023810D02*
X16809524Y23976191D01*
X16809524Y23976191D02*
X16904762Y23928572D01*
X16904762Y23928572D02*
X17095238Y23928572D01*
X17095238Y23928572D02*
X17190476Y23976191D01*
X17190476Y23976191D02*
X17238095Y24023810D01*
X17238095Y24023810D02*
X17285714Y24119048D01*
X22238095Y14547620D02*
X22761904Y15214286D01*
X22238095Y15214286D02*
X22761904Y14547620D01*
X22690476Y19547620D02*
X22500000Y19547620D01*
X22500000Y19547620D02*
X22404762Y19500000D01*
X22404762Y19500000D02*
X22357143Y19452381D01*
X22357143Y19452381D02*
X22261905Y19309524D01*
X22261905Y19309524D02*
X22214286Y19119048D01*
X22214286Y19119048D02*
X22214286Y18738096D01*
X22214286Y18738096D02*
X22261905Y18642858D01*
X22261905Y18642858D02*
X22309524Y18595239D01*
X22309524Y18595239D02*
X22404762Y18547620D01*
X22404762Y18547620D02*
X22595238Y18547620D01*
X22595238Y18547620D02*
X22690476Y18595239D01*
X22690476Y18595239D02*
X22738095Y18642858D01*
X22738095Y18642858D02*
X22785714Y18738096D01*
X22785714Y18738096D02*
X22785714Y18976191D01*
X22785714Y18976191D02*
X22738095Y19071429D01*
X22738095Y19071429D02*
X22690476Y19119048D01*
X22690476Y19119048D02*
X22595238Y19166667D01*
X22595238Y19166667D02*
X22404762Y19166667D01*
X22404762Y19166667D02*
X22309524Y19119048D01*
X22309524Y19119048D02*
X22261905Y19071429D01*
X22261905Y19071429D02*
X22214286Y18976191D01*
X20904762Y24119048D02*
X20809524Y24166667D01*
X20809524Y24166667D02*
X20761905Y24214286D01*
X20761905Y24214286D02*
X20714286Y24309524D01*
X20714286Y24309524D02*
X20714286Y24357143D01*
X20714286Y24357143D02*
X20761905Y24452381D01*
X20761905Y24452381D02*
X20809524Y24500000D01*
X20809524Y24500000D02*
X20904762Y24547620D01*
X20904762Y24547620D02*
X21095238Y24547620D01*
X21095238Y24547620D02*
X21190476Y24500000D01*
X21190476Y24500000D02*
X21238095Y24452381D01*
X21238095Y24452381D02*
X21285714Y24357143D01*
X21285714Y24357143D02*
X21285714Y24309524D01*
X21285714Y24309524D02*
X21238095Y24214286D01*
X21238095Y24214286D02*
X21190476Y24166667D01*
X21190476Y24166667D02*
X21095238Y24119048D01*
X21095238Y24119048D02*
X20904762Y24119048D01*
X20904762Y24119048D02*
X20809524Y24071429D01*
X20809524Y24071429D02*
X20761905Y24023810D01*
X20761905Y24023810D02*
X20714286Y23928572D01*
X20714286Y23928572D02*
X20714286Y23738096D01*
X20714286Y23738096D02*
X20761905Y23642858D01*
X20761905Y23642858D02*
X20809524Y23595239D01*
X20809524Y23595239D02*
X20904762Y23547620D01*
X20904762Y23547620D02*
X21095238Y23547620D01*
X21095238Y23547620D02*
X21190476Y23595239D01*
X21190476Y23595239D02*
X21238095Y23642858D01*
X21238095Y23642858D02*
X21285714Y23738096D01*
X21285714Y23738096D02*
X21285714Y23928572D01*
X21285714Y23928572D02*
X21238095Y24023810D01*
X21238095Y24023810D02*
X21190476Y24071429D01*
X21190476Y24071429D02*
X21095238Y24119048D01*
X70380951Y25928572D02*
X69619047Y25928572D01*
X69999999Y25547620D02*
X69999999Y26309524D01*
X55857142Y28842858D02*
X55809523Y28795239D01*
X55809523Y28795239D02*
X55666666Y28747620D01*
X55666666Y28747620D02*
X55571428Y28747620D01*
X55571428Y28747620D02*
X55428571Y28795239D01*
X55428571Y28795239D02*
X55333333Y28890477D01*
X55333333Y28890477D02*
X55285714Y28985715D01*
X55285714Y28985715D02*
X55238095Y29176191D01*
X55238095Y29176191D02*
X55238095Y29319048D01*
X55238095Y29319048D02*
X55285714Y29509524D01*
X55285714Y29509524D02*
X55333333Y29604762D01*
X55333333Y29604762D02*
X55428571Y29700000D01*
X55428571Y29700000D02*
X55571428Y29747620D01*
X55571428Y29747620D02*
X55666666Y29747620D01*
X55666666Y29747620D02*
X55809523Y29700000D01*
X55809523Y29700000D02*
X55857142Y29652381D01*
X56809523Y28747620D02*
X56238095Y28747620D01*
X56523809Y28747620D02*
X56523809Y29747620D01*
X56523809Y29747620D02*
X56428571Y29604762D01*
X56428571Y29604762D02*
X56333333Y29509524D01*
X56333333Y29509524D02*
X56238095Y29461905D01*
X57714285Y29747620D02*
X57238095Y29747620D01*
X57238095Y29747620D02*
X57190476Y29271429D01*
X57190476Y29271429D02*
X57238095Y29319048D01*
X57238095Y29319048D02*
X57333333Y29366667D01*
X57333333Y29366667D02*
X57571428Y29366667D01*
X57571428Y29366667D02*
X57666666Y29319048D01*
X57666666Y29319048D02*
X57714285Y29271429D01*
X57714285Y29271429D02*
X57761904Y29176191D01*
X57761904Y29176191D02*
X57761904Y28938096D01*
X57761904Y28938096D02*
X57714285Y28842858D01*
X57714285Y28842858D02*
X57666666Y28795239D01*
X57666666Y28795239D02*
X57571428Y28747620D01*
X57571428Y28747620D02*
X57333333Y28747620D01*
X57333333Y28747620D02*
X57238095Y28795239D01*
X57238095Y28795239D02*
X57190476Y28842858D01*
X57511904Y27654762D02*
X57607142Y27702381D01*
X57607142Y27702381D02*
X57797618Y27702381D01*
X57797618Y27702381D02*
X57892856Y27654762D01*
X57892856Y27654762D02*
X57940475Y27607143D01*
X57940475Y27607143D02*
X57988094Y27511905D01*
X57988094Y27511905D02*
X57988094Y27226191D01*
X57988094Y27226191D02*
X57940475Y27130953D01*
X57940475Y27130953D02*
X57892856Y27083334D01*
X57892856Y27083334D02*
X57797618Y27035715D01*
X57797618Y27035715D02*
X57607142Y27035715D01*
X57607142Y27035715D02*
X57511904Y27083334D01*
X52333333Y1047620D02*
X52000000Y1523810D01*
X51761905Y1047620D02*
X51761905Y2047620D01*
X51761905Y2047620D02*
X52142857Y2047620D01*
X52142857Y2047620D02*
X52238095Y2000000D01*
X52238095Y2000000D02*
X52285714Y1952381D01*
X52285714Y1952381D02*
X52333333Y1857143D01*
X52333333Y1857143D02*
X52333333Y1714286D01*
X52333333Y1714286D02*
X52285714Y1619048D01*
X52285714Y1619048D02*
X52238095Y1571429D01*
X52238095Y1571429D02*
X52142857Y1523810D01*
X52142857Y1523810D02*
X51761905Y1523810D01*
X52904762Y1619048D02*
X52809524Y1666667D01*
X52809524Y1666667D02*
X52761905Y1714286D01*
X52761905Y1714286D02*
X52714286Y1809524D01*
X52714286Y1809524D02*
X52714286Y1857143D01*
X52714286Y1857143D02*
X52761905Y1952381D01*
X52761905Y1952381D02*
X52809524Y2000000D01*
X52809524Y2000000D02*
X52904762Y2047620D01*
X52904762Y2047620D02*
X53095238Y2047620D01*
X53095238Y2047620D02*
X53190476Y2000000D01*
X53190476Y2000000D02*
X53238095Y1952381D01*
X53238095Y1952381D02*
X53285714Y1857143D01*
X53285714Y1857143D02*
X53285714Y1809524D01*
X53285714Y1809524D02*
X53238095Y1714286D01*
X53238095Y1714286D02*
X53190476Y1666667D01*
X53190476Y1666667D02*
X53095238Y1619048D01*
X53095238Y1619048D02*
X52904762Y1619048D01*
X52904762Y1619048D02*
X52809524Y1571429D01*
X52809524Y1571429D02*
X52761905Y1523810D01*
X52761905Y1523810D02*
X52714286Y1428572D01*
X52714286Y1428572D02*
X52714286Y1238096D01*
X52714286Y1238096D02*
X52761905Y1142858D01*
X52761905Y1142858D02*
X52809524Y1095239D01*
X52809524Y1095239D02*
X52904762Y1047620D01*
X52904762Y1047620D02*
X53095238Y1047620D01*
X53095238Y1047620D02*
X53190476Y1095239D01*
X53190476Y1095239D02*
X53238095Y1142858D01*
X53238095Y1142858D02*
X53285714Y1238096D01*
X53285714Y1238096D02*
X53285714Y1428572D01*
X53285714Y1428572D02*
X53238095Y1523810D01*
X53238095Y1523810D02*
X53190476Y1571429D01*
X53190476Y1571429D02*
X53095238Y1619048D01*
X49178571Y1497620D02*
X49178571Y2164286D01*
X49178571Y1973810D02*
X49226190Y2069048D01*
X49226190Y2069048D02*
X49273809Y2116667D01*
X49273809Y2116667D02*
X49369047Y2164286D01*
X49369047Y2164286D02*
X49464285Y2164286D01*
X69057142Y7542858D02*
X69009523Y7495239D01*
X69009523Y7495239D02*
X68866666Y7447620D01*
X68866666Y7447620D02*
X68771428Y7447620D01*
X68771428Y7447620D02*
X68628571Y7495239D01*
X68628571Y7495239D02*
X68533333Y7590477D01*
X68533333Y7590477D02*
X68485714Y7685715D01*
X68485714Y7685715D02*
X68438095Y7876191D01*
X68438095Y7876191D02*
X68438095Y8019048D01*
X68438095Y8019048D02*
X68485714Y8209524D01*
X68485714Y8209524D02*
X68533333Y8304762D01*
X68533333Y8304762D02*
X68628571Y8400000D01*
X68628571Y8400000D02*
X68771428Y8447620D01*
X68771428Y8447620D02*
X68866666Y8447620D01*
X68866666Y8447620D02*
X69009523Y8400000D01*
X69009523Y8400000D02*
X69057142Y8352381D01*
X70009523Y7447620D02*
X69438095Y7447620D01*
X69723809Y7447620D02*
X69723809Y8447620D01*
X69723809Y8447620D02*
X69628571Y8304762D01*
X69628571Y8304762D02*
X69533333Y8209524D01*
X69533333Y8209524D02*
X69438095Y8161905D01*
X70342857Y8447620D02*
X70961904Y8447620D01*
X70961904Y8447620D02*
X70628571Y8066667D01*
X70628571Y8066667D02*
X70771428Y8066667D01*
X70771428Y8066667D02*
X70866666Y8019048D01*
X70866666Y8019048D02*
X70914285Y7971429D01*
X70914285Y7971429D02*
X70961904Y7876191D01*
X70961904Y7876191D02*
X70961904Y7638096D01*
X70961904Y7638096D02*
X70914285Y7542858D01*
X70914285Y7542858D02*
X70866666Y7495239D01*
X70866666Y7495239D02*
X70771428Y7447620D01*
X70771428Y7447620D02*
X70485714Y7447620D01*
X70485714Y7447620D02*
X70390476Y7495239D01*
X70390476Y7495239D02*
X70342857Y7542858D01*
X70138095Y9345239D02*
X70042857Y9297620D01*
X70042857Y9297620D02*
X69852381Y9297620D01*
X69852381Y9297620D02*
X69757143Y9345239D01*
X69757143Y9345239D02*
X69709524Y9392858D01*
X69709524Y9392858D02*
X69661905Y9488096D01*
X69661905Y9488096D02*
X69661905Y9773810D01*
X69661905Y9773810D02*
X69709524Y9869048D01*
X69709524Y9869048D02*
X69757143Y9916667D01*
X69757143Y9916667D02*
X69852381Y9964286D01*
X69852381Y9964286D02*
X70042857Y9964286D01*
X70042857Y9964286D02*
X70138095Y9916667D01*
X31183333Y23797620D02*
X30850000Y24273810D01*
X30611905Y23797620D02*
X30611905Y24797620D01*
X30611905Y24797620D02*
X30992857Y24797620D01*
X30992857Y24797620D02*
X31088095Y24750000D01*
X31088095Y24750000D02*
X31135714Y24702381D01*
X31135714Y24702381D02*
X31183333Y24607143D01*
X31183333Y24607143D02*
X31183333Y24464286D01*
X31183333Y24464286D02*
X31135714Y24369048D01*
X31135714Y24369048D02*
X31088095Y24321429D01*
X31088095Y24321429D02*
X30992857Y24273810D01*
X30992857Y24273810D02*
X30611905Y24273810D01*
X31516667Y24797620D02*
X32183333Y24797620D01*
X32183333Y24797620D02*
X31754762Y23797620D01*
X31521428Y26252381D02*
X31521428Y25585715D01*
X31521428Y25776191D02*
X31473809Y25680953D01*
X31473809Y25680953D02*
X31426190Y25633334D01*
X31426190Y25633334D02*
X31330952Y25585715D01*
X31330952Y25585715D02*
X31235714Y25585715D01*
X16733333Y6097620D02*
X16400000Y6573810D01*
X16161905Y6097620D02*
X16161905Y7097620D01*
X16161905Y7097620D02*
X16542857Y7097620D01*
X16542857Y7097620D02*
X16638095Y7050000D01*
X16638095Y7050000D02*
X16685714Y7002381D01*
X16685714Y7002381D02*
X16733333Y6907143D01*
X16733333Y6907143D02*
X16733333Y6764286D01*
X16733333Y6764286D02*
X16685714Y6669048D01*
X16685714Y6669048D02*
X16638095Y6621429D01*
X16638095Y6621429D02*
X16542857Y6573810D01*
X16542857Y6573810D02*
X16161905Y6573810D01*
X17685714Y6097620D02*
X17114286Y6097620D01*
X17400000Y6097620D02*
X17400000Y7097620D01*
X17400000Y7097620D02*
X17304762Y6954762D01*
X17304762Y6954762D02*
X17209524Y6859524D01*
X17209524Y6859524D02*
X17114286Y6811905D01*
X14171428Y6952381D02*
X14171428Y6285715D01*
X14171428Y6476191D02*
X14123809Y6380953D01*
X14123809Y6380953D02*
X14076190Y6333334D01*
X14076190Y6333334D02*
X13980952Y6285715D01*
X13980952Y6285715D02*
X13885714Y6285715D01*
X37409524Y23445239D02*
X37552381Y23397620D01*
X37552381Y23397620D02*
X37790476Y23397620D01*
X37790476Y23397620D02*
X37885714Y23445239D01*
X37885714Y23445239D02*
X37933333Y23492858D01*
X37933333Y23492858D02*
X37980952Y23588096D01*
X37980952Y23588096D02*
X37980952Y23683334D01*
X37980952Y23683334D02*
X37933333Y23778572D01*
X37933333Y23778572D02*
X37885714Y23826191D01*
X37885714Y23826191D02*
X37790476Y23873810D01*
X37790476Y23873810D02*
X37600000Y23921429D01*
X37600000Y23921429D02*
X37504762Y23969048D01*
X37504762Y23969048D02*
X37457143Y24016667D01*
X37457143Y24016667D02*
X37409524Y24111905D01*
X37409524Y24111905D02*
X37409524Y24207143D01*
X37409524Y24207143D02*
X37457143Y24302381D01*
X37457143Y24302381D02*
X37504762Y24350000D01*
X37504762Y24350000D02*
X37600000Y24397620D01*
X37600000Y24397620D02*
X37838095Y24397620D01*
X37838095Y24397620D02*
X37980952Y24350000D01*
X38980952Y23492858D02*
X38933333Y23445239D01*
X38933333Y23445239D02*
X38790476Y23397620D01*
X38790476Y23397620D02*
X38695238Y23397620D01*
X38695238Y23397620D02*
X38552381Y23445239D01*
X38552381Y23445239D02*
X38457143Y23540477D01*
X38457143Y23540477D02*
X38409524Y23635715D01*
X38409524Y23635715D02*
X38361905Y23826191D01*
X38361905Y23826191D02*
X38361905Y23969048D01*
X38361905Y23969048D02*
X38409524Y24159524D01*
X38409524Y24159524D02*
X38457143Y24254762D01*
X38457143Y24254762D02*
X38552381Y24350000D01*
X38552381Y24350000D02*
X38695238Y24397620D01*
X38695238Y24397620D02*
X38790476Y24397620D01*
X38790476Y24397620D02*
X38933333Y24350000D01*
X38933333Y24350000D02*
X38980952Y24302381D01*
X39885714Y23397620D02*
X39409524Y23397620D01*
X39409524Y23397620D02*
X39409524Y24397620D01*
X38038095Y26850000D02*
X37942857Y26897620D01*
X37942857Y26897620D02*
X37800000Y26897620D01*
X37800000Y26897620D02*
X37657143Y26850000D01*
X37657143Y26850000D02*
X37561905Y26754762D01*
X37561905Y26754762D02*
X37514286Y26659524D01*
X37514286Y26659524D02*
X37466667Y26469048D01*
X37466667Y26469048D02*
X37466667Y26326191D01*
X37466667Y26326191D02*
X37514286Y26135715D01*
X37514286Y26135715D02*
X37561905Y26040477D01*
X37561905Y26040477D02*
X37657143Y25945239D01*
X37657143Y25945239D02*
X37800000Y25897620D01*
X37800000Y25897620D02*
X37895238Y25897620D01*
X37895238Y25897620D02*
X38038095Y25945239D01*
X38038095Y25945239D02*
X38085714Y25992858D01*
X38085714Y25992858D02*
X38085714Y26326191D01*
X38085714Y26326191D02*
X37895238Y26326191D01*
X38514286Y25897620D02*
X38514286Y26897620D01*
X38514286Y26897620D02*
X39085714Y25897620D01*
X39085714Y25897620D02*
X39085714Y26897620D01*
X39561905Y25897620D02*
X39561905Y26897620D01*
X39561905Y26897620D02*
X39800000Y26897620D01*
X39800000Y26897620D02*
X39942857Y26850000D01*
X39942857Y26850000D02*
X40038095Y26754762D01*
X40038095Y26754762D02*
X40085714Y26659524D01*
X40085714Y26659524D02*
X40133333Y26469048D01*
X40133333Y26469048D02*
X40133333Y26326191D01*
X40133333Y26326191D02*
X40085714Y26135715D01*
X40085714Y26135715D02*
X40038095Y26040477D01*
X40038095Y26040477D02*
X39942857Y25945239D01*
X39942857Y25945239D02*
X39800000Y25897620D01*
X39800000Y25897620D02*
X39561905Y25897620D01*
X37285714Y15883334D02*
X37761904Y15883334D01*
X37190476Y15597620D02*
X37523809Y16597620D01*
X37523809Y16597620D02*
X37857142Y15597620D01*
X38190476Y15597620D02*
X38190476Y16597620D01*
X38190476Y16597620D02*
X38428571Y16597620D01*
X38428571Y16597620D02*
X38571428Y16550000D01*
X38571428Y16550000D02*
X38666666Y16454762D01*
X38666666Y16454762D02*
X38714285Y16359524D01*
X38714285Y16359524D02*
X38761904Y16169048D01*
X38761904Y16169048D02*
X38761904Y16026191D01*
X38761904Y16026191D02*
X38714285Y15835715D01*
X38714285Y15835715D02*
X38666666Y15740477D01*
X38666666Y15740477D02*
X38571428Y15645239D01*
X38571428Y15645239D02*
X38428571Y15597620D01*
X38428571Y15597620D02*
X38190476Y15597620D01*
X39380952Y16597620D02*
X39476190Y16597620D01*
X39476190Y16597620D02*
X39571428Y16550000D01*
X39571428Y16550000D02*
X39619047Y16502381D01*
X39619047Y16502381D02*
X39666666Y16407143D01*
X39666666Y16407143D02*
X39714285Y16216667D01*
X39714285Y16216667D02*
X39714285Y15978572D01*
X39714285Y15978572D02*
X39666666Y15788096D01*
X39666666Y15788096D02*
X39619047Y15692858D01*
X39619047Y15692858D02*
X39571428Y15645239D01*
X39571428Y15645239D02*
X39476190Y15597620D01*
X39476190Y15597620D02*
X39380952Y15597620D01*
X39380952Y15597620D02*
X39285714Y15645239D01*
X39285714Y15645239D02*
X39238095Y15692858D01*
X39238095Y15692858D02*
X39190476Y15788096D01*
X39190476Y15788096D02*
X39142857Y15978572D01*
X39142857Y15978572D02*
X39142857Y16216667D01*
X39142857Y16216667D02*
X39190476Y16407143D01*
X39190476Y16407143D02*
X39238095Y16502381D01*
X39238095Y16502381D02*
X39285714Y16550000D01*
X39285714Y16550000D02*
X39380952Y16597620D01*
X37338095Y18197620D02*
X37338095Y19197620D01*
X37338095Y19197620D02*
X37909523Y18197620D01*
X37909523Y18197620D02*
X37909523Y19197620D01*
X38957142Y18292858D02*
X38909523Y18245239D01*
X38909523Y18245239D02*
X38766666Y18197620D01*
X38766666Y18197620D02*
X38671428Y18197620D01*
X38671428Y18197620D02*
X38528571Y18245239D01*
X38528571Y18245239D02*
X38433333Y18340477D01*
X38433333Y18340477D02*
X38385714Y18435715D01*
X38385714Y18435715D02*
X38338095Y18626191D01*
X38338095Y18626191D02*
X38338095Y18769048D01*
X38338095Y18769048D02*
X38385714Y18959524D01*
X38385714Y18959524D02*
X38433333Y19054762D01*
X38433333Y19054762D02*
X38528571Y19150000D01*
X38528571Y19150000D02*
X38671428Y19197620D01*
X38671428Y19197620D02*
X38766666Y19197620D01*
X38766666Y19197620D02*
X38909523Y19150000D01*
X38909523Y19150000D02*
X38957142Y19102381D01*
X39338095Y18245239D02*
X39480952Y18197620D01*
X39480952Y18197620D02*
X39719047Y18197620D01*
X39719047Y18197620D02*
X39814285Y18245239D01*
X39814285Y18245239D02*
X39861904Y18292858D01*
X39861904Y18292858D02*
X39909523Y18388096D01*
X39909523Y18388096D02*
X39909523Y18483334D01*
X39909523Y18483334D02*
X39861904Y18578572D01*
X39861904Y18578572D02*
X39814285Y18626191D01*
X39814285Y18626191D02*
X39719047Y18673810D01*
X39719047Y18673810D02*
X39528571Y18721429D01*
X39528571Y18721429D02*
X39433333Y18769048D01*
X39433333Y18769048D02*
X39385714Y18816667D01*
X39385714Y18816667D02*
X39338095Y18911905D01*
X39338095Y18911905D02*
X39338095Y19007143D01*
X39338095Y19007143D02*
X39385714Y19102381D01*
X39385714Y19102381D02*
X39433333Y19150000D01*
X39433333Y19150000D02*
X39528571Y19197620D01*
X39528571Y19197620D02*
X39766666Y19197620D01*
X39766666Y19197620D02*
X39909523Y19150000D01*
X37733333Y7992858D02*
X37685714Y7945239D01*
X37685714Y7945239D02*
X37542857Y7897620D01*
X37542857Y7897620D02*
X37447619Y7897620D01*
X37447619Y7897620D02*
X37304762Y7945239D01*
X37304762Y7945239D02*
X37209524Y8040477D01*
X37209524Y8040477D02*
X37161905Y8135715D01*
X37161905Y8135715D02*
X37114286Y8326191D01*
X37114286Y8326191D02*
X37114286Y8469048D01*
X37114286Y8469048D02*
X37161905Y8659524D01*
X37161905Y8659524D02*
X37209524Y8754762D01*
X37209524Y8754762D02*
X37304762Y8850000D01*
X37304762Y8850000D02*
X37447619Y8897620D01*
X37447619Y8897620D02*
X37542857Y8897620D01*
X37542857Y8897620D02*
X37685714Y8850000D01*
X37685714Y8850000D02*
X37733333Y8802381D01*
X38114286Y7945239D02*
X38257143Y7897620D01*
X38257143Y7897620D02*
X38495238Y7897620D01*
X38495238Y7897620D02*
X38590476Y7945239D01*
X38590476Y7945239D02*
X38638095Y7992858D01*
X38638095Y7992858D02*
X38685714Y8088096D01*
X38685714Y8088096D02*
X38685714Y8183334D01*
X38685714Y8183334D02*
X38638095Y8278572D01*
X38638095Y8278572D02*
X38590476Y8326191D01*
X38590476Y8326191D02*
X38495238Y8373810D01*
X38495238Y8373810D02*
X38304762Y8421429D01*
X38304762Y8421429D02*
X38209524Y8469048D01*
X38209524Y8469048D02*
X38161905Y8516667D01*
X38161905Y8516667D02*
X38114286Y8611905D01*
X38114286Y8611905D02*
X38114286Y8707143D01*
X38114286Y8707143D02*
X38161905Y8802381D01*
X38161905Y8802381D02*
X38209524Y8850000D01*
X38209524Y8850000D02*
X38304762Y8897620D01*
X38304762Y8897620D02*
X38542857Y8897620D01*
X38542857Y8897620D02*
X38685714Y8850000D01*
X39447619Y8421429D02*
X39590476Y8373810D01*
X39590476Y8373810D02*
X39638095Y8326191D01*
X39638095Y8326191D02*
X39685714Y8230953D01*
X39685714Y8230953D02*
X39685714Y8088096D01*
X39685714Y8088096D02*
X39638095Y7992858D01*
X39638095Y7992858D02*
X39590476Y7945239D01*
X39590476Y7945239D02*
X39495238Y7897620D01*
X39495238Y7897620D02*
X39114286Y7897620D01*
X39114286Y7897620D02*
X39114286Y8897620D01*
X39114286Y8897620D02*
X39447619Y8897620D01*
X39447619Y8897620D02*
X39542857Y8850000D01*
X39542857Y8850000D02*
X39590476Y8802381D01*
X39590476Y8802381D02*
X39638095Y8707143D01*
X39638095Y8707143D02*
X39638095Y8611905D01*
X39638095Y8611905D02*
X39590476Y8516667D01*
X39590476Y8516667D02*
X39542857Y8469048D01*
X39542857Y8469048D02*
X39447619Y8421429D01*
X39447619Y8421429D02*
X39114286Y8421429D01*
X37295238Y13097620D02*
X37295238Y14097620D01*
X37771428Y13097620D02*
X37771428Y14097620D01*
X37771428Y14097620D02*
X38342856Y13097620D01*
X38342856Y13097620D02*
X38342856Y14097620D01*
X38676190Y14097620D02*
X39247618Y14097620D01*
X38961904Y13097620D02*
X38961904Y14097620D01*
X37290476Y10545239D02*
X37433333Y10497620D01*
X37433333Y10497620D02*
X37671428Y10497620D01*
X37671428Y10497620D02*
X37766666Y10545239D01*
X37766666Y10545239D02*
X37814285Y10592858D01*
X37814285Y10592858D02*
X37861904Y10688096D01*
X37861904Y10688096D02*
X37861904Y10783334D01*
X37861904Y10783334D02*
X37814285Y10878572D01*
X37814285Y10878572D02*
X37766666Y10926191D01*
X37766666Y10926191D02*
X37671428Y10973810D01*
X37671428Y10973810D02*
X37480952Y11021429D01*
X37480952Y11021429D02*
X37385714Y11069048D01*
X37385714Y11069048D02*
X37338095Y11116667D01*
X37338095Y11116667D02*
X37290476Y11211905D01*
X37290476Y11211905D02*
X37290476Y11307143D01*
X37290476Y11307143D02*
X37338095Y11402381D01*
X37338095Y11402381D02*
X37385714Y11450000D01*
X37385714Y11450000D02*
X37480952Y11497620D01*
X37480952Y11497620D02*
X37719047Y11497620D01*
X37719047Y11497620D02*
X37861904Y11450000D01*
X38290476Y10497620D02*
X38290476Y11497620D01*
X38290476Y11497620D02*
X38528571Y11497620D01*
X38528571Y11497620D02*
X38671428Y11450000D01*
X38671428Y11450000D02*
X38766666Y11354762D01*
X38766666Y11354762D02*
X38814285Y11259524D01*
X38814285Y11259524D02*
X38861904Y11069048D01*
X38861904Y11069048D02*
X38861904Y10926191D01*
X38861904Y10926191D02*
X38814285Y10735715D01*
X38814285Y10735715D02*
X38766666Y10640477D01*
X38766666Y10640477D02*
X38671428Y10545239D01*
X38671428Y10545239D02*
X38528571Y10497620D01*
X38528571Y10497620D02*
X38290476Y10497620D01*
X39480952Y11497620D02*
X39671428Y11497620D01*
X39671428Y11497620D02*
X39766666Y11450000D01*
X39766666Y11450000D02*
X39861904Y11354762D01*
X39861904Y11354762D02*
X39909523Y11164286D01*
X39909523Y11164286D02*
X39909523Y10830953D01*
X39909523Y10830953D02*
X39861904Y10640477D01*
X39861904Y10640477D02*
X39766666Y10545239D01*
X39766666Y10545239D02*
X39671428Y10497620D01*
X39671428Y10497620D02*
X39480952Y10497620D01*
X39480952Y10497620D02*
X39385714Y10545239D01*
X39385714Y10545239D02*
X39290476Y10640477D01*
X39290476Y10640477D02*
X39242857Y10830953D01*
X39242857Y10830953D02*
X39242857Y11164286D01*
X39242857Y11164286D02*
X39290476Y11354762D01*
X39290476Y11354762D02*
X39385714Y11450000D01*
X39385714Y11450000D02*
X39480952Y11497620D01*
X37385714Y20845239D02*
X37528571Y20797620D01*
X37528571Y20797620D02*
X37766666Y20797620D01*
X37766666Y20797620D02*
X37861904Y20845239D01*
X37861904Y20845239D02*
X37909523Y20892858D01*
X37909523Y20892858D02*
X37957142Y20988096D01*
X37957142Y20988096D02*
X37957142Y21083334D01*
X37957142Y21083334D02*
X37909523Y21178572D01*
X37909523Y21178572D02*
X37861904Y21226191D01*
X37861904Y21226191D02*
X37766666Y21273810D01*
X37766666Y21273810D02*
X37576190Y21321429D01*
X37576190Y21321429D02*
X37480952Y21369048D01*
X37480952Y21369048D02*
X37433333Y21416667D01*
X37433333Y21416667D02*
X37385714Y21511905D01*
X37385714Y21511905D02*
X37385714Y21607143D01*
X37385714Y21607143D02*
X37433333Y21702381D01*
X37433333Y21702381D02*
X37480952Y21750000D01*
X37480952Y21750000D02*
X37576190Y21797620D01*
X37576190Y21797620D02*
X37814285Y21797620D01*
X37814285Y21797620D02*
X37957142Y21750000D01*
X38385714Y20797620D02*
X38385714Y21797620D01*
X38385714Y21797620D02*
X38623809Y21797620D01*
X38623809Y21797620D02*
X38766666Y21750000D01*
X38766666Y21750000D02*
X38861904Y21654762D01*
X38861904Y21654762D02*
X38909523Y21559524D01*
X38909523Y21559524D02*
X38957142Y21369048D01*
X38957142Y21369048D02*
X38957142Y21226191D01*
X38957142Y21226191D02*
X38909523Y21035715D01*
X38909523Y21035715D02*
X38861904Y20940477D01*
X38861904Y20940477D02*
X38766666Y20845239D01*
X38766666Y20845239D02*
X38623809Y20797620D01*
X38623809Y20797620D02*
X38385714Y20797620D01*
X39338095Y21083334D02*
X39814285Y21083334D01*
X39242857Y20797620D02*
X39576190Y21797620D01*
X39576190Y21797620D02*
X39909523Y20797620D01*
X37466667Y29397620D02*
X37800000Y28397620D01*
X37800000Y28397620D02*
X38133333Y29397620D01*
X39038095Y28492858D02*
X38990476Y28445239D01*
X38990476Y28445239D02*
X38847619Y28397620D01*
X38847619Y28397620D02*
X38752381Y28397620D01*
X38752381Y28397620D02*
X38609524Y28445239D01*
X38609524Y28445239D02*
X38514286Y28540477D01*
X38514286Y28540477D02*
X38466667Y28635715D01*
X38466667Y28635715D02*
X38419048Y28826191D01*
X38419048Y28826191D02*
X38419048Y28969048D01*
X38419048Y28969048D02*
X38466667Y29159524D01*
X38466667Y29159524D02*
X38514286Y29254762D01*
X38514286Y29254762D02*
X38609524Y29350000D01*
X38609524Y29350000D02*
X38752381Y29397620D01*
X38752381Y29397620D02*
X38847619Y29397620D01*
X38847619Y29397620D02*
X38990476Y29350000D01*
X38990476Y29350000D02*
X39038095Y29302381D01*
X40038095Y28492858D02*
X39990476Y28445239D01*
X39990476Y28445239D02*
X39847619Y28397620D01*
X39847619Y28397620D02*
X39752381Y28397620D01*
X39752381Y28397620D02*
X39609524Y28445239D01*
X39609524Y28445239D02*
X39514286Y28540477D01*
X39514286Y28540477D02*
X39466667Y28635715D01*
X39466667Y28635715D02*
X39419048Y28826191D01*
X39419048Y28826191D02*
X39419048Y28969048D01*
X39419048Y28969048D02*
X39466667Y29159524D01*
X39466667Y29159524D02*
X39514286Y29254762D01*
X39514286Y29254762D02*
X39609524Y29350000D01*
X39609524Y29350000D02*
X39752381Y29397620D01*
X39752381Y29397620D02*
X39847619Y29397620D01*
X39847619Y29397620D02*
X39990476Y29350000D01*
X39990476Y29350000D02*
X40038095Y29302381D01*
X37261905Y5497620D02*
X37261905Y6497620D01*
X37261905Y6497620D02*
X37642857Y6497620D01*
X37642857Y6497620D02*
X37738095Y6450000D01*
X37738095Y6450000D02*
X37785714Y6402381D01*
X37785714Y6402381D02*
X37833333Y6307143D01*
X37833333Y6307143D02*
X37833333Y6164286D01*
X37833333Y6164286D02*
X37785714Y6069048D01*
X37785714Y6069048D02*
X37738095Y6021429D01*
X37738095Y6021429D02*
X37642857Y5973810D01*
X37642857Y5973810D02*
X37261905Y5973810D01*
X38214286Y5545239D02*
X38357143Y5497620D01*
X38357143Y5497620D02*
X38595238Y5497620D01*
X38595238Y5497620D02*
X38690476Y5545239D01*
X38690476Y5545239D02*
X38738095Y5592858D01*
X38738095Y5592858D02*
X38785714Y5688096D01*
X38785714Y5688096D02*
X38785714Y5783334D01*
X38785714Y5783334D02*
X38738095Y5878572D01*
X38738095Y5878572D02*
X38690476Y5926191D01*
X38690476Y5926191D02*
X38595238Y5973810D01*
X38595238Y5973810D02*
X38404762Y6021429D01*
X38404762Y6021429D02*
X38309524Y6069048D01*
X38309524Y6069048D02*
X38261905Y6116667D01*
X38261905Y6116667D02*
X38214286Y6211905D01*
X38214286Y6211905D02*
X38214286Y6307143D01*
X38214286Y6307143D02*
X38261905Y6402381D01*
X38261905Y6402381D02*
X38309524Y6450000D01*
X38309524Y6450000D02*
X38404762Y6497620D01*
X38404762Y6497620D02*
X38642857Y6497620D01*
X38642857Y6497620D02*
X38785714Y6450000D01*
X10033333Y2442858D02*
X9985714Y2395239D01*
X9985714Y2395239D02*
X9842857Y2347620D01*
X9842857Y2347620D02*
X9747619Y2347620D01*
X9747619Y2347620D02*
X9604762Y2395239D01*
X9604762Y2395239D02*
X9509524Y2490477D01*
X9509524Y2490477D02*
X9461905Y2585715D01*
X9461905Y2585715D02*
X9414286Y2776191D01*
X9414286Y2776191D02*
X9414286Y2919048D01*
X9414286Y2919048D02*
X9461905Y3109524D01*
X9461905Y3109524D02*
X9509524Y3204762D01*
X9509524Y3204762D02*
X9604762Y3300000D01*
X9604762Y3300000D02*
X9747619Y3347620D01*
X9747619Y3347620D02*
X9842857Y3347620D01*
X9842857Y3347620D02*
X9985714Y3300000D01*
X9985714Y3300000D02*
X10033333Y3252381D01*
X10366667Y3347620D02*
X10985714Y3347620D01*
X10985714Y3347620D02*
X10652381Y2966667D01*
X10652381Y2966667D02*
X10795238Y2966667D01*
X10795238Y2966667D02*
X10890476Y2919048D01*
X10890476Y2919048D02*
X10938095Y2871429D01*
X10938095Y2871429D02*
X10985714Y2776191D01*
X10985714Y2776191D02*
X10985714Y2538096D01*
X10985714Y2538096D02*
X10938095Y2442858D01*
X10938095Y2442858D02*
X10890476Y2395239D01*
X10890476Y2395239D02*
X10795238Y2347620D01*
X10795238Y2347620D02*
X10509524Y2347620D01*
X10509524Y2347620D02*
X10414286Y2395239D01*
X10414286Y2395239D02*
X10366667Y2442858D01*
X10195238Y5261905D02*
X10147619Y5357143D01*
X10147619Y5357143D02*
X10147619Y5547619D01*
X10147619Y5547619D02*
X10195238Y5642857D01*
X10195238Y5642857D02*
X10242857Y5690476D01*
X10242857Y5690476D02*
X10338095Y5738095D01*
X10338095Y5738095D02*
X10623809Y5738095D01*
X10623809Y5738095D02*
X10719047Y5690476D01*
X10719047Y5690476D02*
X10766666Y5642857D01*
X10766666Y5642857D02*
X10814285Y5547619D01*
X10814285Y5547619D02*
X10814285Y5357143D01*
X10814285Y5357143D02*
X10766666Y5261905D01*
X55938095Y23497620D02*
X55938095Y22688096D01*
X55938095Y22688096D02*
X55985714Y22592858D01*
X55985714Y22592858D02*
X56033333Y22545239D01*
X56033333Y22545239D02*
X56128571Y22497620D01*
X56128571Y22497620D02*
X56319047Y22497620D01*
X56319047Y22497620D02*
X56414285Y22545239D01*
X56414285Y22545239D02*
X56461904Y22592858D01*
X56461904Y22592858D02*
X56509523Y22688096D01*
X56509523Y22688096D02*
X56509523Y23497620D01*
X57461904Y23497620D02*
X56985714Y23497620D01*
X56985714Y23497620D02*
X56938095Y23021429D01*
X56938095Y23021429D02*
X56985714Y23069048D01*
X56985714Y23069048D02*
X57080952Y23116667D01*
X57080952Y23116667D02*
X57319047Y23116667D01*
X57319047Y23116667D02*
X57414285Y23069048D01*
X57414285Y23069048D02*
X57461904Y23021429D01*
X57461904Y23021429D02*
X57509523Y22926191D01*
X57509523Y22926191D02*
X57509523Y22688096D01*
X57509523Y22688096D02*
X57461904Y22592858D01*
X57461904Y22592858D02*
X57414285Y22545239D01*
X57414285Y22545239D02*
X57319047Y22497620D01*
X57319047Y22497620D02*
X57080952Y22497620D01*
X57080952Y22497620D02*
X56985714Y22545239D01*
X56985714Y22545239D02*
X56938095Y22592858D01*
X62316666Y14301429D02*
X61983333Y14301429D01*
X61983333Y13777620D02*
X61983333Y14777620D01*
X61983333Y14777620D02*
X62459523Y14777620D01*
X63364285Y13777620D02*
X62792857Y13777620D01*
X63078571Y13777620D02*
X63078571Y14777620D01*
X63078571Y14777620D02*
X62983333Y14634762D01*
X62983333Y14634762D02*
X62888095Y14539524D01*
X62888095Y14539524D02*
X62792857Y14491905D01*
X61757142Y29447620D02*
X61423809Y29923810D01*
X61185714Y29447620D02*
X61185714Y30447620D01*
X61185714Y30447620D02*
X61566666Y30447620D01*
X61566666Y30447620D02*
X61661904Y30400000D01*
X61661904Y30400000D02*
X61709523Y30352381D01*
X61709523Y30352381D02*
X61757142Y30257143D01*
X61757142Y30257143D02*
X61757142Y30114286D01*
X61757142Y30114286D02*
X61709523Y30019048D01*
X61709523Y30019048D02*
X61661904Y29971429D01*
X61661904Y29971429D02*
X61566666Y29923810D01*
X61566666Y29923810D02*
X61185714Y29923810D01*
X62709523Y29447620D02*
X62138095Y29447620D01*
X62423809Y29447620D02*
X62423809Y30447620D01*
X62423809Y30447620D02*
X62328571Y30304762D01*
X62328571Y30304762D02*
X62233333Y30209524D01*
X62233333Y30209524D02*
X62138095Y30161905D01*
X63614285Y30447620D02*
X63138095Y30447620D01*
X63138095Y30447620D02*
X63090476Y29971429D01*
X63090476Y29971429D02*
X63138095Y30019048D01*
X63138095Y30019048D02*
X63233333Y30066667D01*
X63233333Y30066667D02*
X63471428Y30066667D01*
X63471428Y30066667D02*
X63566666Y30019048D01*
X63566666Y30019048D02*
X63614285Y29971429D01*
X63614285Y29971429D02*
X63661904Y29876191D01*
X63661904Y29876191D02*
X63661904Y29638096D01*
X63661904Y29638096D02*
X63614285Y29542858D01*
X63614285Y29542858D02*
X63566666Y29495239D01*
X63566666Y29495239D02*
X63471428Y29447620D01*
X63471428Y29447620D02*
X63233333Y29447620D01*
X63233333Y29447620D02*
X63138095Y29495239D01*
X63138095Y29495239D02*
X63090476Y29542858D01*
X62147619Y27671429D02*
X62814285Y27671429D01*
X62623809Y27671429D02*
X62719047Y27623810D01*
X62719047Y27623810D02*
X62766666Y27576191D01*
X62766666Y27576191D02*
X62814285Y27480953D01*
X62814285Y27480953D02*
X62814285Y27385715D01*
X28554761Y31802381D02*
X28459523Y31850000D01*
X28459523Y31850000D02*
X28364285Y31945239D01*
X28364285Y31945239D02*
X28221428Y32088096D01*
X28221428Y32088096D02*
X28126190Y32135715D01*
X28126190Y32135715D02*
X28030952Y32135715D01*
X28078571Y31897620D02*
X27983333Y31945239D01*
X27983333Y31945239D02*
X27888095Y32040477D01*
X27888095Y32040477D02*
X27840476Y32230953D01*
X27840476Y32230953D02*
X27840476Y32564286D01*
X27840476Y32564286D02*
X27888095Y32754762D01*
X27888095Y32754762D02*
X27983333Y32850000D01*
X27983333Y32850000D02*
X28078571Y32897620D01*
X28078571Y32897620D02*
X28269047Y32897620D01*
X28269047Y32897620D02*
X28364285Y32850000D01*
X28364285Y32850000D02*
X28459523Y32754762D01*
X28459523Y32754762D02*
X28507142Y32564286D01*
X28507142Y32564286D02*
X28507142Y32230953D01*
X28507142Y32230953D02*
X28459523Y32040477D01*
X28459523Y32040477D02*
X28364285Y31945239D01*
X28364285Y31945239D02*
X28269047Y31897620D01*
X28269047Y31897620D02*
X28078571Y31897620D01*
X29459523Y31897620D02*
X28888095Y31897620D01*
X29173809Y31897620D02*
X29173809Y32897620D01*
X29173809Y32897620D02*
X29078571Y32754762D01*
X29078571Y32754762D02*
X28983333Y32659524D01*
X28983333Y32659524D02*
X28888095Y32611905D01*
X15407142Y1747620D02*
X15073809Y2223810D01*
X14835714Y1747620D02*
X14835714Y2747620D01*
X14835714Y2747620D02*
X15216666Y2747620D01*
X15216666Y2747620D02*
X15311904Y2700000D01*
X15311904Y2700000D02*
X15359523Y2652381D01*
X15359523Y2652381D02*
X15407142Y2557143D01*
X15407142Y2557143D02*
X15407142Y2414286D01*
X15407142Y2414286D02*
X15359523Y2319048D01*
X15359523Y2319048D02*
X15311904Y2271429D01*
X15311904Y2271429D02*
X15216666Y2223810D01*
X15216666Y2223810D02*
X14835714Y2223810D01*
X16359523Y1747620D02*
X15788095Y1747620D01*
X16073809Y1747620D02*
X16073809Y2747620D01*
X16073809Y2747620D02*
X15978571Y2604762D01*
X15978571Y2604762D02*
X15883333Y2509524D01*
X15883333Y2509524D02*
X15788095Y2461905D01*
X16978571Y2747620D02*
X17073809Y2747620D01*
X17073809Y2747620D02*
X17169047Y2700000D01*
X17169047Y2700000D02*
X17216666Y2652381D01*
X17216666Y2652381D02*
X17264285Y2557143D01*
X17264285Y2557143D02*
X17311904Y2366667D01*
X17311904Y2366667D02*
X17311904Y2128572D01*
X17311904Y2128572D02*
X17264285Y1938096D01*
X17264285Y1938096D02*
X17216666Y1842858D01*
X17216666Y1842858D02*
X17169047Y1795239D01*
X17169047Y1795239D02*
X17073809Y1747620D01*
X17073809Y1747620D02*
X16978571Y1747620D01*
X16978571Y1747620D02*
X16883333Y1795239D01*
X16883333Y1795239D02*
X16835714Y1842858D01*
X16835714Y1842858D02*
X16788095Y1938096D01*
X16788095Y1938096D02*
X16740476Y2128572D01*
X16740476Y2128572D02*
X16740476Y2366667D01*
X16740476Y2366667D02*
X16788095Y2557143D01*
X16788095Y2557143D02*
X16835714Y2652381D01*
X16835714Y2652381D02*
X16883333Y2700000D01*
X16883333Y2700000D02*
X16978571Y2747620D01*
X15828571Y3647620D02*
X15828571Y4314286D01*
X15828571Y4123810D02*
X15876190Y4219048D01*
X15876190Y4219048D02*
X15923809Y4266667D01*
X15923809Y4266667D02*
X16019047Y4314286D01*
X16019047Y4314286D02*
X16114285Y4314286D01*
X64857142Y22997620D02*
X64523809Y23473810D01*
X64285714Y22997620D02*
X64285714Y23997620D01*
X64285714Y23997620D02*
X64666666Y23997620D01*
X64666666Y23997620D02*
X64761904Y23950000D01*
X64761904Y23950000D02*
X64809523Y23902381D01*
X64809523Y23902381D02*
X64857142Y23807143D01*
X64857142Y23807143D02*
X64857142Y23664286D01*
X64857142Y23664286D02*
X64809523Y23569048D01*
X64809523Y23569048D02*
X64761904Y23521429D01*
X64761904Y23521429D02*
X64666666Y23473810D01*
X64666666Y23473810D02*
X64285714Y23473810D01*
X65809523Y22997620D02*
X65238095Y22997620D01*
X65523809Y22997620D02*
X65523809Y23997620D01*
X65523809Y23997620D02*
X65428571Y23854762D01*
X65428571Y23854762D02*
X65333333Y23759524D01*
X65333333Y23759524D02*
X65238095Y23711905D01*
X66666666Y23997620D02*
X66476190Y23997620D01*
X66476190Y23997620D02*
X66380952Y23950000D01*
X66380952Y23950000D02*
X66333333Y23902381D01*
X66333333Y23902381D02*
X66238095Y23759524D01*
X66238095Y23759524D02*
X66190476Y23569048D01*
X66190476Y23569048D02*
X66190476Y23188096D01*
X66190476Y23188096D02*
X66238095Y23092858D01*
X66238095Y23092858D02*
X66285714Y23045239D01*
X66285714Y23045239D02*
X66380952Y22997620D01*
X66380952Y22997620D02*
X66571428Y22997620D01*
X66571428Y22997620D02*
X66666666Y23045239D01*
X66666666Y23045239D02*
X66714285Y23092858D01*
X66714285Y23092858D02*
X66761904Y23188096D01*
X66761904Y23188096D02*
X66761904Y23426191D01*
X66761904Y23426191D02*
X66714285Y23521429D01*
X66714285Y23521429D02*
X66666666Y23569048D01*
X66666666Y23569048D02*
X66571428Y23616667D01*
X66571428Y23616667D02*
X66380952Y23616667D01*
X66380952Y23616667D02*
X66285714Y23569048D01*
X66285714Y23569048D02*
X66238095Y23521429D01*
X66238095Y23521429D02*
X66190476Y23426191D01*
X64721428Y22152381D02*
X64721428Y21485715D01*
X64721428Y21676191D02*
X64673809Y21580953D01*
X64673809Y21580953D02*
X64626190Y21533334D01*
X64626190Y21533334D02*
X64530952Y21485715D01*
X64530952Y21485715D02*
X64435714Y21485715D01*
X57657142Y18342858D02*
X57609523Y18295239D01*
X57609523Y18295239D02*
X57466666Y18247620D01*
X57466666Y18247620D02*
X57371428Y18247620D01*
X57371428Y18247620D02*
X57228571Y18295239D01*
X57228571Y18295239D02*
X57133333Y18390477D01*
X57133333Y18390477D02*
X57085714Y18485715D01*
X57085714Y18485715D02*
X57038095Y18676191D01*
X57038095Y18676191D02*
X57038095Y18819048D01*
X57038095Y18819048D02*
X57085714Y19009524D01*
X57085714Y19009524D02*
X57133333Y19104762D01*
X57133333Y19104762D02*
X57228571Y19200000D01*
X57228571Y19200000D02*
X57371428Y19247620D01*
X57371428Y19247620D02*
X57466666Y19247620D01*
X57466666Y19247620D02*
X57609523Y19200000D01*
X57609523Y19200000D02*
X57657142Y19152381D01*
X58609523Y18247620D02*
X58038095Y18247620D01*
X58323809Y18247620D02*
X58323809Y19247620D01*
X58323809Y19247620D02*
X58228571Y19104762D01*
X58228571Y19104762D02*
X58133333Y19009524D01*
X58133333Y19009524D02*
X58038095Y18961905D01*
X59466666Y18914286D02*
X59466666Y18247620D01*
X59228571Y19295239D02*
X58990476Y18580953D01*
X58990476Y18580953D02*
X59609523Y18580953D01*
X62838095Y18445239D02*
X62742857Y18397620D01*
X62742857Y18397620D02*
X62552381Y18397620D01*
X62552381Y18397620D02*
X62457143Y18445239D01*
X62457143Y18445239D02*
X62409524Y18492858D01*
X62409524Y18492858D02*
X62361905Y18588096D01*
X62361905Y18588096D02*
X62361905Y18873810D01*
X62361905Y18873810D02*
X62409524Y18969048D01*
X62409524Y18969048D02*
X62457143Y19016667D01*
X62457143Y19016667D02*
X62552381Y19064286D01*
X62552381Y19064286D02*
X62742857Y19064286D01*
X62742857Y19064286D02*
X62838095Y19016667D01*
D11*
X58361252Y26440000D02*
X56938748Y26440000D01*
X58361252Y28260000D02*
X56938748Y28260000D01*
X49122936Y2585000D02*
X49577064Y2585000D01*
X49122936Y1115000D02*
X49577064Y1115000D01*
X69638748Y10385000D02*
X70161252Y10385000D01*
X69638748Y8915000D02*
X70161252Y8915000D01*
X31577064Y25165000D02*
X31122936Y25165000D01*
X31577064Y26635000D02*
X31122936Y26635000D01*
X14227064Y5865000D02*
X13772936Y5865000D01*
X14227064Y7335000D02*
X13772936Y7335000D01*
X11235000Y5761252D02*
X11235000Y5238748D01*
X9765000Y5761252D02*
X9765000Y5238748D01*
X63252064Y15140000D02*
X62047936Y15140000D01*
X63252064Y16960000D02*
X62047936Y16960000D01*
X63150000Y16050000D02*
X62850000Y15350000D01*
X62850000Y15350000D02*
X62450000Y16750000D01*
X62450000Y16750000D02*
X62150000Y16050000D01*
X500000Y32400000D02*
G75*
G03*
X500000Y32400000I-200000J0D01*
G01*
X63235000Y27727064D02*
X63235000Y27272936D01*
X61765000Y27727064D02*
X61765000Y27272936D01*
X15772936Y4735000D02*
X16227064Y4735000D01*
X15772936Y3265000D02*
X16227064Y3265000D01*
X64777064Y21065000D02*
X64322936Y21065000D01*
X64777064Y22535000D02*
X64322936Y22535000D01*
X61988748Y19660000D02*
X63411252Y19660000D01*
X61988748Y17840000D02*
X63411252Y17840000D01*
%LPC*%
D12*
X59212500Y27350000D03*
X56087500Y27350000D03*
D13*
X48350000Y1850000D03*
X50350000Y1850000D03*
D14*
X68862500Y9650000D03*
X70937500Y9650000D03*
D15*
X9050000Y10050000D03*
X11050000Y10050000D03*
X13050000Y10050000D03*
X15050000Y10050000D03*
X17050000Y10050000D03*
X19050000Y10050000D03*
X21050000Y10050000D03*
X23050000Y10050000D03*
D16*
X24550000Y13050000D03*
X24550000Y15050000D03*
X24550000Y17050000D03*
X24550000Y19050000D03*
X24550000Y21050000D03*
X24550000Y23050000D03*
D15*
X23050000Y26050000D03*
X21050000Y26050000D03*
X19050000Y26050000D03*
X17050000Y26050000D03*
X15050000Y26050000D03*
X13050000Y26050000D03*
X11050000Y26050000D03*
X9050000Y26050000D03*
D17*
X32350000Y25900000D03*
X30350000Y25900000D03*
X15000000Y6600000D03*
X13000000Y6600000D03*
D18*
X35899999Y28809999D03*
D19*
X35899999Y26269999D03*
X35899999Y23729999D03*
X35899999Y21189999D03*
X35899999Y18649999D03*
X35899999Y16109999D03*
X35899999Y13569999D03*
X35899999Y11029999D03*
X35899999Y8489999D03*
X35899999Y5949999D03*
D20*
X57000000Y2750000D03*
D21*
X10500000Y6537500D03*
X10500000Y4462500D03*
D22*
X71850000Y23600000D03*
X71850000Y26000000D03*
D23*
X60950000Y24350000D03*
X60000000Y24350000D03*
X59050000Y24350000D03*
X59050000Y21650000D03*
X60950000Y21650000D03*
D24*
X68600000Y14300000D03*
D25*
X68599999Y15499999D03*
D26*
X68600000Y16500000D03*
X68600000Y17500000D03*
X68600000Y18500000D03*
D24*
X68600000Y19700000D03*
D27*
X68799999Y12699999D03*
X68799999Y21299999D03*
X72599999Y12699999D03*
X72599999Y21299999D03*
D28*
X64137500Y16050000D03*
X61162500Y16050000D03*
D29*
X1700000Y32400000D03*
X4240000Y32400000D03*
X6780000Y32400000D03*
D30*
X62500000Y28500000D03*
X62500000Y26500000D03*
D31*
X30450000Y28300000D03*
X32350000Y28300000D03*
X31400000Y31300000D03*
D13*
X15000000Y4000000D03*
X17000000Y4000000D03*
D20*
X17000000Y31250000D03*
D17*
X65550000Y21800000D03*
X63550000Y21800000D03*
D32*
X61137500Y18750000D03*
X64262500Y18750000D03*
M02*
