G04 #@! TF.GenerationSoftware,KiCad,Pcbnew,6.99.0-unknown-455e330f3b~148~ubuntu20.04.1*
G04 #@! TF.CreationDate,2022-03-14T13:39:27+05:30*
G04 #@! TF.ProjectId,espc3-vario,65737063-332d-4766-9172-696f2e6b6963,rev?*
G04 #@! TF.SameCoordinates,PX55d4a80PY7270e00*
G04 #@! TF.FileFunction,Legend,Bot*
G04 #@! TF.FilePolarity,Positive*
%FSLAX46Y46*%
G04 Gerber Fmt 4.6, Leading zero omitted, Abs format (unit mm)*
G04 Created by KiCad (PCBNEW 6.99.0-unknown-455e330f3b~148~ubuntu20.04.1) date 2022-03-14 13:39:27*
%MOMM*%
%LPD*%
G01*
G04 APERTURE LIST*
G04 Aperture macros list*
%AMRoundRect*
0 Rectangle with rounded corners*
0 $1 Rounding radius*
0 $2 $3 $4 $5 $6 $7 $8 $9 X,Y pos of 4 corners*
0 Add a 4 corners polygon primitive as box body*
4,1,4,$2,$3,$4,$5,$6,$7,$8,$9,$2,$3,0*
0 Add four circle primitives for the rounded corners*
1,1,$1+$1,$2,$3*
1,1,$1+$1,$4,$5*
1,1,$1+$1,$6,$7*
1,1,$1+$1,$8,$9*
0 Add four rect primitives between the rounded corners*
20,1,$1+$1,$2,$3,$4,$5,0*
20,1,$1+$1,$4,$5,$6,$7,0*
20,1,$1+$1,$6,$7,$8,$9,0*
20,1,$1+$1,$8,$9,$2,$3,0*%
G04 Aperture macros list end*
%ADD10C,0.150000*%
%ADD11C,0.300000*%
%ADD12C,0.120000*%
%ADD13R,1.700000X1.700000*%
%ADD14O,1.700000X1.700000*%
%ADD15C,2.500000*%
%ADD16O,1.800000X1.000000*%
%ADD17RoundRect,0.300000X0.300000X-0.843000X0.300000X0.843000X-0.300000X0.843000X-0.300000X-0.843000X0*%
%ADD18RoundRect,0.300000X-0.300000X0.843000X-0.300000X-0.843000X0.300000X-0.843000X0.300000X0.843000X0*%
%ADD19RoundRect,0.250000X0.412500X0.650000X-0.412500X0.650000X-0.412500X-0.650000X0.412500X-0.650000X0*%
%ADD20R,1.000000X1.000000*%
%ADD21RoundRect,0.250000X0.450000X-0.325000X0.450000X0.325000X-0.450000X0.325000X-0.450000X-0.325000X0*%
%ADD22RoundRect,0.250000X-0.650000X0.412500X-0.650000X-0.412500X0.650000X-0.412500X0.650000X0.412500X0*%
%ADD23RoundRect,0.250000X-0.325000X-0.450000X0.325000X-0.450000X0.325000X0.450000X-0.325000X0.450000X0*%
%ADD24RoundRect,0.250000X0.650000X-0.412500X0.650000X0.412500X-0.650000X0.412500X-0.650000X-0.412500X0*%
%ADD25RoundRect,0.250000X-0.337500X-0.475000X0.337500X-0.475000X0.337500X0.475000X-0.337500X0.475000X0*%
%ADD26RoundRect,0.250000X-0.350000X-0.450000X0.350000X-0.450000X0.350000X0.450000X-0.350000X0.450000X0*%
%ADD27RoundRect,0.250000X0.450000X-0.350000X0.450000X0.350000X-0.450000X0.350000X-0.450000X-0.350000X0*%
%ADD28RoundRect,0.250000X0.337500X0.475000X-0.337500X0.475000X-0.337500X-0.475000X0.337500X-0.475000X0*%
%ADD29RoundRect,0.050000X-0.500000X-0.200000X0.500000X-0.200000X0.500000X0.200000X-0.500000X0.200000X0*%
%ADD30RoundRect,0.250000X-0.450000X0.350000X-0.450000X-0.350000X0.450000X-0.350000X0.450000X0.350000X0*%
%ADD31RoundRect,0.250000X-0.475000X0.337500X-0.475000X-0.337500X0.475000X-0.337500X0.475000X0.337500X0*%
%ADD32RoundRect,0.050000X-0.780000X-0.325000X0.780000X-0.325000X0.780000X0.325000X-0.780000X0.325000X0*%
%ADD33RoundRect,0.250000X0.350000X0.450000X-0.350000X0.450000X-0.350000X-0.450000X0.350000X-0.450000X0*%
%ADD34RoundRect,0.050000X-0.950000X-0.400000X0.950000X-0.400000X0.950000X0.400000X-0.950000X0.400000X0*%
%ADD35RoundRect,0.250000X-0.450000X0.325000X-0.450000X-0.325000X0.450000X-0.325000X0.450000X0.325000X0*%
%ADD36RoundRect,0.381000X-0.381000X0.762000X-0.381000X-0.762000X0.381000X-0.762000X0.381000X0.762000X0*%
G04 APERTURE END LIST*
D10*
X66300000Y3800000D02*
X67300000Y3800000D01*
X66800000Y6300000D02*
X63300000Y6300000D01*
X63800000Y6800000D02*
X63300000Y6300000D01*
X64661904Y17000000D02*
G75*
G03*
X64661904Y17000000I-11661904J0D01*
G01*
X63800000Y6300000D02*
X63800000Y5800000D01*
X67507107Y6300000D02*
G75*
G03*
X67507107Y6300000I-707107J0D01*
G01*
X66800000Y6300000D02*
X66800000Y3300000D01*
X63800000Y5800000D02*
X63300000Y6300000D01*
X66800000Y3300000D02*
X66300000Y3800000D01*
X67300000Y3800000D02*
X66800000Y3300000D01*
X63800000Y6300000D02*
X63800000Y6800000D01*
X54520691Y17000000D02*
G75*
G03*
X54520691Y17000000I-1520691J0D01*
G01*
X62752380Y6585714D02*
X61752380Y6585714D01*
X61752380Y6585714D02*
X62752380Y6014286D01*
X62752380Y6014286D02*
X61752380Y6014286D01*
X11147619Y647620D02*
X11480952Y1123810D01*
X11719047Y647620D02*
X11719047Y1647620D01*
X11719047Y1647620D02*
X11338095Y1647620D01*
X11338095Y1647620D02*
X11242857Y1600000D01*
X11242857Y1600000D02*
X11195238Y1552381D01*
X11195238Y1552381D02*
X11147619Y1457143D01*
X11147619Y1457143D02*
X11147619Y1314286D01*
X11147619Y1314286D02*
X11195238Y1219048D01*
X11195238Y1219048D02*
X11242857Y1171429D01*
X11242857Y1171429D02*
X11338095Y1123810D01*
X11338095Y1123810D02*
X11719047Y1123810D01*
X10766666Y695239D02*
X10623809Y647620D01*
X10623809Y647620D02*
X10385714Y647620D01*
X10385714Y647620D02*
X10290476Y695239D01*
X10290476Y695239D02*
X10242857Y742858D01*
X10242857Y742858D02*
X10195238Y838096D01*
X10195238Y838096D02*
X10195238Y933334D01*
X10195238Y933334D02*
X10242857Y1028572D01*
X10242857Y1028572D02*
X10290476Y1076191D01*
X10290476Y1076191D02*
X10385714Y1123810D01*
X10385714Y1123810D02*
X10576190Y1171429D01*
X10576190Y1171429D02*
X10671428Y1219048D01*
X10671428Y1219048D02*
X10719047Y1266667D01*
X10719047Y1266667D02*
X10766666Y1361905D01*
X10766666Y1361905D02*
X10766666Y1457143D01*
X10766666Y1457143D02*
X10719047Y1552381D01*
X10719047Y1552381D02*
X10671428Y1600000D01*
X10671428Y1600000D02*
X10576190Y1647620D01*
X10576190Y1647620D02*
X10338095Y1647620D01*
X10338095Y1647620D02*
X10195238Y1600000D01*
X9909523Y1647620D02*
X9338095Y1647620D01*
X9623809Y647620D02*
X9623809Y1647620D01*
X66728571Y2514286D02*
X66728571Y2180953D01*
X67252380Y2038096D02*
X67252380Y2514286D01*
X67252380Y2514286D02*
X66252380Y2514286D01*
X66252380Y2514286D02*
X66252380Y2038096D01*
X20011904Y19647620D02*
X20011904Y18838096D01*
X20011904Y18838096D02*
X19964285Y18742858D01*
X19964285Y18742858D02*
X19916666Y18695239D01*
X19916666Y18695239D02*
X19821428Y18647620D01*
X19821428Y18647620D02*
X19630952Y18647620D01*
X19630952Y18647620D02*
X19535714Y18695239D01*
X19535714Y18695239D02*
X19488095Y18742858D01*
X19488095Y18742858D02*
X19440476Y18838096D01*
X19440476Y18838096D02*
X19440476Y19647620D01*
X19059523Y19647620D02*
X18440476Y19647620D01*
X18440476Y19647620D02*
X18773809Y19266667D01*
X18773809Y19266667D02*
X18630952Y19266667D01*
X18630952Y19266667D02*
X18535714Y19219048D01*
X18535714Y19219048D02*
X18488095Y19171429D01*
X18488095Y19171429D02*
X18440476Y19076191D01*
X18440476Y19076191D02*
X18440476Y18838096D01*
X18440476Y18838096D02*
X18488095Y18742858D01*
X18488095Y18742858D02*
X18535714Y18695239D01*
X18535714Y18695239D02*
X18630952Y18647620D01*
X18630952Y18647620D02*
X18916666Y18647620D01*
X18916666Y18647620D02*
X19011904Y18695239D01*
X19011904Y18695239D02*
X19059523Y18742858D01*
X6052380Y25128572D02*
X5576190Y25461905D01*
X6052380Y25700000D02*
X5052380Y25700000D01*
X5052380Y25700000D02*
X5052380Y25319048D01*
X5052380Y25319048D02*
X5100000Y25223810D01*
X5100000Y25223810D02*
X5147619Y25176191D01*
X5147619Y25176191D02*
X5242857Y25128572D01*
X5242857Y25128572D02*
X5385714Y25128572D01*
X5385714Y25128572D02*
X5480952Y25176191D01*
X5480952Y25176191D02*
X5528571Y25223810D01*
X5528571Y25223810D02*
X5576190Y25319048D01*
X5576190Y25319048D02*
X5576190Y25700000D01*
X6004761Y24319048D02*
X6052380Y24414286D01*
X6052380Y24414286D02*
X6052380Y24604762D01*
X6052380Y24604762D02*
X6004761Y24700000D01*
X6004761Y24700000D02*
X5909523Y24747619D01*
X5909523Y24747619D02*
X5528571Y24747619D01*
X5528571Y24747619D02*
X5433333Y24700000D01*
X5433333Y24700000D02*
X5385714Y24604762D01*
X5385714Y24604762D02*
X5385714Y24414286D01*
X5385714Y24414286D02*
X5433333Y24319048D01*
X5433333Y24319048D02*
X5528571Y24271429D01*
X5528571Y24271429D02*
X5623809Y24271429D01*
X5623809Y24271429D02*
X5719047Y24747619D01*
X5385714Y23938095D02*
X6052380Y23700000D01*
X6052380Y23700000D02*
X5385714Y23461905D01*
X5766666Y22528571D02*
X5766666Y22052381D01*
X6052380Y22623809D02*
X5052380Y22290476D01*
X5052380Y22290476D02*
X6052380Y21957143D01*
X32033332Y31397620D02*
X32033332Y32397620D01*
X32033332Y32397620D02*
X31652380Y32397620D01*
X31652380Y32397620D02*
X31557142Y32350000D01*
X31557142Y32350000D02*
X31509523Y32302381D01*
X31509523Y32302381D02*
X31461904Y32207143D01*
X31461904Y32207143D02*
X31461904Y32064286D01*
X31461904Y32064286D02*
X31509523Y31969048D01*
X31509523Y31969048D02*
X31557142Y31921429D01*
X31557142Y31921429D02*
X31652380Y31873810D01*
X31652380Y31873810D02*
X32033332Y31873810D01*
X31128570Y32397620D02*
X30890475Y31397620D01*
X30890475Y31397620D02*
X30699999Y32111905D01*
X30699999Y32111905D02*
X30509523Y31397620D01*
X30509523Y31397620D02*
X30271428Y32397620D01*
X29319047Y31397620D02*
X29652380Y31873810D01*
X29890475Y31397620D02*
X29890475Y32397620D01*
X29890475Y32397620D02*
X29509523Y32397620D01*
X29509523Y32397620D02*
X29414285Y32350000D01*
X29414285Y32350000D02*
X29366666Y32302381D01*
X29366666Y32302381D02*
X29319047Y32207143D01*
X29319047Y32207143D02*
X29319047Y32064286D01*
X29319047Y32064286D02*
X29366666Y31969048D01*
X29366666Y31969048D02*
X29414285Y31921429D01*
X29414285Y31921429D02*
X29509523Y31873810D01*
X29509523Y31873810D02*
X29890475Y31873810D01*
D11*
X1754761Y29850000D02*
X3754761Y29250000D01*
X3754761Y29250000D02*
X1754761Y28650000D01*
X3754761Y28050000D02*
X1754761Y28050000D01*
X3754761Y27278571D02*
X2707142Y27278571D01*
X2707142Y27278571D02*
X2516666Y27364286D01*
X2516666Y27364286D02*
X2421428Y27535714D01*
X2421428Y27535714D02*
X2421428Y27792857D01*
X2421428Y27792857D02*
X2516666Y27964286D01*
X2516666Y27964286D02*
X2611904Y28050000D01*
X3183333Y26507143D02*
X3183333Y25650000D01*
X3754761Y26678572D02*
X1754761Y26078572D01*
X1754761Y26078572D02*
X3754761Y25478572D01*
X3754761Y23850001D02*
X2802380Y24450001D01*
X3754761Y24878572D02*
X1754761Y24878572D01*
X1754761Y24878572D02*
X1754761Y24192858D01*
X1754761Y24192858D02*
X1850000Y24021429D01*
X1850000Y24021429D02*
X1945238Y23935715D01*
X1945238Y23935715D02*
X2135714Y23850001D01*
X2135714Y23850001D02*
X2421428Y23850001D01*
X2421428Y23850001D02*
X2611904Y23935715D01*
X2611904Y23935715D02*
X2707142Y24021429D01*
X2707142Y24021429D02*
X2802380Y24192858D01*
X2802380Y24192858D02*
X2802380Y24878572D01*
X3754761Y23078572D02*
X1754761Y23078572D01*
X1754761Y21878572D02*
X1754761Y21535715D01*
X1754761Y21535715D02*
X1850000Y21364286D01*
X1850000Y21364286D02*
X2040476Y21192858D01*
X2040476Y21192858D02*
X2421428Y21107143D01*
X2421428Y21107143D02*
X3088095Y21107143D01*
X3088095Y21107143D02*
X3469047Y21192858D01*
X3469047Y21192858D02*
X3659523Y21364286D01*
X3659523Y21364286D02*
X3754761Y21535715D01*
X3754761Y21535715D02*
X3754761Y21878572D01*
X3754761Y21878572D02*
X3659523Y22050000D01*
X3659523Y22050000D02*
X3469047Y22221429D01*
X3469047Y22221429D02*
X3088095Y22307143D01*
X3088095Y22307143D02*
X2421428Y22307143D01*
X2421428Y22307143D02*
X2040476Y22221429D01*
X2040476Y22221429D02*
X1850000Y22050000D01*
X1850000Y22050000D02*
X1754761Y21878572D01*
X2992857Y20335715D02*
X2992857Y18964286D01*
X2707142Y18107144D02*
X2707142Y17507144D01*
X3754761Y17250001D02*
X3754761Y18107144D01*
X3754761Y18107144D02*
X1754761Y18107144D01*
X1754761Y18107144D02*
X1754761Y17250001D01*
X3659523Y16564287D02*
X3754761Y16307144D01*
X3754761Y16307144D02*
X3754761Y15878573D01*
X3754761Y15878573D02*
X3659523Y15707144D01*
X3659523Y15707144D02*
X3564285Y15621430D01*
X3564285Y15621430D02*
X3373809Y15535716D01*
X3373809Y15535716D02*
X3183333Y15535716D01*
X3183333Y15535716D02*
X2992857Y15621430D01*
X2992857Y15621430D02*
X2897619Y15707144D01*
X2897619Y15707144D02*
X2802380Y15878573D01*
X2802380Y15878573D02*
X2707142Y16221430D01*
X2707142Y16221430D02*
X2611904Y16392859D01*
X2611904Y16392859D02*
X2516666Y16478573D01*
X2516666Y16478573D02*
X2326190Y16564287D01*
X2326190Y16564287D02*
X2135714Y16564287D01*
X2135714Y16564287D02*
X1945238Y16478573D01*
X1945238Y16478573D02*
X1850000Y16392859D01*
X1850000Y16392859D02*
X1754761Y16221430D01*
X1754761Y16221430D02*
X1754761Y15792859D01*
X1754761Y15792859D02*
X1850000Y15535716D01*
X3754761Y14764287D02*
X1754761Y14764287D01*
X1754761Y14764287D02*
X1754761Y14078573D01*
X1754761Y14078573D02*
X1850000Y13907144D01*
X1850000Y13907144D02*
X1945238Y13821430D01*
X1945238Y13821430D02*
X2135714Y13735716D01*
X2135714Y13735716D02*
X2421428Y13735716D01*
X2421428Y13735716D02*
X2611904Y13821430D01*
X2611904Y13821430D02*
X2707142Y13907144D01*
X2707142Y13907144D02*
X2802380Y14078573D01*
X2802380Y14078573D02*
X2802380Y14764287D01*
X3564285Y11935716D02*
X3659523Y12021430D01*
X3659523Y12021430D02*
X3754761Y12278573D01*
X3754761Y12278573D02*
X3754761Y12450001D01*
X3754761Y12450001D02*
X3659523Y12707144D01*
X3659523Y12707144D02*
X3469047Y12878573D01*
X3469047Y12878573D02*
X3278571Y12964287D01*
X3278571Y12964287D02*
X2897619Y13050001D01*
X2897619Y13050001D02*
X2611904Y13050001D01*
X2611904Y13050001D02*
X2230952Y12964287D01*
X2230952Y12964287D02*
X2040476Y12878573D01*
X2040476Y12878573D02*
X1850000Y12707144D01*
X1850000Y12707144D02*
X1754761Y12450001D01*
X1754761Y12450001D02*
X1754761Y12278573D01*
X1754761Y12278573D02*
X1850000Y12021430D01*
X1850000Y12021430D02*
X1945238Y11935716D01*
X1754761Y11335716D02*
X1754761Y10221430D01*
X1754761Y10221430D02*
X2516666Y10821430D01*
X2516666Y10821430D02*
X2516666Y10564287D01*
X2516666Y10564287D02*
X2611904Y10392858D01*
X2611904Y10392858D02*
X2707142Y10307144D01*
X2707142Y10307144D02*
X2897619Y10221430D01*
X2897619Y10221430D02*
X3373809Y10221430D01*
X3373809Y10221430D02*
X3564285Y10307144D01*
X3564285Y10307144D02*
X3659523Y10392858D01*
X3659523Y10392858D02*
X3754761Y10564287D01*
X3754761Y10564287D02*
X3754761Y11078573D01*
X3754761Y11078573D02*
X3659523Y11250001D01*
X3659523Y11250001D02*
X3564285Y11335716D01*
D10*
X67352380Y8261905D02*
X66352380Y8261905D01*
X66352380Y8261905D02*
X66352380Y8023810D01*
X66352380Y8023810D02*
X66400000Y7880953D01*
X66400000Y7880953D02*
X66495238Y7785715D01*
X66495238Y7785715D02*
X66590476Y7738096D01*
X66590476Y7738096D02*
X66780952Y7690477D01*
X66780952Y7690477D02*
X66923809Y7690477D01*
X66923809Y7690477D02*
X67114285Y7738096D01*
X67114285Y7738096D02*
X67209523Y7785715D01*
X67209523Y7785715D02*
X67304761Y7880953D01*
X67304761Y7880953D02*
X67352380Y8023810D01*
X67352380Y8023810D02*
X67352380Y8261905D01*
X31761904Y1197620D02*
X31761904Y2197620D01*
X31761904Y2197620D02*
X31380952Y2197620D01*
X31380952Y2197620D02*
X31285714Y2150000D01*
X31285714Y2150000D02*
X31238095Y2102381D01*
X31238095Y2102381D02*
X31190476Y2007143D01*
X31190476Y2007143D02*
X31190476Y1864286D01*
X31190476Y1864286D02*
X31238095Y1769048D01*
X31238095Y1769048D02*
X31285714Y1721429D01*
X31285714Y1721429D02*
X31380952Y1673810D01*
X31380952Y1673810D02*
X31761904Y1673810D01*
X30190476Y1292858D02*
X30238095Y1245239D01*
X30238095Y1245239D02*
X30380952Y1197620D01*
X30380952Y1197620D02*
X30476190Y1197620D01*
X30476190Y1197620D02*
X30619047Y1245239D01*
X30619047Y1245239D02*
X30714285Y1340477D01*
X30714285Y1340477D02*
X30761904Y1435715D01*
X30761904Y1435715D02*
X30809523Y1626191D01*
X30809523Y1626191D02*
X30809523Y1769048D01*
X30809523Y1769048D02*
X30761904Y1959524D01*
X30761904Y1959524D02*
X30714285Y2054762D01*
X30714285Y2054762D02*
X30619047Y2150000D01*
X30619047Y2150000D02*
X30476190Y2197620D01*
X30476190Y2197620D02*
X30380952Y2197620D01*
X30380952Y2197620D02*
X30238095Y2150000D01*
X30238095Y2150000D02*
X30190476Y2102381D01*
X29190476Y1292858D02*
X29238095Y1245239D01*
X29238095Y1245239D02*
X29380952Y1197620D01*
X29380952Y1197620D02*
X29476190Y1197620D01*
X29476190Y1197620D02*
X29619047Y1245239D01*
X29619047Y1245239D02*
X29714285Y1340477D01*
X29714285Y1340477D02*
X29761904Y1435715D01*
X29761904Y1435715D02*
X29809523Y1626191D01*
X29809523Y1626191D02*
X29809523Y1769048D01*
X29809523Y1769048D02*
X29761904Y1959524D01*
X29761904Y1959524D02*
X29714285Y2054762D01*
X29714285Y2054762D02*
X29619047Y2150000D01*
X29619047Y2150000D02*
X29476190Y2197620D01*
X29476190Y2197620D02*
X29380952Y2197620D01*
X29380952Y2197620D02*
X29238095Y2150000D01*
X29238095Y2150000D02*
X29190476Y2102381D01*
X26066666Y15692858D02*
X26114285Y15645239D01*
X26114285Y15645239D02*
X26257142Y15597620D01*
X26257142Y15597620D02*
X26352380Y15597620D01*
X26352380Y15597620D02*
X26495237Y15645239D01*
X26495237Y15645239D02*
X26590475Y15740477D01*
X26590475Y15740477D02*
X26638094Y15835715D01*
X26638094Y15835715D02*
X26685713Y16026191D01*
X26685713Y16026191D02*
X26685713Y16169048D01*
X26685713Y16169048D02*
X26638094Y16359524D01*
X26638094Y16359524D02*
X26590475Y16454762D01*
X26590475Y16454762D02*
X26495237Y16550000D01*
X26495237Y16550000D02*
X26352380Y16597620D01*
X26352380Y16597620D02*
X26257142Y16597620D01*
X26257142Y16597620D02*
X26114285Y16550000D01*
X26114285Y16550000D02*
X26066666Y16502381D01*
X25209523Y16597620D02*
X25399999Y16597620D01*
X25399999Y16597620D02*
X25495237Y16550000D01*
X25495237Y16550000D02*
X25542856Y16502381D01*
X25542856Y16502381D02*
X25638094Y16359524D01*
X25638094Y16359524D02*
X25685713Y16169048D01*
X25685713Y16169048D02*
X25685713Y15788096D01*
X25685713Y15788096D02*
X25638094Y15692858D01*
X25638094Y15692858D02*
X25590475Y15645239D01*
X25590475Y15645239D02*
X25495237Y15597620D01*
X25495237Y15597620D02*
X25304761Y15597620D01*
X25304761Y15597620D02*
X25209523Y15645239D01*
X25209523Y15645239D02*
X25161904Y15692858D01*
X25161904Y15692858D02*
X25114285Y15788096D01*
X25114285Y15788096D02*
X25114285Y16026191D01*
X25114285Y16026191D02*
X25161904Y16121429D01*
X25161904Y16121429D02*
X25209523Y16169048D01*
X25209523Y16169048D02*
X25304761Y16216667D01*
X25304761Y16216667D02*
X25495237Y16216667D01*
X25495237Y16216667D02*
X25590475Y16169048D01*
X25590475Y16169048D02*
X25638094Y16121429D01*
X25638094Y16121429D02*
X25685713Y16026191D01*
X22261904Y15695239D02*
X22357142Y15647620D01*
X22357142Y15647620D02*
X22547618Y15647620D01*
X22547618Y15647620D02*
X22642856Y15695239D01*
X22642856Y15695239D02*
X22690475Y15742858D01*
X22690475Y15742858D02*
X22738094Y15838096D01*
X22738094Y15838096D02*
X22738094Y16123810D01*
X22738094Y16123810D02*
X22690475Y16219048D01*
X22690475Y16219048D02*
X22642856Y16266667D01*
X22642856Y16266667D02*
X22547618Y16314286D01*
X22547618Y16314286D02*
X22357142Y16314286D01*
X22357142Y16314286D02*
X22261904Y16266667D01*
X21888094Y23647620D02*
X21888094Y24647620D01*
X21888094Y24647620D02*
X21649999Y24647620D01*
X21649999Y24647620D02*
X21507142Y24600000D01*
X21507142Y24600000D02*
X21411904Y24504762D01*
X21411904Y24504762D02*
X21364285Y24409524D01*
X21364285Y24409524D02*
X21316666Y24219048D01*
X21316666Y24219048D02*
X21316666Y24076191D01*
X21316666Y24076191D02*
X21364285Y23885715D01*
X21364285Y23885715D02*
X21411904Y23790477D01*
X21411904Y23790477D02*
X21507142Y23695239D01*
X21507142Y23695239D02*
X21649999Y23647620D01*
X21649999Y23647620D02*
X21888094Y23647620D01*
X20364285Y23647620D02*
X20935713Y23647620D01*
X20649999Y23647620D02*
X20649999Y24647620D01*
X20649999Y24647620D02*
X20745237Y24504762D01*
X20745237Y24504762D02*
X20840475Y24409524D01*
X20840475Y24409524D02*
X20935713Y24361905D01*
X40766666Y22397620D02*
X41242856Y22397620D01*
X41242856Y22397620D02*
X41242856Y23397620D01*
X40480951Y23302381D02*
X40433332Y23350000D01*
X40433332Y23350000D02*
X40338094Y23397620D01*
X40338094Y23397620D02*
X40099999Y23397620D01*
X40099999Y23397620D02*
X40004761Y23350000D01*
X40004761Y23350000D02*
X39957142Y23302381D01*
X39957142Y23302381D02*
X39909523Y23207143D01*
X39909523Y23207143D02*
X39909523Y23111905D01*
X39909523Y23111905D02*
X39957142Y22969048D01*
X39957142Y22969048D02*
X40528570Y22397620D01*
X40528570Y22397620D02*
X39909523Y22397620D01*
X26042857Y12442858D02*
X26090476Y12395239D01*
X26090476Y12395239D02*
X26233333Y12347620D01*
X26233333Y12347620D02*
X26328571Y12347620D01*
X26328571Y12347620D02*
X26471428Y12395239D01*
X26471428Y12395239D02*
X26566666Y12490477D01*
X26566666Y12490477D02*
X26614285Y12585715D01*
X26614285Y12585715D02*
X26661904Y12776191D01*
X26661904Y12776191D02*
X26661904Y12919048D01*
X26661904Y12919048D02*
X26614285Y13109524D01*
X26614285Y13109524D02*
X26566666Y13204762D01*
X26566666Y13204762D02*
X26471428Y13300000D01*
X26471428Y13300000D02*
X26328571Y13347620D01*
X26328571Y13347620D02*
X26233333Y13347620D01*
X26233333Y13347620D02*
X26090476Y13300000D01*
X26090476Y13300000D02*
X26042857Y13252381D01*
X25090476Y12347620D02*
X25661904Y12347620D01*
X25376190Y12347620D02*
X25376190Y13347620D01*
X25376190Y13347620D02*
X25471428Y13204762D01*
X25471428Y13204762D02*
X25566666Y13109524D01*
X25566666Y13109524D02*
X25661904Y13061905D01*
X24138095Y12347620D02*
X24709523Y12347620D01*
X24423809Y12347620D02*
X24423809Y13347620D01*
X24423809Y13347620D02*
X24519047Y13204762D01*
X24519047Y13204762D02*
X24614285Y13109524D01*
X24614285Y13109524D02*
X24709523Y13061905D01*
X21311904Y12695239D02*
X21407142Y12647620D01*
X21407142Y12647620D02*
X21597618Y12647620D01*
X21597618Y12647620D02*
X21692856Y12695239D01*
X21692856Y12695239D02*
X21740475Y12742858D01*
X21740475Y12742858D02*
X21788094Y12838096D01*
X21788094Y12838096D02*
X21788094Y13123810D01*
X21788094Y13123810D02*
X21740475Y13219048D01*
X21740475Y13219048D02*
X21692856Y13266667D01*
X21692856Y13266667D02*
X21597618Y13314286D01*
X21597618Y13314286D02*
X21407142Y13314286D01*
X21407142Y13314286D02*
X21311904Y13266667D01*
X23266666Y2092858D02*
X23314285Y2045239D01*
X23314285Y2045239D02*
X23457142Y1997620D01*
X23457142Y1997620D02*
X23552380Y1997620D01*
X23552380Y1997620D02*
X23695237Y2045239D01*
X23695237Y2045239D02*
X23790475Y2140477D01*
X23790475Y2140477D02*
X23838094Y2235715D01*
X23838094Y2235715D02*
X23885713Y2426191D01*
X23885713Y2426191D02*
X23885713Y2569048D01*
X23885713Y2569048D02*
X23838094Y2759524D01*
X23838094Y2759524D02*
X23790475Y2854762D01*
X23790475Y2854762D02*
X23695237Y2950000D01*
X23695237Y2950000D02*
X23552380Y2997620D01*
X23552380Y2997620D02*
X23457142Y2997620D01*
X23457142Y2997620D02*
X23314285Y2950000D01*
X23314285Y2950000D02*
X23266666Y2902381D01*
X22361904Y2997620D02*
X22838094Y2997620D01*
X22838094Y2997620D02*
X22885713Y2521429D01*
X22885713Y2521429D02*
X22838094Y2569048D01*
X22838094Y2569048D02*
X22742856Y2616667D01*
X22742856Y2616667D02*
X22504761Y2616667D01*
X22504761Y2616667D02*
X22409523Y2569048D01*
X22409523Y2569048D02*
X22361904Y2521429D01*
X22361904Y2521429D02*
X22314285Y2426191D01*
X22314285Y2426191D02*
X22314285Y2188096D01*
X22314285Y2188096D02*
X22361904Y2092858D01*
X22361904Y2092858D02*
X22409523Y2045239D01*
X22409523Y2045239D02*
X22504761Y1997620D01*
X22504761Y1997620D02*
X22742856Y1997620D01*
X22742856Y1997620D02*
X22838094Y2045239D01*
X22838094Y2045239D02*
X22885713Y2092858D01*
X23304761Y5861905D02*
X23352380Y5957143D01*
X23352380Y5957143D02*
X23352380Y6147619D01*
X23352380Y6147619D02*
X23304761Y6242857D01*
X23304761Y6242857D02*
X23257142Y6290476D01*
X23257142Y6290476D02*
X23161904Y6338095D01*
X23161904Y6338095D02*
X22876190Y6338095D01*
X22876190Y6338095D02*
X22780952Y6290476D01*
X22780952Y6290476D02*
X22733333Y6242857D01*
X22733333Y6242857D02*
X22685714Y6147619D01*
X22685714Y6147619D02*
X22685714Y5957143D01*
X22685714Y5957143D02*
X22733333Y5861905D01*
X42116666Y26397620D02*
X42592856Y26397620D01*
X42592856Y26397620D02*
X42592856Y27397620D01*
X41259523Y26397620D02*
X41830951Y26397620D01*
X41545237Y26397620D02*
X41545237Y27397620D01*
X41545237Y27397620D02*
X41640475Y27254762D01*
X41640475Y27254762D02*
X41735713Y27159524D01*
X41735713Y27159524D02*
X41830951Y27111905D01*
X14966666Y22242858D02*
X15014285Y22195239D01*
X15014285Y22195239D02*
X15157142Y22147620D01*
X15157142Y22147620D02*
X15252380Y22147620D01*
X15252380Y22147620D02*
X15395237Y22195239D01*
X15395237Y22195239D02*
X15490475Y22290477D01*
X15490475Y22290477D02*
X15538094Y22385715D01*
X15538094Y22385715D02*
X15585713Y22576191D01*
X15585713Y22576191D02*
X15585713Y22719048D01*
X15585713Y22719048D02*
X15538094Y22909524D01*
X15538094Y22909524D02*
X15490475Y23004762D01*
X15490475Y23004762D02*
X15395237Y23100000D01*
X15395237Y23100000D02*
X15252380Y23147620D01*
X15252380Y23147620D02*
X15157142Y23147620D01*
X15157142Y23147620D02*
X15014285Y23100000D01*
X15014285Y23100000D02*
X14966666Y23052381D01*
X14490475Y22147620D02*
X14299999Y22147620D01*
X14299999Y22147620D02*
X14204761Y22195239D01*
X14204761Y22195239D02*
X14157142Y22242858D01*
X14157142Y22242858D02*
X14061904Y22385715D01*
X14061904Y22385715D02*
X14014285Y22576191D01*
X14014285Y22576191D02*
X14014285Y22957143D01*
X14014285Y22957143D02*
X14061904Y23052381D01*
X14061904Y23052381D02*
X14109523Y23100000D01*
X14109523Y23100000D02*
X14204761Y23147620D01*
X14204761Y23147620D02*
X14395237Y23147620D01*
X14395237Y23147620D02*
X14490475Y23100000D01*
X14490475Y23100000D02*
X14538094Y23052381D01*
X14538094Y23052381D02*
X14585713Y22957143D01*
X14585713Y22957143D02*
X14585713Y22719048D01*
X14585713Y22719048D02*
X14538094Y22623810D01*
X14538094Y22623810D02*
X14490475Y22576191D01*
X14490475Y22576191D02*
X14395237Y22528572D01*
X14395237Y22528572D02*
X14204761Y22528572D01*
X14204761Y22528572D02*
X14109523Y22576191D01*
X14109523Y22576191D02*
X14061904Y22623810D01*
X14061904Y22623810D02*
X14014285Y22719048D01*
X16795238Y21488096D02*
X16747619Y21392858D01*
X16747619Y21392858D02*
X16747619Y21202382D01*
X16747619Y21202382D02*
X16795238Y21107144D01*
X16795238Y21107144D02*
X16842857Y21059525D01*
X16842857Y21059525D02*
X16938095Y21011906D01*
X16938095Y21011906D02*
X17223809Y21011906D01*
X17223809Y21011906D02*
X17319047Y21059525D01*
X17319047Y21059525D02*
X17366666Y21107144D01*
X17366666Y21107144D02*
X17414285Y21202382D01*
X17414285Y21202382D02*
X17414285Y21392858D01*
X17414285Y21392858D02*
X17366666Y21488096D01*
X30166666Y15042858D02*
X30214285Y14995239D01*
X30214285Y14995239D02*
X30357142Y14947620D01*
X30357142Y14947620D02*
X30452380Y14947620D01*
X30452380Y14947620D02*
X30595237Y14995239D01*
X30595237Y14995239D02*
X30690475Y15090477D01*
X30690475Y15090477D02*
X30738094Y15185715D01*
X30738094Y15185715D02*
X30785713Y15376191D01*
X30785713Y15376191D02*
X30785713Y15519048D01*
X30785713Y15519048D02*
X30738094Y15709524D01*
X30738094Y15709524D02*
X30690475Y15804762D01*
X30690475Y15804762D02*
X30595237Y15900000D01*
X30595237Y15900000D02*
X30452380Y15947620D01*
X30452380Y15947620D02*
X30357142Y15947620D01*
X30357142Y15947620D02*
X30214285Y15900000D01*
X30214285Y15900000D02*
X30166666Y15852381D01*
X29309523Y15614286D02*
X29309523Y14947620D01*
X29547618Y15995239D02*
X29785713Y15280953D01*
X29785713Y15280953D02*
X29166666Y15280953D01*
X29738095Y13954762D02*
X29642857Y14002381D01*
X29642857Y14002381D02*
X29452381Y14002381D01*
X29452381Y14002381D02*
X29357143Y13954762D01*
X29357143Y13954762D02*
X29309524Y13907143D01*
X29309524Y13907143D02*
X29261905Y13811905D01*
X29261905Y13811905D02*
X29261905Y13526191D01*
X29261905Y13526191D02*
X29309524Y13430953D01*
X29309524Y13430953D02*
X29357143Y13383334D01*
X29357143Y13383334D02*
X29452381Y13335715D01*
X29452381Y13335715D02*
X29642857Y13335715D01*
X29642857Y13335715D02*
X29738095Y13383334D01*
X72142857Y13797620D02*
X72476190Y14273810D01*
X72714285Y13797620D02*
X72714285Y14797620D01*
X72714285Y14797620D02*
X72333333Y14797620D01*
X72333333Y14797620D02*
X72238095Y14750000D01*
X72238095Y14750000D02*
X72190476Y14702381D01*
X72190476Y14702381D02*
X72142857Y14607143D01*
X72142857Y14607143D02*
X72142857Y14464286D01*
X72142857Y14464286D02*
X72190476Y14369048D01*
X72190476Y14369048D02*
X72238095Y14321429D01*
X72238095Y14321429D02*
X72333333Y14273810D01*
X72333333Y14273810D02*
X72714285Y14273810D01*
X71190476Y13797620D02*
X71761904Y13797620D01*
X71476190Y13797620D02*
X71476190Y14797620D01*
X71476190Y14797620D02*
X71571428Y14654762D01*
X71571428Y14654762D02*
X71666666Y14559524D01*
X71666666Y14559524D02*
X71761904Y14511905D01*
X70238095Y13797620D02*
X70809523Y13797620D01*
X70523809Y13797620D02*
X70523809Y14797620D01*
X70523809Y14797620D02*
X70619047Y14654762D01*
X70619047Y14654762D02*
X70714285Y14559524D01*
X70714285Y14559524D02*
X70809523Y14511905D01*
X71328571Y16252381D02*
X71328571Y15585715D01*
X71328571Y15776191D02*
X71376190Y15680953D01*
X71376190Y15680953D02*
X71423809Y15633334D01*
X71423809Y15633334D02*
X71519047Y15585715D01*
X71519047Y15585715D02*
X71614285Y15585715D01*
X27366666Y20997620D02*
X27699999Y21473810D01*
X27938094Y20997620D02*
X27938094Y21997620D01*
X27938094Y21997620D02*
X27557142Y21997620D01*
X27557142Y21997620D02*
X27461904Y21950000D01*
X27461904Y21950000D02*
X27414285Y21902381D01*
X27414285Y21902381D02*
X27366666Y21807143D01*
X27366666Y21807143D02*
X27366666Y21664286D01*
X27366666Y21664286D02*
X27414285Y21569048D01*
X27414285Y21569048D02*
X27461904Y21521429D01*
X27461904Y21521429D02*
X27557142Y21473810D01*
X27557142Y21473810D02*
X27938094Y21473810D01*
X26890475Y20997620D02*
X26699999Y20997620D01*
X26699999Y20997620D02*
X26604761Y21045239D01*
X26604761Y21045239D02*
X26557142Y21092858D01*
X26557142Y21092858D02*
X26461904Y21235715D01*
X26461904Y21235715D02*
X26414285Y21426191D01*
X26414285Y21426191D02*
X26414285Y21807143D01*
X26414285Y21807143D02*
X26461904Y21902381D01*
X26461904Y21902381D02*
X26509523Y21950000D01*
X26509523Y21950000D02*
X26604761Y21997620D01*
X26604761Y21997620D02*
X26795237Y21997620D01*
X26795237Y21997620D02*
X26890475Y21950000D01*
X26890475Y21950000D02*
X26938094Y21902381D01*
X26938094Y21902381D02*
X26985713Y21807143D01*
X26985713Y21807143D02*
X26985713Y21569048D01*
X26985713Y21569048D02*
X26938094Y21473810D01*
X26938094Y21473810D02*
X26890475Y21426191D01*
X26890475Y21426191D02*
X26795237Y21378572D01*
X26795237Y21378572D02*
X26604761Y21378572D01*
X26604761Y21378572D02*
X26509523Y21426191D01*
X26509523Y21426191D02*
X26461904Y21473810D01*
X26461904Y21473810D02*
X26414285Y21569048D01*
X26997619Y18828572D02*
X27664285Y18828572D01*
X27473809Y18828572D02*
X27569047Y18876191D01*
X27569047Y18876191D02*
X27616666Y18923810D01*
X27616666Y18923810D02*
X27664285Y19019048D01*
X27664285Y19019048D02*
X27664285Y19114286D01*
X33366666Y11597620D02*
X33699999Y12073810D01*
X33938094Y11597620D02*
X33938094Y12597620D01*
X33938094Y12597620D02*
X33557142Y12597620D01*
X33557142Y12597620D02*
X33461904Y12550000D01*
X33461904Y12550000D02*
X33414285Y12502381D01*
X33414285Y12502381D02*
X33366666Y12407143D01*
X33366666Y12407143D02*
X33366666Y12264286D01*
X33366666Y12264286D02*
X33414285Y12169048D01*
X33414285Y12169048D02*
X33461904Y12121429D01*
X33461904Y12121429D02*
X33557142Y12073810D01*
X33557142Y12073810D02*
X33938094Y12073810D01*
X33033332Y12597620D02*
X32414285Y12597620D01*
X32414285Y12597620D02*
X32747618Y12216667D01*
X32747618Y12216667D02*
X32604761Y12216667D01*
X32604761Y12216667D02*
X32509523Y12169048D01*
X32509523Y12169048D02*
X32461904Y12121429D01*
X32461904Y12121429D02*
X32414285Y12026191D01*
X32414285Y12026191D02*
X32414285Y11788096D01*
X32414285Y11788096D02*
X32461904Y11692858D01*
X32461904Y11692858D02*
X32509523Y11645239D01*
X32509523Y11645239D02*
X32604761Y11597620D01*
X32604761Y11597620D02*
X32890475Y11597620D01*
X32890475Y11597620D02*
X32985713Y11645239D01*
X32985713Y11645239D02*
X33033332Y11692858D01*
X32647619Y14478572D02*
X33314285Y14478572D01*
X33123809Y14478572D02*
X33219047Y14526191D01*
X33219047Y14526191D02*
X33266666Y14573810D01*
X33266666Y14573810D02*
X33314285Y14669048D01*
X33314285Y14669048D02*
X33314285Y14764286D01*
X42116666Y31922858D02*
X42164285Y31875239D01*
X42164285Y31875239D02*
X42307142Y31827620D01*
X42307142Y31827620D02*
X42402380Y31827620D01*
X42402380Y31827620D02*
X42545237Y31875239D01*
X42545237Y31875239D02*
X42640475Y31970477D01*
X42640475Y31970477D02*
X42688094Y32065715D01*
X42688094Y32065715D02*
X42735713Y32256191D01*
X42735713Y32256191D02*
X42735713Y32399048D01*
X42735713Y32399048D02*
X42688094Y32589524D01*
X42688094Y32589524D02*
X42640475Y32684762D01*
X42640475Y32684762D02*
X42545237Y32780000D01*
X42545237Y32780000D02*
X42402380Y32827620D01*
X42402380Y32827620D02*
X42307142Y32827620D01*
X42307142Y32827620D02*
X42164285Y32780000D01*
X42164285Y32780000D02*
X42116666Y32732381D01*
X41735713Y32732381D02*
X41688094Y32780000D01*
X41688094Y32780000D02*
X41592856Y32827620D01*
X41592856Y32827620D02*
X41354761Y32827620D01*
X41354761Y32827620D02*
X41259523Y32780000D01*
X41259523Y32780000D02*
X41211904Y32732381D01*
X41211904Y32732381D02*
X41164285Y32637143D01*
X41164285Y32637143D02*
X41164285Y32541905D01*
X41164285Y32541905D02*
X41211904Y32399048D01*
X41211904Y32399048D02*
X41783332Y31827620D01*
X41783332Y31827620D02*
X41164285Y31827620D01*
X41711904Y30295239D02*
X41807142Y30247620D01*
X41807142Y30247620D02*
X41997618Y30247620D01*
X41997618Y30247620D02*
X42092856Y30295239D01*
X42092856Y30295239D02*
X42140475Y30342858D01*
X42140475Y30342858D02*
X42188094Y30438096D01*
X42188094Y30438096D02*
X42188094Y30723810D01*
X42188094Y30723810D02*
X42140475Y30819048D01*
X42140475Y30819048D02*
X42092856Y30866667D01*
X42092856Y30866667D02*
X41997618Y30914286D01*
X41997618Y30914286D02*
X41807142Y30914286D01*
X41807142Y30914286D02*
X41711904Y30866667D01*
X15166666Y10897620D02*
X15499999Y11373810D01*
X15738094Y10897620D02*
X15738094Y11897620D01*
X15738094Y11897620D02*
X15357142Y11897620D01*
X15357142Y11897620D02*
X15261904Y11850000D01*
X15261904Y11850000D02*
X15214285Y11802381D01*
X15214285Y11802381D02*
X15166666Y11707143D01*
X15166666Y11707143D02*
X15166666Y11564286D01*
X15166666Y11564286D02*
X15214285Y11469048D01*
X15214285Y11469048D02*
X15261904Y11421429D01*
X15261904Y11421429D02*
X15357142Y11373810D01*
X15357142Y11373810D02*
X15738094Y11373810D01*
X14261904Y11897620D02*
X14738094Y11897620D01*
X14738094Y11897620D02*
X14785713Y11421429D01*
X14785713Y11421429D02*
X14738094Y11469048D01*
X14738094Y11469048D02*
X14642856Y11516667D01*
X14642856Y11516667D02*
X14404761Y11516667D01*
X14404761Y11516667D02*
X14309523Y11469048D01*
X14309523Y11469048D02*
X14261904Y11421429D01*
X14261904Y11421429D02*
X14214285Y11326191D01*
X14214285Y11326191D02*
X14214285Y11088096D01*
X14214285Y11088096D02*
X14261904Y10992858D01*
X14261904Y10992858D02*
X14309523Y10945239D01*
X14309523Y10945239D02*
X14404761Y10897620D01*
X14404761Y10897620D02*
X14642856Y10897620D01*
X14642856Y10897620D02*
X14738094Y10945239D01*
X14738094Y10945239D02*
X14785713Y10992858D01*
X14828571Y13352381D02*
X14828571Y12685715D01*
X14828571Y12876191D02*
X14876190Y12780953D01*
X14876190Y12780953D02*
X14923809Y12733334D01*
X14923809Y12733334D02*
X15019047Y12685715D01*
X15019047Y12685715D02*
X15114285Y12685715D01*
X14166666Y18547620D02*
X14499999Y19023810D01*
X14738094Y18547620D02*
X14738094Y19547620D01*
X14738094Y19547620D02*
X14357142Y19547620D01*
X14357142Y19547620D02*
X14261904Y19500000D01*
X14261904Y19500000D02*
X14214285Y19452381D01*
X14214285Y19452381D02*
X14166666Y19357143D01*
X14166666Y19357143D02*
X14166666Y19214286D01*
X14166666Y19214286D02*
X14214285Y19119048D01*
X14214285Y19119048D02*
X14261904Y19071429D01*
X14261904Y19071429D02*
X14357142Y19023810D01*
X14357142Y19023810D02*
X14738094Y19023810D01*
X13309523Y19214286D02*
X13309523Y18547620D01*
X13547618Y19595239D02*
X13785713Y18880953D01*
X13785713Y18880953D02*
X13166666Y18880953D01*
X14352380Y16671429D02*
X13685714Y16671429D01*
X13876190Y16671429D02*
X13780952Y16623810D01*
X13780952Y16623810D02*
X13733333Y16576191D01*
X13733333Y16576191D02*
X13685714Y16480953D01*
X13685714Y16480953D02*
X13685714Y16385715D01*
X18666666Y15092858D02*
X18714285Y15045239D01*
X18714285Y15045239D02*
X18857142Y14997620D01*
X18857142Y14997620D02*
X18952380Y14997620D01*
X18952380Y14997620D02*
X19095237Y15045239D01*
X19095237Y15045239D02*
X19190475Y15140477D01*
X19190475Y15140477D02*
X19238094Y15235715D01*
X19238094Y15235715D02*
X19285713Y15426191D01*
X19285713Y15426191D02*
X19285713Y15569048D01*
X19285713Y15569048D02*
X19238094Y15759524D01*
X19238094Y15759524D02*
X19190475Y15854762D01*
X19190475Y15854762D02*
X19095237Y15950000D01*
X19095237Y15950000D02*
X18952380Y15997620D01*
X18952380Y15997620D02*
X18857142Y15997620D01*
X18857142Y15997620D02*
X18714285Y15950000D01*
X18714285Y15950000D02*
X18666666Y15902381D01*
X18333332Y15997620D02*
X17666666Y15997620D01*
X17666666Y15997620D02*
X18095237Y14997620D01*
X16804761Y16261905D02*
X16852380Y16357143D01*
X16852380Y16357143D02*
X16852380Y16547619D01*
X16852380Y16547619D02*
X16804761Y16642857D01*
X16804761Y16642857D02*
X16757142Y16690476D01*
X16757142Y16690476D02*
X16661904Y16738095D01*
X16661904Y16738095D02*
X16376190Y16738095D01*
X16376190Y16738095D02*
X16280952Y16690476D01*
X16280952Y16690476D02*
X16233333Y16642857D01*
X16233333Y16642857D02*
X16185714Y16547619D01*
X16185714Y16547619D02*
X16185714Y16357143D01*
X16185714Y16357143D02*
X16233333Y16261905D01*
X38466666Y29942858D02*
X38514285Y29895239D01*
X38514285Y29895239D02*
X38657142Y29847620D01*
X38657142Y29847620D02*
X38752380Y29847620D01*
X38752380Y29847620D02*
X38895237Y29895239D01*
X38895237Y29895239D02*
X38990475Y29990477D01*
X38990475Y29990477D02*
X39038094Y30085715D01*
X39038094Y30085715D02*
X39085713Y30276191D01*
X39085713Y30276191D02*
X39085713Y30419048D01*
X39085713Y30419048D02*
X39038094Y30609524D01*
X39038094Y30609524D02*
X38990475Y30704762D01*
X38990475Y30704762D02*
X38895237Y30800000D01*
X38895237Y30800000D02*
X38752380Y30847620D01*
X38752380Y30847620D02*
X38657142Y30847620D01*
X38657142Y30847620D02*
X38514285Y30800000D01*
X38514285Y30800000D02*
X38466666Y30752381D01*
X37514285Y29847620D02*
X38085713Y29847620D01*
X37799999Y29847620D02*
X37799999Y30847620D01*
X37799999Y30847620D02*
X37895237Y30704762D01*
X37895237Y30704762D02*
X37990475Y30609524D01*
X37990475Y30609524D02*
X38085713Y30561905D01*
X38804761Y27261905D02*
X38852380Y27357143D01*
X38852380Y27357143D02*
X38852380Y27547619D01*
X38852380Y27547619D02*
X38804761Y27642857D01*
X38804761Y27642857D02*
X38757142Y27690476D01*
X38757142Y27690476D02*
X38661904Y27738095D01*
X38661904Y27738095D02*
X38376190Y27738095D01*
X38376190Y27738095D02*
X38280952Y27690476D01*
X38280952Y27690476D02*
X38233333Y27642857D01*
X38233333Y27642857D02*
X38185714Y27547619D01*
X38185714Y27547619D02*
X38185714Y27357143D01*
X38185714Y27357143D02*
X38233333Y27261905D01*
X72192857Y19397620D02*
X72526190Y19873810D01*
X72764285Y19397620D02*
X72764285Y20397620D01*
X72764285Y20397620D02*
X72383333Y20397620D01*
X72383333Y20397620D02*
X72288095Y20350000D01*
X72288095Y20350000D02*
X72240476Y20302381D01*
X72240476Y20302381D02*
X72192857Y20207143D01*
X72192857Y20207143D02*
X72192857Y20064286D01*
X72192857Y20064286D02*
X72240476Y19969048D01*
X72240476Y19969048D02*
X72288095Y19921429D01*
X72288095Y19921429D02*
X72383333Y19873810D01*
X72383333Y19873810D02*
X72764285Y19873810D01*
X71240476Y19397620D02*
X71811904Y19397620D01*
X71526190Y19397620D02*
X71526190Y20397620D01*
X71526190Y20397620D02*
X71621428Y20254762D01*
X71621428Y20254762D02*
X71716666Y20159524D01*
X71716666Y20159524D02*
X71811904Y20111905D01*
X70907142Y20397620D02*
X70288095Y20397620D01*
X70288095Y20397620D02*
X70621428Y20016667D01*
X70621428Y20016667D02*
X70478571Y20016667D01*
X70478571Y20016667D02*
X70383333Y19969048D01*
X70383333Y19969048D02*
X70335714Y19921429D01*
X70335714Y19921429D02*
X70288095Y19826191D01*
X70288095Y19826191D02*
X70288095Y19588096D01*
X70288095Y19588096D02*
X70335714Y19492858D01*
X70335714Y19492858D02*
X70383333Y19445239D01*
X70383333Y19445239D02*
X70478571Y19397620D01*
X70478571Y19397620D02*
X70764285Y19397620D01*
X70764285Y19397620D02*
X70859523Y19445239D01*
X70859523Y19445239D02*
X70907142Y19492858D01*
X71328571Y18502381D02*
X71328571Y17835715D01*
X71328571Y18026191D02*
X71376190Y17930953D01*
X71376190Y17930953D02*
X71423809Y17883334D01*
X71423809Y17883334D02*
X71519047Y17835715D01*
X71519047Y17835715D02*
X71614285Y17835715D01*
X20788094Y2997620D02*
X20788094Y3997620D01*
X20788094Y3997620D02*
X20549999Y3997620D01*
X20549999Y3997620D02*
X20407142Y3950000D01*
X20407142Y3950000D02*
X20311904Y3854762D01*
X20311904Y3854762D02*
X20264285Y3759524D01*
X20264285Y3759524D02*
X20216666Y3569048D01*
X20216666Y3569048D02*
X20216666Y3426191D01*
X20216666Y3426191D02*
X20264285Y3235715D01*
X20264285Y3235715D02*
X20311904Y3140477D01*
X20311904Y3140477D02*
X20407142Y3045239D01*
X20407142Y3045239D02*
X20549999Y2997620D01*
X20549999Y2997620D02*
X20788094Y2997620D01*
X19883332Y3997620D02*
X19264285Y3997620D01*
X19264285Y3997620D02*
X19597618Y3616667D01*
X19597618Y3616667D02*
X19454761Y3616667D01*
X19454761Y3616667D02*
X19359523Y3569048D01*
X19359523Y3569048D02*
X19311904Y3521429D01*
X19311904Y3521429D02*
X19264285Y3426191D01*
X19264285Y3426191D02*
X19264285Y3188096D01*
X19264285Y3188096D02*
X19311904Y3092858D01*
X19311904Y3092858D02*
X19359523Y3045239D01*
X19359523Y3045239D02*
X19454761Y2997620D01*
X19454761Y2997620D02*
X19740475Y2997620D01*
X19740475Y2997620D02*
X19835713Y3045239D01*
X19835713Y3045239D02*
X19883332Y3092858D01*
X25866666Y3147620D02*
X26199999Y3623810D01*
X26438094Y3147620D02*
X26438094Y4147620D01*
X26438094Y4147620D02*
X26057142Y4147620D01*
X26057142Y4147620D02*
X25961904Y4100000D01*
X25961904Y4100000D02*
X25914285Y4052381D01*
X25914285Y4052381D02*
X25866666Y3957143D01*
X25866666Y3957143D02*
X25866666Y3814286D01*
X25866666Y3814286D02*
X25914285Y3719048D01*
X25914285Y3719048D02*
X25961904Y3671429D01*
X25961904Y3671429D02*
X26057142Y3623810D01*
X26057142Y3623810D02*
X26438094Y3623810D01*
X25485713Y4052381D02*
X25438094Y4100000D01*
X25438094Y4100000D02*
X25342856Y4147620D01*
X25342856Y4147620D02*
X25104761Y4147620D01*
X25104761Y4147620D02*
X25009523Y4100000D01*
X25009523Y4100000D02*
X24961904Y4052381D01*
X24961904Y4052381D02*
X24914285Y3957143D01*
X24914285Y3957143D02*
X24914285Y3861905D01*
X24914285Y3861905D02*
X24961904Y3719048D01*
X24961904Y3719048D02*
X25533332Y3147620D01*
X25533332Y3147620D02*
X24914285Y3147620D01*
X26152380Y6571429D02*
X25485714Y6571429D01*
X25676190Y6571429D02*
X25580952Y6523810D01*
X25580952Y6523810D02*
X25533333Y6476191D01*
X25533333Y6476191D02*
X25485714Y6380953D01*
X25485714Y6380953D02*
X25485714Y6285715D01*
X26092857Y10042858D02*
X26140476Y9995239D01*
X26140476Y9995239D02*
X26283333Y9947620D01*
X26283333Y9947620D02*
X26378571Y9947620D01*
X26378571Y9947620D02*
X26521428Y9995239D01*
X26521428Y9995239D02*
X26616666Y10090477D01*
X26616666Y10090477D02*
X26664285Y10185715D01*
X26664285Y10185715D02*
X26711904Y10376191D01*
X26711904Y10376191D02*
X26711904Y10519048D01*
X26711904Y10519048D02*
X26664285Y10709524D01*
X26664285Y10709524D02*
X26616666Y10804762D01*
X26616666Y10804762D02*
X26521428Y10900000D01*
X26521428Y10900000D02*
X26378571Y10947620D01*
X26378571Y10947620D02*
X26283333Y10947620D01*
X26283333Y10947620D02*
X26140476Y10900000D01*
X26140476Y10900000D02*
X26092857Y10852381D01*
X25140476Y9947620D02*
X25711904Y9947620D01*
X25426190Y9947620D02*
X25426190Y10947620D01*
X25426190Y10947620D02*
X25521428Y10804762D01*
X25521428Y10804762D02*
X25616666Y10709524D01*
X25616666Y10709524D02*
X25711904Y10661905D01*
X24521428Y10947620D02*
X24426190Y10947620D01*
X24426190Y10947620D02*
X24330952Y10900000D01*
X24330952Y10900000D02*
X24283333Y10852381D01*
X24283333Y10852381D02*
X24235714Y10757143D01*
X24235714Y10757143D02*
X24188095Y10566667D01*
X24188095Y10566667D02*
X24188095Y10328572D01*
X24188095Y10328572D02*
X24235714Y10138096D01*
X24235714Y10138096D02*
X24283333Y10042858D01*
X24283333Y10042858D02*
X24330952Y9995239D01*
X24330952Y9995239D02*
X24426190Y9947620D01*
X24426190Y9947620D02*
X24521428Y9947620D01*
X24521428Y9947620D02*
X24616666Y9995239D01*
X24616666Y9995239D02*
X24664285Y10042858D01*
X24664285Y10042858D02*
X24711904Y10138096D01*
X24711904Y10138096D02*
X24759523Y10328572D01*
X24759523Y10328572D02*
X24759523Y10566667D01*
X24759523Y10566667D02*
X24711904Y10757143D01*
X24711904Y10757143D02*
X24664285Y10852381D01*
X24664285Y10852381D02*
X24616666Y10900000D01*
X24616666Y10900000D02*
X24521428Y10947620D01*
X21761904Y10345239D02*
X21857142Y10297620D01*
X21857142Y10297620D02*
X22047618Y10297620D01*
X22047618Y10297620D02*
X22142856Y10345239D01*
X22142856Y10345239D02*
X22190475Y10392858D01*
X22190475Y10392858D02*
X22238094Y10488096D01*
X22238094Y10488096D02*
X22238094Y10773810D01*
X22238094Y10773810D02*
X22190475Y10869048D01*
X22190475Y10869048D02*
X22142856Y10916667D01*
X22142856Y10916667D02*
X22047618Y10964286D01*
X22047618Y10964286D02*
X21857142Y10964286D01*
X21857142Y10964286D02*
X21761904Y10916667D01*
X8042857Y19297620D02*
X8376190Y19773810D01*
X8614285Y19297620D02*
X8614285Y20297620D01*
X8614285Y20297620D02*
X8233333Y20297620D01*
X8233333Y20297620D02*
X8138095Y20250000D01*
X8138095Y20250000D02*
X8090476Y20202381D01*
X8090476Y20202381D02*
X8042857Y20107143D01*
X8042857Y20107143D02*
X8042857Y19964286D01*
X8042857Y19964286D02*
X8090476Y19869048D01*
X8090476Y19869048D02*
X8138095Y19821429D01*
X8138095Y19821429D02*
X8233333Y19773810D01*
X8233333Y19773810D02*
X8614285Y19773810D01*
X7090476Y19297620D02*
X7661904Y19297620D01*
X7376190Y19297620D02*
X7376190Y20297620D01*
X7376190Y20297620D02*
X7471428Y20154762D01*
X7471428Y20154762D02*
X7566666Y20059524D01*
X7566666Y20059524D02*
X7661904Y20011905D01*
X6709523Y20202381D02*
X6661904Y20250000D01*
X6661904Y20250000D02*
X6566666Y20297620D01*
X6566666Y20297620D02*
X6328571Y20297620D01*
X6328571Y20297620D02*
X6233333Y20250000D01*
X6233333Y20250000D02*
X6185714Y20202381D01*
X6185714Y20202381D02*
X6138095Y20107143D01*
X6138095Y20107143D02*
X6138095Y20011905D01*
X6138095Y20011905D02*
X6185714Y19869048D01*
X6185714Y19869048D02*
X6757142Y19297620D01*
X6757142Y19297620D02*
X6138095Y19297620D01*
X11021428Y19397620D02*
X11021428Y20064286D01*
X11021428Y19873810D02*
X10973809Y19969048D01*
X10973809Y19969048D02*
X10926190Y20016667D01*
X10926190Y20016667D02*
X10830952Y20064286D01*
X10830952Y20064286D02*
X10735714Y20064286D01*
X40366666Y11042858D02*
X40414285Y10995239D01*
X40414285Y10995239D02*
X40557142Y10947620D01*
X40557142Y10947620D02*
X40652380Y10947620D01*
X40652380Y10947620D02*
X40795237Y10995239D01*
X40795237Y10995239D02*
X40890475Y11090477D01*
X40890475Y11090477D02*
X40938094Y11185715D01*
X40938094Y11185715D02*
X40985713Y11376191D01*
X40985713Y11376191D02*
X40985713Y11519048D01*
X40985713Y11519048D02*
X40938094Y11709524D01*
X40938094Y11709524D02*
X40890475Y11804762D01*
X40890475Y11804762D02*
X40795237Y11900000D01*
X40795237Y11900000D02*
X40652380Y11947620D01*
X40652380Y11947620D02*
X40557142Y11947620D01*
X40557142Y11947620D02*
X40414285Y11900000D01*
X40414285Y11900000D02*
X40366666Y11852381D01*
X39795237Y11519048D02*
X39890475Y11566667D01*
X39890475Y11566667D02*
X39938094Y11614286D01*
X39938094Y11614286D02*
X39985713Y11709524D01*
X39985713Y11709524D02*
X39985713Y11757143D01*
X39985713Y11757143D02*
X39938094Y11852381D01*
X39938094Y11852381D02*
X39890475Y11900000D01*
X39890475Y11900000D02*
X39795237Y11947620D01*
X39795237Y11947620D02*
X39604761Y11947620D01*
X39604761Y11947620D02*
X39509523Y11900000D01*
X39509523Y11900000D02*
X39461904Y11852381D01*
X39461904Y11852381D02*
X39414285Y11757143D01*
X39414285Y11757143D02*
X39414285Y11709524D01*
X39414285Y11709524D02*
X39461904Y11614286D01*
X39461904Y11614286D02*
X39509523Y11566667D01*
X39509523Y11566667D02*
X39604761Y11519048D01*
X39604761Y11519048D02*
X39795237Y11519048D01*
X39795237Y11519048D02*
X39890475Y11471429D01*
X39890475Y11471429D02*
X39938094Y11423810D01*
X39938094Y11423810D02*
X39985713Y11328572D01*
X39985713Y11328572D02*
X39985713Y11138096D01*
X39985713Y11138096D02*
X39938094Y11042858D01*
X39938094Y11042858D02*
X39890475Y10995239D01*
X39890475Y10995239D02*
X39795237Y10947620D01*
X39795237Y10947620D02*
X39604761Y10947620D01*
X39604761Y10947620D02*
X39509523Y10995239D01*
X39509523Y10995239D02*
X39461904Y11042858D01*
X39461904Y11042858D02*
X39414285Y11138096D01*
X39414285Y11138096D02*
X39414285Y11328572D01*
X39414285Y11328572D02*
X39461904Y11423810D01*
X39461904Y11423810D02*
X39509523Y11471429D01*
X39509523Y11471429D02*
X39604761Y11519048D01*
X40061904Y9245239D02*
X40157142Y9197620D01*
X40157142Y9197620D02*
X40347618Y9197620D01*
X40347618Y9197620D02*
X40442856Y9245239D01*
X40442856Y9245239D02*
X40490475Y9292858D01*
X40490475Y9292858D02*
X40538094Y9388096D01*
X40538094Y9388096D02*
X40538094Y9673810D01*
X40538094Y9673810D02*
X40490475Y9769048D01*
X40490475Y9769048D02*
X40442856Y9816667D01*
X40442856Y9816667D02*
X40347618Y9864286D01*
X40347618Y9864286D02*
X40157142Y9864286D01*
X40157142Y9864286D02*
X40061904Y9816667D01*
X31395238Y20952381D02*
X31490476Y21000000D01*
X31490476Y21000000D02*
X31585714Y21095239D01*
X31585714Y21095239D02*
X31728571Y21238096D01*
X31728571Y21238096D02*
X31823809Y21285715D01*
X31823809Y21285715D02*
X31919047Y21285715D01*
X31871428Y21047620D02*
X31966666Y21095239D01*
X31966666Y21095239D02*
X32061904Y21190477D01*
X32061904Y21190477D02*
X32109523Y21380953D01*
X32109523Y21380953D02*
X32109523Y21714286D01*
X32109523Y21714286D02*
X32061904Y21904762D01*
X32061904Y21904762D02*
X31966666Y22000000D01*
X31966666Y22000000D02*
X31871428Y22047620D01*
X31871428Y22047620D02*
X31680952Y22047620D01*
X31680952Y22047620D02*
X31585714Y22000000D01*
X31585714Y22000000D02*
X31490476Y21904762D01*
X31490476Y21904762D02*
X31442857Y21714286D01*
X31442857Y21714286D02*
X31442857Y21380953D01*
X31442857Y21380953D02*
X31490476Y21190477D01*
X31490476Y21190477D02*
X31585714Y21095239D01*
X31585714Y21095239D02*
X31680952Y21047620D01*
X31680952Y21047620D02*
X31871428Y21047620D01*
X31061904Y21952381D02*
X31014285Y22000000D01*
X31014285Y22000000D02*
X30919047Y22047620D01*
X30919047Y22047620D02*
X30680952Y22047620D01*
X30680952Y22047620D02*
X30585714Y22000000D01*
X30585714Y22000000D02*
X30538095Y21952381D01*
X30538095Y21952381D02*
X30490476Y21857143D01*
X30490476Y21857143D02*
X30490476Y21761905D01*
X30490476Y21761905D02*
X30538095Y21619048D01*
X30538095Y21619048D02*
X31109523Y21047620D01*
X31109523Y21047620D02*
X30490476Y21047620D01*
X8142857Y14492858D02*
X8190476Y14445239D01*
X8190476Y14445239D02*
X8333333Y14397620D01*
X8333333Y14397620D02*
X8428571Y14397620D01*
X8428571Y14397620D02*
X8571428Y14445239D01*
X8571428Y14445239D02*
X8666666Y14540477D01*
X8666666Y14540477D02*
X8714285Y14635715D01*
X8714285Y14635715D02*
X8761904Y14826191D01*
X8761904Y14826191D02*
X8761904Y14969048D01*
X8761904Y14969048D02*
X8714285Y15159524D01*
X8714285Y15159524D02*
X8666666Y15254762D01*
X8666666Y15254762D02*
X8571428Y15350000D01*
X8571428Y15350000D02*
X8428571Y15397620D01*
X8428571Y15397620D02*
X8333333Y15397620D01*
X8333333Y15397620D02*
X8190476Y15350000D01*
X8190476Y15350000D02*
X8142857Y15302381D01*
X7190476Y14397620D02*
X7761904Y14397620D01*
X7476190Y14397620D02*
X7476190Y15397620D01*
X7476190Y15397620D02*
X7571428Y15254762D01*
X7571428Y15254762D02*
X7666666Y15159524D01*
X7666666Y15159524D02*
X7761904Y15111905D01*
X6809523Y15302381D02*
X6761904Y15350000D01*
X6761904Y15350000D02*
X6666666Y15397620D01*
X6666666Y15397620D02*
X6428571Y15397620D01*
X6428571Y15397620D02*
X6333333Y15350000D01*
X6333333Y15350000D02*
X6285714Y15302381D01*
X6285714Y15302381D02*
X6238095Y15207143D01*
X6238095Y15207143D02*
X6238095Y15111905D01*
X6238095Y15111905D02*
X6285714Y14969048D01*
X6285714Y14969048D02*
X6857142Y14397620D01*
X6857142Y14397620D02*
X6238095Y14397620D01*
X11138095Y15204762D02*
X11042857Y15252381D01*
X11042857Y15252381D02*
X10852381Y15252381D01*
X10852381Y15252381D02*
X10757143Y15204762D01*
X10757143Y15204762D02*
X10709524Y15157143D01*
X10709524Y15157143D02*
X10661905Y15061905D01*
X10661905Y15061905D02*
X10661905Y14776191D01*
X10661905Y14776191D02*
X10709524Y14680953D01*
X10709524Y14680953D02*
X10757143Y14633334D01*
X10757143Y14633334D02*
X10852381Y14585715D01*
X10852381Y14585715D02*
X11042857Y14585715D01*
X11042857Y14585715D02*
X11138095Y14633334D01*
X8042857Y16597620D02*
X8376190Y17073810D01*
X8614285Y16597620D02*
X8614285Y17597620D01*
X8614285Y17597620D02*
X8233333Y17597620D01*
X8233333Y17597620D02*
X8138095Y17550000D01*
X8138095Y17550000D02*
X8090476Y17502381D01*
X8090476Y17502381D02*
X8042857Y17407143D01*
X8042857Y17407143D02*
X8042857Y17264286D01*
X8042857Y17264286D02*
X8090476Y17169048D01*
X8090476Y17169048D02*
X8138095Y17121429D01*
X8138095Y17121429D02*
X8233333Y17073810D01*
X8233333Y17073810D02*
X8614285Y17073810D01*
X7090476Y16597620D02*
X7661904Y16597620D01*
X7376190Y16597620D02*
X7376190Y17597620D01*
X7376190Y17597620D02*
X7471428Y17454762D01*
X7471428Y17454762D02*
X7566666Y17359524D01*
X7566666Y17359524D02*
X7661904Y17311905D01*
X6233333Y17264286D02*
X6233333Y16597620D01*
X6471428Y17645239D02*
X6709523Y16930953D01*
X6709523Y16930953D02*
X6090476Y16930953D01*
X10678571Y17502381D02*
X10678571Y16835715D01*
X10678571Y17026191D02*
X10726190Y16930953D01*
X10726190Y16930953D02*
X10773809Y16883334D01*
X10773809Y16883334D02*
X10869047Y16835715D01*
X10869047Y16835715D02*
X10964285Y16835715D01*
X19738094Y26947620D02*
X19738094Y27947620D01*
X19738094Y27947620D02*
X19499999Y27947620D01*
X19499999Y27947620D02*
X19357142Y27900000D01*
X19357142Y27900000D02*
X19261904Y27804762D01*
X19261904Y27804762D02*
X19214285Y27709524D01*
X19214285Y27709524D02*
X19166666Y27519048D01*
X19166666Y27519048D02*
X19166666Y27376191D01*
X19166666Y27376191D02*
X19214285Y27185715D01*
X19214285Y27185715D02*
X19261904Y27090477D01*
X19261904Y27090477D02*
X19357142Y26995239D01*
X19357142Y26995239D02*
X19499999Y26947620D01*
X19499999Y26947620D02*
X19738094Y26947620D01*
X18785713Y27852381D02*
X18738094Y27900000D01*
X18738094Y27900000D02*
X18642856Y27947620D01*
X18642856Y27947620D02*
X18404761Y27947620D01*
X18404761Y27947620D02*
X18309523Y27900000D01*
X18309523Y27900000D02*
X18261904Y27852381D01*
X18261904Y27852381D02*
X18214285Y27757143D01*
X18214285Y27757143D02*
X18214285Y27661905D01*
X18214285Y27661905D02*
X18261904Y27519048D01*
X18261904Y27519048D02*
X18833332Y26947620D01*
X18833332Y26947620D02*
X18214285Y26947620D01*
X67988094Y24447620D02*
X67988094Y25447620D01*
X67988094Y25447620D02*
X67749999Y25447620D01*
X67749999Y25447620D02*
X67607142Y25400000D01*
X67607142Y25400000D02*
X67511904Y25304762D01*
X67511904Y25304762D02*
X67464285Y25209524D01*
X67464285Y25209524D02*
X67416666Y25019048D01*
X67416666Y25019048D02*
X67416666Y24876191D01*
X67416666Y24876191D02*
X67464285Y24685715D01*
X67464285Y24685715D02*
X67511904Y24590477D01*
X67511904Y24590477D02*
X67607142Y24495239D01*
X67607142Y24495239D02*
X67749999Y24447620D01*
X67749999Y24447620D02*
X67988094Y24447620D01*
X66559523Y25114286D02*
X66559523Y24447620D01*
X66797618Y25495239D02*
X67035713Y24780953D01*
X67035713Y24780953D02*
X66416666Y24780953D01*
X53830952Y1771429D02*
X53688095Y1723810D01*
X53688095Y1723810D02*
X53640476Y1676191D01*
X53640476Y1676191D02*
X53592857Y1580953D01*
X53592857Y1580953D02*
X53592857Y1438096D01*
X53592857Y1438096D02*
X53640476Y1342858D01*
X53640476Y1342858D02*
X53688095Y1295239D01*
X53688095Y1295239D02*
X53783333Y1247620D01*
X53783333Y1247620D02*
X54164285Y1247620D01*
X54164285Y1247620D02*
X54164285Y2247620D01*
X54164285Y2247620D02*
X53830952Y2247620D01*
X53830952Y2247620D02*
X53735714Y2200000D01*
X53735714Y2200000D02*
X53688095Y2152381D01*
X53688095Y2152381D02*
X53640476Y2057143D01*
X53640476Y2057143D02*
X53640476Y1961905D01*
X53640476Y1961905D02*
X53688095Y1866667D01*
X53688095Y1866667D02*
X53735714Y1819048D01*
X53735714Y1819048D02*
X53830952Y1771429D01*
X53830952Y1771429D02*
X54164285Y1771429D01*
X53259523Y2247620D02*
X52592857Y2247620D01*
X52592857Y2247620D02*
X53259523Y1247620D01*
X53259523Y1247620D02*
X52592857Y1247620D01*
X51688095Y1247620D02*
X52259523Y1247620D01*
X51973809Y1247620D02*
X51973809Y2247620D01*
X51973809Y2247620D02*
X52069047Y2104762D01*
X52069047Y2104762D02*
X52164285Y2009524D01*
X52164285Y2009524D02*
X52259523Y1961905D01*
X21766666Y31897620D02*
X22099999Y32373810D01*
X22338094Y31897620D02*
X22338094Y32897620D01*
X22338094Y32897620D02*
X21957142Y32897620D01*
X21957142Y32897620D02*
X21861904Y32850000D01*
X21861904Y32850000D02*
X21814285Y32802381D01*
X21814285Y32802381D02*
X21766666Y32707143D01*
X21766666Y32707143D02*
X21766666Y32564286D01*
X21766666Y32564286D02*
X21814285Y32469048D01*
X21814285Y32469048D02*
X21861904Y32421429D01*
X21861904Y32421429D02*
X21957142Y32373810D01*
X21957142Y32373810D02*
X22338094Y32373810D01*
X20909523Y32897620D02*
X21099999Y32897620D01*
X21099999Y32897620D02*
X21195237Y32850000D01*
X21195237Y32850000D02*
X21242856Y32802381D01*
X21242856Y32802381D02*
X21338094Y32659524D01*
X21338094Y32659524D02*
X21385713Y32469048D01*
X21385713Y32469048D02*
X21385713Y32088096D01*
X21385713Y32088096D02*
X21338094Y31992858D01*
X21338094Y31992858D02*
X21290475Y31945239D01*
X21290475Y31945239D02*
X21195237Y31897620D01*
X21195237Y31897620D02*
X21004761Y31897620D01*
X21004761Y31897620D02*
X20909523Y31945239D01*
X20909523Y31945239D02*
X20861904Y31992858D01*
X20861904Y31992858D02*
X20814285Y32088096D01*
X20814285Y32088096D02*
X20814285Y32326191D01*
X20814285Y32326191D02*
X20861904Y32421429D01*
X20861904Y32421429D02*
X20909523Y32469048D01*
X20909523Y32469048D02*
X21004761Y32516667D01*
X21004761Y32516667D02*
X21195237Y32516667D01*
X21195237Y32516667D02*
X21290475Y32469048D01*
X21290475Y32469048D02*
X21338094Y32421429D01*
X21338094Y32421429D02*
X21385713Y32326191D01*
X21878571Y30852381D02*
X21878571Y30185715D01*
X21878571Y30376191D02*
X21926190Y30280953D01*
X21926190Y30280953D02*
X21973809Y30233334D01*
X21973809Y30233334D02*
X22069047Y30185715D01*
X22069047Y30185715D02*
X22164285Y30185715D01*
D12*
X14150000Y2550000D02*
X15750000Y2550000D01*
X17550000Y3950000D02*
X17550000Y6250000D01*
X12350000Y4050000D02*
X12350000Y6250000D01*
X14050000Y7750000D02*
X15750000Y7750000D01*
X16202996Y5250000D02*
G75*
G03*
X16202996Y5250000I-1252996J0D01*
G01*
X31300000Y9700000D02*
X29700000Y9700000D01*
X27900000Y8300000D02*
X27900000Y6000000D01*
X33100000Y8200000D02*
X33100000Y6000000D01*
X31400000Y4500000D02*
X29700000Y4500000D01*
X31752996Y7000000D02*
G75*
G03*
X31752996Y7000000I-1252996J0D01*
G01*
X23111252Y15090000D02*
X21688748Y15090000D01*
X23111252Y16910000D02*
X21688748Y16910000D01*
X20700000Y22750000D02*
X20700000Y22850000D01*
X20700000Y22450000D02*
X20700000Y22750000D01*
X20700000Y22450000D02*
X20700000Y22050000D01*
X20700000Y22450000D02*
X21200000Y22050000D01*
X21200000Y22850000D02*
X20700000Y22450000D01*
X21200000Y22050000D02*
X21200000Y22850000D01*
X37790000Y22638748D02*
X37790000Y23161252D01*
X39210000Y22638748D02*
X39210000Y23161252D01*
X38200000Y22700000D02*
X38200000Y23100000D01*
X38900000Y22700000D02*
X38200000Y22700000D01*
X22161252Y12090000D02*
X20738748Y12090000D01*
X22161252Y13910000D02*
X20738748Y13910000D01*
X23910000Y6711252D02*
X23910000Y5288748D01*
X22090000Y6711252D02*
X22090000Y5288748D01*
X41688748Y29210000D02*
X42211252Y29210000D01*
X41688748Y27790000D02*
X42211252Y27790000D01*
X41750000Y28800000D02*
X42150000Y28800000D01*
X41750000Y28100000D02*
X41750000Y28800000D01*
X16190000Y20638748D02*
X16190000Y22061252D01*
X18010000Y20638748D02*
X18010000Y22061252D01*
X29238748Y14385000D02*
X29761252Y14385000D01*
X29238748Y12915000D02*
X29761252Y12915000D01*
X71272936Y16635000D02*
X71727064Y16635000D01*
X71272936Y15165000D02*
X71727064Y15165000D01*
X26615000Y18772936D02*
X26615000Y19227064D01*
X28085000Y18772936D02*
X28085000Y19227064D01*
X32265000Y14422936D02*
X32265000Y14877064D01*
X33735000Y14422936D02*
X33735000Y14877064D01*
X42211252Y29865000D02*
X41688748Y29865000D01*
X42211252Y31335000D02*
X41688748Y31335000D01*
X38716228Y600000D02*
G75*
G03*
X38716228Y600000I-316228J0D01*
G01*
X14772936Y13735000D02*
X15227064Y13735000D01*
X14772936Y12265000D02*
X15227064Y12265000D01*
X29700000Y24300000D02*
X31300000Y24300000D01*
X33100000Y25700000D02*
X33100000Y28000000D01*
X27900000Y25800000D02*
X27900000Y28000000D01*
X29600000Y29500000D02*
X31300000Y29500000D01*
X31752996Y27000000D02*
G75*
G03*
X31752996Y27000000I-1252996J0D01*
G01*
X14735000Y16727064D02*
X14735000Y16272936D01*
X13265000Y16727064D02*
X13265000Y16272936D01*
X17235000Y16761252D02*
X17235000Y16238748D01*
X15765000Y16761252D02*
X15765000Y16238748D01*
X39235000Y27761252D02*
X39235000Y27238748D01*
X37765000Y27761252D02*
X37765000Y27238748D01*
X71272936Y18885000D02*
X71727064Y18885000D01*
X71272936Y17415000D02*
X71727064Y17415000D01*
X19700000Y6200000D02*
X19600000Y6200000D01*
X20000000Y6200000D02*
X19700000Y6200000D01*
X20000000Y6200000D02*
X20400000Y6200000D01*
X20000000Y6200000D02*
X20400000Y6700000D01*
X19600000Y6700000D02*
X20000000Y6200000D01*
X20400000Y6700000D02*
X19600000Y6700000D01*
X26535000Y6627064D02*
X26535000Y6172936D01*
X25065000Y6627064D02*
X25065000Y6172936D01*
X22261252Y9915000D02*
X21738748Y9915000D01*
X22261252Y11385000D02*
X21738748Y11385000D01*
X11077064Y19015000D02*
X10622936Y19015000D01*
X11077064Y20485000D02*
X10622936Y20485000D01*
X40911252Y8640000D02*
X39488748Y8640000D01*
X40911252Y10460000D02*
X39488748Y10460000D01*
X10638748Y15635000D02*
X11161252Y15635000D01*
X10638748Y14165000D02*
X11161252Y14165000D01*
X10622936Y17885000D02*
X11077064Y17885000D01*
X10622936Y16415000D02*
X11077064Y16415000D01*
X21000000Y26750000D02*
X20400000Y27350000D01*
X21600000Y26750000D02*
X20400000Y26750000D01*
X21600000Y27350000D02*
X21000000Y26750000D01*
X21600000Y27350000D02*
X20400000Y27350000D01*
X65000000Y25300000D02*
X65600000Y24700000D01*
X64400000Y25300000D02*
X65600000Y25300000D01*
X64400000Y24700000D02*
X65000000Y25300000D01*
X64400000Y24700000D02*
X65600000Y24700000D01*
X21822936Y31235000D02*
X22277064Y31235000D01*
X21822936Y29765000D02*
X22277064Y29765000D01*
%LPC*%
D13*
X35899999Y28809999D03*
D14*
X35899999Y26269999D03*
X35899999Y23729999D03*
X35899999Y21189999D03*
X35899999Y18649999D03*
X35899999Y16109999D03*
X35899999Y13569999D03*
X35899999Y11029999D03*
X35899999Y8489999D03*
X35899999Y5949999D03*
D15*
X57000000Y2750000D03*
D16*
X68799999Y12699999D03*
X68799999Y21299999D03*
X72599999Y12699999D03*
X72599999Y21299999D03*
D15*
X17000000Y31250000D03*
D17*
X16850000Y2150000D03*
X16850000Y8150000D03*
X13050000Y2150000D03*
X13050000Y8150000D03*
D18*
X28600000Y10100000D03*
X28600000Y4100000D03*
X32400000Y10100000D03*
X32400000Y4100000D03*
D19*
X23962500Y16000000D03*
X20837500Y16000000D03*
D20*
X19749999Y22449999D03*
X22249999Y22449999D03*
D21*
X38500000Y21875000D03*
X38500000Y23925000D03*
D19*
X23012500Y13000000D03*
X19887500Y13000000D03*
D22*
X23000000Y7562500D03*
X23000000Y4437500D03*
D23*
X40925000Y28500000D03*
X42975000Y28500000D03*
D24*
X17100000Y19787500D03*
X17100000Y22912500D03*
D25*
X28462500Y13650000D03*
X30537500Y13650000D03*
D26*
X70500000Y15900000D03*
X72500000Y15900000D03*
D27*
X27350000Y18000000D03*
X27350000Y20000000D03*
X33000000Y13650000D03*
X33000000Y15650000D03*
D28*
X42987500Y30600000D03*
X40912500Y30600000D03*
D29*
X38400000Y1575000D03*
X38400000Y2225000D03*
X38400000Y2875000D03*
X38400000Y3525000D03*
X38400000Y4175000D03*
X38400000Y4825000D03*
X38400000Y5475000D03*
X38400000Y6125000D03*
X38400000Y6775000D03*
X38400000Y7425000D03*
X44200000Y7425000D03*
X44200000Y6775000D03*
X44200000Y6125000D03*
X44200000Y5475000D03*
X44200000Y4825000D03*
X44200000Y4175000D03*
X44200000Y3525000D03*
X44200000Y2875000D03*
X44200000Y2225000D03*
X44200000Y1575000D03*
D26*
X14000000Y13000000D03*
X16000000Y13000000D03*
D17*
X32400000Y23900000D03*
X32400000Y29900000D03*
X28600000Y23900000D03*
X28600000Y29900000D03*
D30*
X14000000Y17500000D03*
X14000000Y15500000D03*
D31*
X16500000Y17537500D03*
X16500000Y15462500D03*
X38500000Y28537500D03*
X38500000Y26462500D03*
D26*
X70500000Y18150000D03*
X72500000Y18150000D03*
D20*
X19999999Y5249999D03*
X19999999Y7749999D03*
D32*
X21350000Y18400000D03*
X21350000Y19350000D03*
X21350000Y20300000D03*
X24050000Y20300000D03*
X24050000Y18400000D03*
D30*
X25800000Y7400000D03*
X25800000Y5400000D03*
D28*
X23037500Y10650000D03*
X20962500Y10650000D03*
D33*
X11850000Y19750000D03*
X9850000Y19750000D03*
D19*
X41762500Y9550000D03*
X38637500Y9550000D03*
D34*
X29800000Y18050000D03*
X29800000Y19950000D03*
X32800000Y19000000D03*
D25*
X9862500Y14900000D03*
X11937500Y14900000D03*
D26*
X9850000Y17150000D03*
X11850000Y17150000D03*
D21*
X21000000Y26025000D03*
X21000000Y28075000D03*
D35*
X65000000Y26025000D03*
X65000000Y23975000D03*
D36*
X48150000Y2050000D03*
X50550000Y2050000D03*
D26*
X21050000Y30500000D03*
X23050000Y30500000D03*
M02*
