G04 #@! TF.GenerationSoftware,KiCad,Pcbnew,6.99.0-unknown-455e330f3b~148~ubuntu20.04.1*
G04 #@! TF.CreationDate,2022-03-14T13:39:27+05:30*
G04 #@! TF.ProjectId,espc3-vario,65737063-332d-4766-9172-696f2e6b6963,rev?*
G04 #@! TF.SameCoordinates,PX55d4a80PY7270e00*
G04 #@! TF.FileFunction,Paste,Bot*
G04 #@! TF.FilePolarity,Positive*
%FSLAX46Y46*%
G04 Gerber Fmt 4.6, Leading zero omitted, Abs format (unit mm)*
G04 Created by KiCad (PCBNEW 6.99.0-unknown-455e330f3b~148~ubuntu20.04.1) date 2022-03-14 13:39:27*
%MOMM*%
%LPD*%
G01*
G04 APERTURE LIST*
G04 Aperture macros list*
%AMRoundRect*
0 Rectangle with rounded corners*
0 $1 Rounding radius*
0 $2 $3 $4 $5 $6 $7 $8 $9 X,Y pos of 4 corners*
0 Add a 4 corners polygon primitive as box body*
4,1,4,$2,$3,$4,$5,$6,$7,$8,$9,$2,$3,0*
0 Add four circle primitives for the rounded corners*
1,1,$1+$1,$2,$3*
1,1,$1+$1,$4,$5*
1,1,$1+$1,$6,$7*
1,1,$1+$1,$8,$9*
0 Add four rect primitives between the rounded corners*
20,1,$1+$1,$2,$3,$4,$5,0*
20,1,$1+$1,$4,$5,$6,$7,0*
20,1,$1+$1,$6,$7,$8,$9,0*
20,1,$1+$1,$8,$9,$2,$3,0*%
G04 Aperture macros list end*
%ADD10RoundRect,0.300000X0.300000X-0.843000X0.300000X0.843000X-0.300000X0.843000X-0.300000X-0.843000X0*%
%ADD11RoundRect,0.300000X-0.300000X0.843000X-0.300000X-0.843000X0.300000X-0.843000X0.300000X0.843000X0*%
%ADD12RoundRect,0.250000X0.412500X0.650000X-0.412500X0.650000X-0.412500X-0.650000X0.412500X-0.650000X0*%
%ADD13R,1.000000X1.000000*%
%ADD14RoundRect,0.250000X0.450000X-0.325000X0.450000X0.325000X-0.450000X0.325000X-0.450000X-0.325000X0*%
%ADD15RoundRect,0.250000X-0.650000X0.412500X-0.650000X-0.412500X0.650000X-0.412500X0.650000X0.412500X0*%
%ADD16RoundRect,0.250000X-0.325000X-0.450000X0.325000X-0.450000X0.325000X0.450000X-0.325000X0.450000X0*%
%ADD17RoundRect,0.250000X0.650000X-0.412500X0.650000X0.412500X-0.650000X0.412500X-0.650000X-0.412500X0*%
%ADD18RoundRect,0.250000X-0.337500X-0.475000X0.337500X-0.475000X0.337500X0.475000X-0.337500X0.475000X0*%
%ADD19RoundRect,0.250000X-0.350000X-0.450000X0.350000X-0.450000X0.350000X0.450000X-0.350000X0.450000X0*%
%ADD20RoundRect,0.250000X0.450000X-0.350000X0.450000X0.350000X-0.450000X0.350000X-0.450000X-0.350000X0*%
%ADD21RoundRect,0.250000X0.337500X0.475000X-0.337500X0.475000X-0.337500X-0.475000X0.337500X-0.475000X0*%
%ADD22R,1.000000X0.400000*%
%ADD23RoundRect,0.250000X-0.450000X0.350000X-0.450000X-0.350000X0.450000X-0.350000X0.450000X0.350000X0*%
%ADD24RoundRect,0.250000X-0.475000X0.337500X-0.475000X-0.337500X0.475000X-0.337500X0.475000X0.337500X0*%
%ADD25R,1.560000X0.650000*%
%ADD26RoundRect,0.250000X0.350000X0.450000X-0.350000X0.450000X-0.350000X-0.450000X0.350000X-0.450000X0*%
%ADD27R,1.900000X0.800000*%
%ADD28RoundRect,0.250000X-0.450000X0.325000X-0.450000X-0.325000X0.450000X-0.325000X0.450000X0.325000X0*%
%ADD29RoundRect,0.381000X-0.381000X0.762000X-0.381000X-0.762000X0.381000X-0.762000X0.381000X0.762000X0*%
G04 APERTURE END LIST*
D10*
X16850000Y2150000D03*
X16850000Y8150000D03*
X13050000Y2150000D03*
X13050000Y8150000D03*
D11*
X28600000Y10100000D03*
X28600000Y4100000D03*
X32400000Y10100000D03*
X32400000Y4100000D03*
D12*
X23962500Y16000000D03*
X20837500Y16000000D03*
D13*
X19749999Y22449999D03*
X22249999Y22449999D03*
D14*
X38500000Y21875000D03*
X38500000Y23925000D03*
D12*
X23012500Y13000000D03*
X19887500Y13000000D03*
D15*
X23000000Y7562500D03*
X23000000Y4437500D03*
D16*
X40925000Y28500000D03*
X42975000Y28500000D03*
D17*
X17100000Y19787500D03*
X17100000Y22912500D03*
D18*
X28462500Y13650000D03*
X30537500Y13650000D03*
D19*
X70500000Y15900000D03*
X72500000Y15900000D03*
D20*
X27350000Y18000000D03*
X27350000Y20000000D03*
X33000000Y13650000D03*
X33000000Y15650000D03*
D21*
X42987500Y30600000D03*
X40912500Y30600000D03*
D22*
X38399999Y1574999D03*
X38399999Y2224999D03*
X38399999Y2874999D03*
X38399999Y3524999D03*
X38399999Y4174999D03*
X38399999Y4824999D03*
X38399999Y5474999D03*
X38399999Y6124999D03*
X38399999Y6774999D03*
X38399999Y7424999D03*
X44199999Y7424999D03*
X44199999Y6774999D03*
X44199999Y6124999D03*
X44199999Y5474999D03*
X44199999Y4824999D03*
X44199999Y4174999D03*
X44199999Y3524999D03*
X44199999Y2874999D03*
X44199999Y2224999D03*
X44199999Y1574999D03*
D19*
X14000000Y13000000D03*
X16000000Y13000000D03*
D10*
X32400000Y23900000D03*
X32400000Y29900000D03*
X28600000Y23900000D03*
X28600000Y29900000D03*
D23*
X14000000Y17500000D03*
X14000000Y15500000D03*
D24*
X16500000Y17537500D03*
X16500000Y15462500D03*
X38500000Y28537500D03*
X38500000Y26462500D03*
D19*
X70500000Y18150000D03*
X72500000Y18150000D03*
D13*
X19999999Y5249999D03*
X19999999Y7749999D03*
D25*
X21349999Y18399999D03*
X21349999Y19349999D03*
X21349999Y20299999D03*
X24049999Y20299999D03*
X24049999Y18399999D03*
D23*
X25800000Y7400000D03*
X25800000Y5400000D03*
D21*
X23037500Y10650000D03*
X20962500Y10650000D03*
D26*
X11850000Y19750000D03*
X9850000Y19750000D03*
D12*
X41762500Y9550000D03*
X38637500Y9550000D03*
D27*
X29799999Y18049999D03*
X29799999Y19949999D03*
X32799999Y18999999D03*
D18*
X9862500Y14900000D03*
X11937500Y14900000D03*
D19*
X9850000Y17150000D03*
X11850000Y17150000D03*
D14*
X21000000Y26025000D03*
X21000000Y28075000D03*
D28*
X65000000Y26025000D03*
X65000000Y23975000D03*
D29*
X48150000Y2050000D03*
X50550000Y2050000D03*
D19*
X21050000Y30500000D03*
X23050000Y30500000D03*
M02*
