G04 #@! TF.GenerationSoftware,KiCad,Pcbnew,6.99.0-unknown-455e330f3b~148~ubuntu20.04.1*
G04 #@! TF.CreationDate,2022-03-15T10:42:55+05:30*
G04 #@! TF.ProjectId,espc3-vario,65737063-332d-4766-9172-696f2e6b6963,rev?*
G04 #@! TF.SameCoordinates,PX55d4a80PY7270e00*
G04 #@! TF.FileFunction,Soldermask,Top*
G04 #@! TF.FilePolarity,Negative*
%FSLAX46Y46*%
G04 Gerber Fmt 4.6, Leading zero omitted, Abs format (unit mm)*
G04 Created by KiCad (PCBNEW 6.99.0-unknown-455e330f3b~148~ubuntu20.04.1) date 2022-03-15 10:42:55*
%MOMM*%
%LPD*%
G01*
G04 APERTURE LIST*
G04 Aperture macros list*
%AMRoundRect*
0 Rectangle with rounded corners*
0 $1 Rounding radius*
0 $2 $3 $4 $5 $6 $7 $8 $9 X,Y pos of 4 corners*
0 Add a 4 corners polygon primitive as box body*
4,1,4,$2,$3,$4,$5,$6,$7,$8,$9,$2,$3,0*
0 Add four circle primitives for the rounded corners*
1,1,$1+$1,$2,$3*
1,1,$1+$1,$4,$5*
1,1,$1+$1,$6,$7*
1,1,$1+$1,$8,$9*
0 Add four rect primitives between the rounded corners*
20,1,$1+$1,$2,$3,$4,$5,0*
20,1,$1+$1,$4,$5,$6,$7,0*
20,1,$1+$1,$6,$7,$8,$9,0*
20,1,$1+$1,$8,$9,$2,$3,0*%
G04 Aperture macros list end*
%ADD10RoundRect,0.050000X-0.325000X0.780000X-0.325000X-0.780000X0.325000X-0.780000X0.325000X0.780000X0*%
%ADD11RoundRect,0.050000X0.400000X-0.950000X0.400000X0.950000X-0.400000X0.950000X-0.400000X-0.950000X0*%
%ADD12RoundRect,0.250000X0.412500X0.650000X-0.412500X0.650000X-0.412500X-0.650000X0.412500X-0.650000X0*%
%ADD13RoundRect,0.250000X-0.350000X-0.450000X0.350000X-0.450000X0.350000X0.450000X-0.350000X0.450000X0*%
%ADD14RoundRect,0.250000X-0.337500X-0.475000X0.337500X-0.475000X0.337500X0.475000X-0.337500X0.475000X0*%
%ADD15RoundRect,0.275000X0.275000X-0.625000X0.275000X0.625000X-0.275000X0.625000X-0.275000X-0.625000X0*%
%ADD16RoundRect,0.275000X-0.625000X-0.275000X0.625000X-0.275000X0.625000X0.275000X-0.625000X0.275000X0*%
%ADD17RoundRect,0.250000X0.350000X0.450000X-0.350000X0.450000X-0.350000X-0.450000X0.350000X-0.450000X0*%
%ADD18R,1.700000X1.700000*%
%ADD19O,1.700000X1.700000*%
%ADD20C,2.500000*%
%ADD21RoundRect,0.250000X-0.475000X0.337500X-0.475000X-0.337500X0.475000X-0.337500X0.475000X0.337500X0*%
%ADD22RoundRect,0.381000X0.762000X0.381000X-0.762000X0.381000X-0.762000X-0.381000X0.762000X-0.381000X0*%
%ADD23RoundRect,0.050000X0.750000X-0.400000X0.750000X0.400000X-0.750000X0.400000X-0.750000X-0.400000X0*%
%ADD24R,1.500000X0.700000*%
%ADD25RoundRect,0.050000X0.750000X-0.350000X0.750000X0.350000X-0.750000X0.350000X-0.750000X-0.350000X0*%
%ADD26O,1.800000X1.000000*%
%ADD27RoundRect,0.250001X0.462499X0.624999X-0.462499X0.624999X-0.462499X-0.624999X0.462499X-0.624999X0*%
%ADD28RoundRect,0.375000X0.375000X-0.875000X0.375000X0.875000X-0.375000X0.875000X-0.375000X-0.875000X0*%
%ADD29RoundRect,0.250000X-0.450000X0.350000X-0.450000X-0.350000X0.450000X-0.350000X0.450000X0.350000X0*%
%ADD30RoundRect,0.250000X-0.412500X-0.650000X0.412500X-0.650000X0.412500X0.650000X-0.412500X0.650000X0*%
G04 APERTURE END LIST*
D10*
X60950000Y24350000D03*
X60000000Y24350000D03*
X59050000Y24350000D03*
X59050000Y21650000D03*
X60950000Y21650000D03*
D11*
X30450000Y28300000D03*
X32350000Y28300000D03*
X31400000Y31300000D03*
D12*
X59212500Y27350000D03*
X56087500Y27350000D03*
D13*
X50350000Y1850000D03*
X48350000Y1850000D03*
D14*
X68862500Y9650000D03*
X70937500Y9650000D03*
D15*
X9050000Y10050000D03*
X11050000Y10050000D03*
X13050000Y10050000D03*
X15050000Y10050000D03*
X17050000Y10050000D03*
X19050000Y10050000D03*
X21050000Y10050000D03*
X23050000Y10050000D03*
D16*
X24550000Y13050000D03*
X24550000Y15050000D03*
X24550000Y17050000D03*
X24550000Y19050000D03*
X24550000Y21050000D03*
X24550000Y23050000D03*
D15*
X23050000Y26050000D03*
X21050000Y26050000D03*
X19050000Y26050000D03*
X17050000Y26050000D03*
X15050000Y26050000D03*
X13050000Y26050000D03*
X11050000Y26050000D03*
X9050000Y26050000D03*
D17*
X32400000Y25900000D03*
X30400000Y25900000D03*
X15000000Y6600000D03*
X13000000Y6600000D03*
D18*
X35899999Y28809999D03*
D19*
X35899999Y26269999D03*
X35899999Y23729999D03*
X35899999Y21189999D03*
X35899999Y18649999D03*
X35899999Y16109999D03*
X35899999Y13569999D03*
X35899999Y11029999D03*
X35899999Y8489999D03*
X35899999Y5949999D03*
D20*
X57000000Y2750000D03*
D21*
X10500000Y6537500D03*
X10500000Y4462500D03*
D22*
X71850000Y23600000D03*
X71850000Y26000000D03*
D23*
X68600000Y14300000D03*
D24*
X68599999Y15499999D03*
D25*
X68600000Y16500000D03*
X68600000Y17500000D03*
X68600000Y18500000D03*
D23*
X68600000Y19700000D03*
D26*
X68799999Y12699999D03*
X68799999Y21299999D03*
X72599999Y12699999D03*
X72599999Y21299999D03*
D27*
X64137500Y16050000D03*
X61162500Y16050000D03*
D28*
X1700000Y32400000D03*
X4240000Y32400000D03*
X6780000Y32400000D03*
D29*
X62500000Y28500000D03*
X62500000Y26500000D03*
D13*
X15000000Y4000000D03*
X17000000Y4000000D03*
D20*
X17000000Y31250000D03*
D17*
X65550000Y21800000D03*
X63550000Y21800000D03*
D30*
X61137500Y18750000D03*
X64262500Y18750000D03*
D13*
X22250000Y30550000D03*
X24250000Y30550000D03*
M02*
