M48
; DRILL file {KiCad 6.99.0-unknown-455e330f3b~148~ubuntu20.04.1} date Tue Mar 15 10:42:58 2022
; FORMAT={-:-/ absolute / metric / decimal}
; #@! TF.CreationDate,2022-03-15T10:42:58+05:30
; #@! TF.GenerationSoftware,Kicad,Pcbnew,6.99.0-unknown-455e330f3b~148~ubuntu20.04.1
; #@! TF.FileFunction,Plated,1,2,PTH
FMAT,2
METRIC
; #@! TA.AperFunction,Plated,PTH,ViaDrill
T1C0.400
; #@! TA.AperFunction,Plated,PTH,ComponentDrill
T2C0.650
; #@! TA.AperFunction,Plated,PTH,ComponentDrill
T3C1.000
%
G90
G05
T1
X9.2Y32.4
X9.8Y13.25
X10.15Y32.4
X10.5Y3.45
X11.0Y11.7
X13.0Y2.0
X13.05Y10.1
X15.0Y5.3
X19.0Y17.05
X21.0Y26.1
X22.25Y29.2
X22.7Y22.4
X23.05Y10.5
X23.05Y9.6
X24.0Y25.6
X24.85Y25.6
X26.15Y30.6
X26.15Y29.65
X26.6Y14.15
X28.55Y16.05
X30.45Y24.8
X32.35Y27.0
X32.4Y24.8
X34.1Y32.3
X35.3Y32.3
X35.793Y2.431
X36.5Y3.6
X36.5Y1.5
X41.85Y12.0
X41.85Y11.15
X44.3Y30.6
X45.25Y30.6
X45.5Y1.55
X46.95Y1.85
X50.45Y3.6
X56.1Y26.0
X56.1Y25.1
X60.0Y25.5
X63.1Y18.75
X63.55Y24.0
X65.0Y27.3
X65.4Y18.75
X66.6Y21.8
X68.15Y19.7
X68.15Y14.3
X68.95Y19.7
X68.95Y14.3
X69.45Y23.6
X70.3Y23.6
X70.5Y19.6
X70.55Y14.45
X72.0Y9.65
T3
X35.9Y28.81
X35.9Y26.27
X35.9Y23.73
X35.9Y21.19
X35.9Y18.65
X35.9Y16.11
X35.9Y13.57
X35.9Y11.03
X35.9Y8.49
X35.9Y5.95
T2
X68.425Y21.3G85X69.175Y21.3
G05
X68.425Y12.7G85X69.175Y12.7
G05
X72.225Y21.3G85X72.975Y21.3
G05
X72.225Y12.7G85X72.975Y12.7
G05
T0
M30
